<svg width="411" height="449" viewBox="0 0 411 449" fill="none" xmlns="http://www.w3.org/2000/svg">
<path d="M410.732 176.43H297.552C297.552 176.43 308.772 145.78 326.042 145.78C343.312 145.78 348.722 166.94 348.722 166.94C348.722 166.94 360.372 155.44 369.952 155.44C379.532 155.44 387.812 170.63 387.812 170.63C387.812 170.63 401.372 162.46 410.732 176.43Z" fill="#EBEBEB"/>
<path d="M57.8121 100.37H4.89209C4.89209 100.37 16.7121 83.26 26.0221 83.26C35.3321 83.26 38.0821 94.68 38.0821 94.68C38.0821 94.68 44.6621 89.35 50.7421 90.3C56.8221 91.25 57.8121 100.37 57.8121 100.37Z" fill="#EBEBEB"/>
<path d="M319.332 17.13H266.432C266.432 17.13 278.252 0 287.562 0C296.872 0 299.632 11.42 299.632 11.42C299.632 11.42 306.202 6.09 312.292 7.04C318.382 7.99 319.332 17.13 319.332 17.13Z" fill="#EBEBEB"/>
<path d="M153.982 67.42H50.9822C50.9822 67.42 65.0922 35.92 80.1822 33.95C95.2722 31.98 102.492 57.36 102.492 57.36C102.492 57.36 112.232 48.36 119.882 48.36C127.532 48.36 133.442 60.17 133.442 60.17C133.442 60.17 148.732 52.11 153.982 67.42Z" fill="#EBEBEB"/>
<path d="M137.812 242.17H34.812C34.812 242.17 48.922 210.67 64.012 208.7C79.102 206.73 86.322 232.1 86.322 232.1C86.322 232.1 96.062 223.1 103.712 223.1C111.362 223.1 117.272 234.91 117.272 234.91C117.272 234.91 132.532 226.86 137.812 242.17Z" fill="#EBEBEB"/>
<path d="M6.63208 313.04L56.9221 312.8L107.222 312.71L207.812 312.54L308.402 312.71L358.702 312.8L408.992 313.04L358.702 313.29L308.402 313.37L207.812 313.54L107.222 313.37L56.9221 313.28L6.63208 313.04Z" fill="#263238"/>
<path d="M382.182 284.94C378.812 280.59 374.982 275.8 375.182 270.02C375.402 264.7 377.182 258.79 382.082 255.95C383.482 255.15 384.502 254.87 384.952 256.66C385.632 259.4 384.462 262.73 383.882 265.39C383.08 268.804 382.605 272.286 382.462 275.79C382.392 278.26 382.562 280.72 382.552 283.19C382.552 283.5 382.552 283.81 382.552 284.12C382.552 284.23 382.552 284.36 382.552 284.47L382.642 284.6C382.661 284.641 382.671 284.685 382.671 284.73C382.671 284.775 382.661 284.819 382.642 284.86C382.634 284.894 382.616 284.925 382.592 284.95C382.536 285.003 382.462 285.032 382.385 285.03C382.308 285.028 382.235 284.996 382.182 284.94Z" fill="#FF862B"/>
<path d="M382.632 284.95C379.882 280.95 376.632 276.87 377.062 271.82C377.3 269.466 377.907 267.164 378.862 265C379.282 264 380.502 261.07 381.782 261C384.102 260.88 381.002 270.19 380.852 271.29C380.388 275.336 380.984 279.433 382.582 283.18C382.582 283.49 382.582 283.8 382.582 284.11C381.405 281.481 380.669 278.677 380.402 275.81C380.052 271.81 381.402 268.52 382.122 264.69C382.282 263.87 382.922 261.25 381.502 261.46C380.562 261.6 379.352 264.46 379.092 265.08C378.197 267.135 377.617 269.312 377.372 271.54C376.892 276.64 380.012 280.78 382.692 284.85C382.682 284.888 382.661 284.923 382.632 284.95Z" fill="white"/>
<path d="M381.232 289.36L380.632 289.62C380.61 289.634 380.584 289.642 380.557 289.642C380.531 289.642 380.505 289.634 380.482 289.62C380.436 289.587 380.402 289.539 380.39 289.483C380.377 289.428 380.385 289.37 380.412 289.32C380.434 289.281 380.47 289.252 380.512 289.24H380.602L380.782 289.18C383.162 286.26 386.012 283.75 388.372 280.79C390.732 277.83 392.672 274.99 395.132 272.35C396.682 270.68 404.882 262.87 406.632 267.7C407.402 269.84 405.712 272.91 404.632 274.7C403.198 277.074 401.345 279.168 399.162 280.88C393.872 285.05 387.362 286.65 381.232 289.36Z" fill="#FF862B"/>
<path d="M393.482 282.49C395.618 281.074 397.541 279.36 399.192 277.4C399.762 276.72 402.482 273.4 401.582 272.4C401.012 271.7 399.472 272.61 398.952 272.89C396.742 274.1 395.152 276.24 393.462 278.05C390.02 281.719 386.313 285.132 382.372 288.26L381.522 288.71L380.812 289.09L380.572 289.22L380.392 289.33C380.367 289.38 380.36 289.438 380.373 289.493C380.386 289.547 380.417 289.596 380.462 289.63L381.012 289.34L380.612 289.65L381.092 289.43L381.212 289.38C381.432 289.22 381.662 289.05 381.872 288.88C385.865 286.981 389.742 284.847 393.482 282.49ZM383.322 287.74C385.632 285.92 387.832 283.97 389.962 281.93C391.672 280.29 393.302 278.57 394.892 276.82C395.761 275.798 396.714 274.851 397.742 273.99C398.552 273.35 401.742 271.26 400.942 274.21C400.382 276.35 397.642 278.74 396.052 280.1C394.266 281.602 392.348 282.941 390.322 284.1C388.032 285.37 385.662 286.54 383.322 287.74Z" fill="white"/>
<path d="M370.722 300.56C370.671 300.518 370.627 300.467 370.592 300.41C367.862 296.18 363.592 291.03 363.822 285.69C364.012 281.75 366.182 276.46 370.092 274.85C374.512 273.04 373.652 281.38 373.532 283.51C373.005 289.22 372.157 294.895 370.992 300.51V300.61C370.902 300.7 370.812 300.64 370.722 300.56Z" fill="#FF862B"/>
<path d="M370.942 300.62C370.942 300.28 370.892 299.94 370.872 299.62C370.632 295.73 370.552 291.82 370.682 287.92C370.682 286.92 371.492 279.4 369.532 279.76C368.352 279.98 367.642 282.76 367.382 283.71C366.919 285.364 366.736 287.085 366.842 288.8C367.102 292.74 369.112 296.3 370.512 299.96C370.582 300.13 370.652 300.3 370.712 300.48V300.59C370.812 300.64 370.902 300.7 370.942 300.62ZM367.452 290.88C367.112 289.157 367.062 287.389 367.302 285.65C367.462 284.5 368.162 280.33 369.632 280.25C370.402 280.2 370.322 280.69 370.472 281.57C370.54 281.973 370.584 282.381 370.602 282.79C370.602 283.79 370.602 284.79 370.522 285.79C370.432 287.55 370.382 289.31 370.372 291.08C370.372 293.97 370.462 296.85 370.652 299.73C369.642 296.76 368.082 293.96 367.452 290.88Z" fill="white"/>
<path d="M384.482 301.97C379.041 304.268 373.039 304.891 367.242 303.76H367.142C367.104 303.728 367.076 303.684 367.064 303.636C367.051 303.588 367.054 303.537 367.072 303.49C367.088 303.439 367.123 303.395 367.169 303.367C367.215 303.34 367.269 303.33 367.322 303.34L367.682 303.4C373.682 300.09 379.752 296.87 385.732 293.4C387.132 292.59 396.212 287.61 396.732 291.15C397.032 293.34 393.732 295.9 392.252 297.15C389.928 299.15 387.307 300.776 384.482 301.97Z" fill="#FF862B"/>
<path d="M390.812 295.14C391.172 294.67 391.472 294.08 390.812 293.8C389.482 293.25 385.272 295.68 384.072 296.29C379.072 298.83 374.072 300.86 368.892 302.93L367.582 303.46H367.072C367.053 303.506 367.049 303.558 367.062 303.607C367.074 303.655 367.103 303.699 367.142 303.73H367.282C367.502 303.73 367.742 303.73 367.972 303.73C371.628 303.756 375.265 303.21 378.752 302.11C380.952 301.415 383.073 300.494 385.082 299.36C386.942 298.26 389.542 296.87 390.812 295.14ZM368.222 303.45H367.892C368.082 303.39 368.262 303.34 368.442 303.27C372.543 301.923 376.552 300.309 380.442 298.44C382.442 297.44 384.302 296.44 386.302 295.51C387.142 295.13 389.492 293.99 390.302 294.35C391.112 294.71 390.252 295.29 389.822 295.69C389.392 296.09 388.902 296.42 388.592 296.69C382.7 301.035 375.583 303.401 368.262 303.45H368.222Z" fill="white"/>
<path d="M355.812 313.04L355.222 312.23L357.342 310.63C360.172 308.45 362.982 306.25 365.752 303.99C367.342 302.7 368.892 301.41 370.392 300.07C370.441 300.018 370.494 299.971 370.552 299.93L370.912 299.59C371.039 299.483 371.169 299.363 371.302 299.23C374.711 296.219 377.623 292.689 379.932 288.77C380.692 287.44 381.382 286.08 382.042 284.7C382.112 284.57 382.172 284.44 382.232 284.31C382.253 284.275 382.27 284.238 382.282 284.2C382.352 284.06 382.412 283.93 382.472 283.78L382.622 283.47C384.622 279.2 386.202 274.76 387.922 270.41C388.412 269.17 388.922 267.92 389.412 266.68L389.502 266.46C389.502 266.37 389.572 266.27 389.612 266.18C391.822 260.69 394.092 255.18 396.152 249.68C396.222 249.47 396.532 249.62 396.452 249.82C395.112 253.53 393.852 257.26 392.572 261C392.412 261.5 392.232 262 392.062 262.49C391.722 263.49 391.392 264.49 391.062 265.43C390.395 267.43 389.692 269.383 388.952 271.29C387.038 276.84 384.784 282.267 382.202 287.54C382.002 287.93 381.792 288.31 381.582 288.69C381.372 289.07 381.322 289.18 381.172 289.4C381.022 289.62 380.872 289.95 380.702 290.22C377.813 294.846 374.126 298.922 369.812 302.26L368.932 302.98L368.522 303.32C368.444 303.374 368.371 303.434 368.302 303.5L368.012 303.72L367.792 303.89L367.022 304.49C364.212 306.69 361.362 308.85 358.522 311C357.582 311.64 356.672 312.34 355.812 313.04Z" fill="#FF862B"/>
<path d="M390.742 250.94C392.132 246.55 396.272 239.23 401.862 240.2C402.914 240.354 403.872 240.89 404.555 241.705C405.237 242.52 405.595 243.557 405.562 244.62C405.562 247.26 403.732 249.75 402.172 251.73C398.012 257.02 393.372 261.87 389.582 267.45C389.582 267.51 389.252 267.93 389.172 268.06C389.092 268.19 388.932 268.06 389.002 267.92L389.372 267.37C389.392 261.96 389.082 256.15 390.742 250.94Z" fill="#FF862B"/>
<path d="M389.592 267.49C389.592 267.49 389.592 267.41 389.642 267.37C390.338 265.698 391.133 264.068 392.022 262.49C393.929 259.234 396.03 256.095 398.312 253.09C399.182 251.92 403.552 246.35 399.932 245.96C398.412 245.8 396.852 247.09 395.812 248.04C394.154 249.574 392.818 251.423 391.882 253.48C389.962 257.54 389.532 262.03 389.462 266.48C389.462 266.68 389.462 266.89 389.462 267.09L389.382 267.27C389.36 267.307 389.343 267.348 389.332 267.39C389.322 267.416 389.322 267.444 389.332 267.47C389.337 267.491 389.346 267.511 389.359 267.529C389.371 267.547 389.388 267.562 389.406 267.573C389.425 267.584 389.446 267.592 389.468 267.595C389.489 267.597 389.511 267.596 389.532 267.59C389.549 267.578 389.563 267.564 389.573 267.546C389.583 267.529 389.59 267.51 389.592 267.49ZM389.592 266.18C389.636 262.504 390.236 258.856 391.372 255.36C392.022 253.552 392.936 251.851 394.082 250.31C394.595 249.63 395.164 248.995 395.782 248.41C396.242 247.966 396.741 247.565 397.272 247.21C398.432 246.43 400.002 246 400.602 246.59C401.352 247.31 401.072 247.94 400.512 249.17C400.319 249.585 400.102 249.99 399.862 250.38C399.264 251.346 398.616 252.28 397.922 253.18C396.792 254.7 395.682 256.18 394.622 257.77C393.902 258.82 393.202 259.9 392.552 261C391.416 262.884 390.413 264.845 389.552 266.87C389.542 266.64 389.562 266.41 389.572 266.18H389.592Z" fill="white"/>
<path d="M13.2521 277.92C15.9621 280.43 18.5121 283.11 21.0221 285.81C22.4521 287.35 23.8521 288.9 25.2921 290.43C26.8621 292.12 28.3521 294.01 30.5621 294.84C30.6606 294.882 30.7518 294.939 30.8321 295.01C30.844 295.057 30.8434 295.106 30.8306 295.153C30.8177 295.199 30.7929 295.242 30.7586 295.276C30.7244 295.311 30.6818 295.335 30.6351 295.348C30.5884 295.361 30.5391 295.362 30.4921 295.35L30.3421 295.29H30.3121C29.6304 295.211 28.9596 295.057 28.3121 294.83C26.4925 294.402 24.6994 293.867 22.9421 293.23C19.3279 291.954 15.8877 290.231 12.7021 288.1C9.85927 286.186 7.28338 283.902 5.04213 281.31C3.25213 279.23 0.562128 276.16 0.0421282 273.36C-0.407872 270.83 2.86213 271.36 4.37213 271.77C7.81213 272.83 10.6721 275.56 13.2521 277.92Z" fill="#FF862B"/>
<path d="M5.01221 276.07C4.23221 277.16 7.18221 280.46 8.42221 281.93C10.378 284.248 12.6114 286.317 15.0722 288.09C19.5096 291.235 24.4502 293.603 29.6822 295.09L30.3122 295.28H30.3722L30.5122 295.33C30.5598 295.344 30.6103 295.345 30.6586 295.333C30.7068 295.321 30.751 295.297 30.7866 295.262C30.8222 295.228 30.848 295.184 30.8613 295.136C30.8746 295.088 30.8749 295.038 30.8622 294.99C30.4422 294.8 30.0422 294.6 29.6522 294.38C29.2622 294.16 28.9322 293.98 28.5922 293.77C24.8122 291.52 21.5322 288.39 18.3122 285.41C14.5322 281.95 6.05221 274.63 5.01221 276.07ZM29.1522 294.51C29.6722 294.8 30.2122 295.07 30.7422 295.32L29.4722 294.9C24.9052 293.441 20.5559 291.372 16.5422 288.75C14.2908 287.256 12.2057 285.527 10.3222 283.59C9.31547 282.549 8.3737 281.447 7.5022 280.29C7.1422 279.8 4.76221 276.91 5.39221 276.34C5.83221 275.95 8.56221 277.73 8.62221 277.76C9.16221 278.11 9.70221 278.49 10.2222 278.88C11.3122 279.67 12.3522 280.53 13.3722 281.4C15.5922 283.3 17.7022 285.32 19.8522 287.29C22.6589 290.052 25.7803 292.476 29.1522 294.51Z" fill="white"/>
<path d="M33.7321 266.69C36.2021 271.47 36.8121 276.96 36.8121 282.26C36.8121 285.11 36.7521 287.95 36.7221 290.78C36.5587 293.319 36.6492 295.868 36.9921 298.39C36.9921 298.49 36.9921 298.61 37.0621 298.72C37.2096 299.41 37.4343 300.08 37.7321 300.72C37.7418 300.74 37.7469 300.762 37.7469 300.785C37.7469 300.807 37.7418 300.83 37.7321 300.85L37.8521 301.04C37.8521 301.09 37.8521 301.15 37.7821 301.11L37.6021 300.95C37.569 300.957 37.5346 300.951 37.5052 300.935C37.4758 300.918 37.4534 300.892 37.4421 300.86V300.78L37.2721 300.62C33.1221 296.79 30.8021 290.32 29.2721 285.12C27.7421 279.92 26.962 274.38 28.332 269.12C28.682 267.79 29.2721 264.62 30.8821 264.12C32.4921 263.62 33.2121 265.67 33.7321 266.69Z" fill="#FF862B"/>
<path d="M31.5422 269.78C29.9122 270.06 30.2622 274.52 30.3122 275.61C30.5193 278.913 31.0145 282.192 31.7922 285.41C32.8018 290.661 34.6273 295.723 37.2022 300.41L37.2622 300.59C37.3137 300.651 37.3706 300.708 37.4322 300.76C37.4268 300.786 37.4268 300.813 37.4322 300.84C37.4451 300.87 37.4678 300.896 37.4968 300.912C37.5257 300.928 37.5593 300.935 37.5922 300.93L37.5322 300.68C37.3522 300.03 37.2022 299.36 37.0622 298.68C37.0622 298.56 37.0122 298.45 36.9922 298.35C36.2163 293.689 35.7453 288.982 35.5822 284.26C35.3898 280.971 34.8943 277.707 34.1022 274.51C33.8822 273.73 32.9122 269.56 31.5422 269.78ZM33.0022 272.15C35.2322 277.3 35.1622 283.42 35.5322 288.92C35.6931 292.628 36.2122 296.312 37.0822 299.92C34.9039 295.598 33.3132 291.004 32.3522 286.26C31.709 283.576 31.2182 280.859 30.8822 278.12C30.684 276.635 30.6005 275.137 30.6322 273.64C30.6411 272.74 30.7552 271.844 30.9722 270.97C31.5322 269.38 32.6222 271.26 33.0022 272.15Z" fill="white"/>
<path d="M46.6022 308C46.6258 308.044 46.6382 308.094 46.6382 308.145C46.6382 308.195 46.6258 308.245 46.6022 308.29H46.7122C46.7361 308.29 46.759 308.299 46.7758 308.316C46.7927 308.333 46.8022 308.356 46.8022 308.38C46.8054 308.391 46.806 308.402 46.8039 308.413C46.8019 308.424 46.7972 308.434 46.7904 308.443C46.7835 308.452 46.7747 308.459 46.7646 308.463C46.7544 308.468 46.7433 308.47 46.7322 308.47C40.3422 309.47 33.2322 309.77 26.9422 308.06C24.2794 307.35 21.7497 306.212 19.4522 304.69C17.8922 303.64 14.7422 301.51 14.5622 299.4C14.2122 295.16 25.4522 299.56 27.1422 300.23C30.2222 301.45 33.2022 302.92 36.2522 304.23C39.6022 305.63 43.0522 306.77 46.4922 307.93C46.5344 307.943 46.5724 307.967 46.6022 308Z" fill="#FF862B"/>
<path d="M46.592 308C46.252 308 45.912 307.94 45.592 307.89C40.0018 307.267 34.5409 305.787 29.402 303.5C26.8535 302.281 24.2076 301.278 21.492 300.5C20.812 300.34 18.312 299.5 18.712 301.15C18.922 301.98 23.042 304.36 24.162 304.89C26.7383 306.06 29.4486 306.91 32.232 307.42C36.8884 308.343 41.6421 308.679 46.382 308.42H46.792C46.7921 308.408 46.7898 308.397 46.7851 308.387C46.7805 308.376 46.7737 308.367 46.7652 308.359C46.7566 308.352 46.7466 308.346 46.7357 308.343C46.7248 308.339 46.7133 308.338 46.702 308.34H46.602C46.6379 308.29 46.6564 308.23 46.6546 308.168C46.6528 308.107 46.6308 308.048 46.592 308ZM34.592 307.51C31.8099 307.129 29.0751 306.458 26.432 305.51C25.3849 305.124 24.3629 304.673 23.372 304.16C22.5873 303.768 21.832 303.32 21.112 302.82C19.382 301.56 19.032 301.1 19.182 300.77C19.332 300.44 19.642 300.45 21.042 300.68C21.9491 300.846 22.837 301.104 23.692 301.45C24.902 301.91 26.112 302.45 27.302 302.93C29.702 303.93 32.082 305.03 34.552 305.88C38.0808 307.124 41.7601 307.891 45.492 308.16C41.8436 308.248 38.1941 308.031 34.582 307.51H34.592Z" fill="white"/>
<path d="M45.9322 289.64C47.4523 291.378 48.5781 293.425 49.2322 295.64C50.6922 299.99 51.2322 304.64 52.3522 309.03C52.5322 309.69 52.7122 310.35 52.9222 311.03C52.9222 311.1 53.3822 311.82 53.3322 311.78C53.2822 311.74 53.1022 311.56 52.7522 311.19C51.0222 309.38 45.8722 303.79 43.9022 300.01C42.6039 297.671 41.5964 295.183 40.9022 292.6C40.6222 291.38 40.1022 288.6 41.3222 287.66C42.5422 286.72 45.1022 288.76 45.9322 289.64Z" fill="#FF862B"/>
<path d="M43.3121 290.71C41.6021 291.42 45.1421 298.95 45.5821 299.94C47.2353 303.599 49.3563 307.027 51.8921 310.14C52.1721 310.5 52.4621 310.84 52.7521 311.19L53.3221 311.78C53.3221 311.78 52.9521 311.1 52.9121 311.02C52.8721 310.94 52.8521 310.79 52.8121 310.68C52.6521 310.14 52.4921 309.59 52.3621 309.05C51.2321 306.05 50.1621 303.05 48.9721 300.13C48.1388 297.996 47.1356 295.933 45.9721 293.96C45.7121 293.51 44.0621 290.4 43.3121 290.71ZM44.7121 292.26C48.5421 297.75 49.9321 304.36 52.4621 310.46C52.4621 310.57 52.5421 310.66 52.5821 310.76L52.2621 310.36C50.2263 307.738 48.4386 304.933 46.9221 301.98C46.0068 300.177 45.202 298.32 44.5121 296.42C44.085 295.392 43.7276 294.336 43.4421 293.26C43.3421 292.79 43.1121 291.49 43.4421 291.33C43.7721 291.17 44.4621 291.91 44.7121 292.26Z" fill="white"/>
<path d="M12.7521 246.47C18.7521 256.53 15.7521 269.47 21.0521 279.81V279.86C21.2121 280.17 21.3821 280.49 21.5621 280.8C21.5784 280.831 21.5871 280.865 21.5875 280.9C21.5879 280.935 21.5799 280.97 21.5643 281.001C21.5487 281.032 21.5258 281.059 21.4976 281.08C21.4694 281.101 21.4366 281.114 21.4021 281.12C21.3696 281.122 21.3372 281.114 21.3089 281.098C21.2805 281.082 21.2573 281.059 21.2421 281.03L21.1221 280.81C16.3421 276.37 12.4721 270.34 9.62208 264.51C7.15208 259.43 5.52208 253.74 6.37208 248.07C6.57208 246.67 6.89208 243.88 8.58208 243.36C10.2721 242.84 12.0121 245.26 12.7521 246.47Z" fill="#FF862B"/>
<path d="M10.6821 250.17C9.97211 250.4 9.88211 251.44 9.80211 252.01C9.59733 253.434 9.56711 254.878 9.71211 256.31C10.0093 259.247 10.7475 262.123 11.9021 264.84C13.7188 269.549 16.1102 274.017 19.0221 278.14C19.6921 279.06 20.4021 279.95 21.1521 280.8L21.4321 281.12C21.4667 281.114 21.4994 281.101 21.5276 281.08C21.5558 281.059 21.5787 281.032 21.5943 281.001C21.61 280.97 21.6179 280.935 21.6176 280.9C21.6172 280.865 21.6084 280.831 21.5921 280.8C21.4121 280.5 21.2621 280.2 21.0921 279.89C21.0867 279.863 21.0867 279.836 21.0921 279.81C19.8747 277.82 18.8533 275.717 18.0421 273.53C16.9219 270.077 16.0234 266.557 15.3521 262.99C15.0121 261.6 13.1021 249.37 10.6821 250.17ZM12.2721 252.17C13.5021 254.8 13.8921 257.8 14.5221 260.61C15.1521 263.42 15.7621 266.3 16.4321 269.13C16.9709 271.383 17.6968 273.587 18.6021 275.72C19.3563 277.499 20.27 279.206 21.3321 280.82C20.1296 279.372 19.0207 277.849 18.0121 276.26V276.19C16.247 273.313 14.6607 270.331 13.2621 267.26C13.2496 267.221 13.2328 267.185 13.2121 267.15C11.9203 264.469 10.9567 261.642 10.3421 258.73C10.0263 257.143 9.88879 255.527 9.93211 253.91C10.0221 252.07 10.2821 250.6 10.9321 250.58C11.3321 250.54 11.9121 251.45 12.2721 252.26V252.17Z" fill="white"/>
<path d="M13.5021 267.11C15.1521 270.01 16.8721 272.9 18.6021 275.77C19.4154 277.103 20.2321 278.436 21.0521 279.77C21.0467 279.796 21.0467 279.823 21.0521 279.85L21.9321 281.31C24.5921 285.7 27.2221 290.31 30.5721 294.24C32.3663 296.293 34.3482 298.175 36.4921 299.86L37.1621 300.38L37.5321 300.65L37.7421 300.81C39.6021 302.25 41.5521 303.6 43.4521 304.9C46.0921 306.72 48.8421 308.35 51.6121 309.95C51.6872 310.004 51.7676 310.051 51.8521 310.09L52.2221 310.32L52.4221 310.42C52.5351 310.496 52.652 310.566 52.7721 310.63C53.6621 311.15 54.5521 311.63 55.4321 312.19L54.8721 312.99C51.9634 311.687 49.1557 310.169 46.4721 308.45L46.3121 308.34C46.0421 308.18 45.7821 308.01 45.5221 307.84L44.5221 307.22L42.2621 305.69C37.7907 302.808 33.6784 299.404 30.0121 295.55L29.8121 295.26L29.6921 295.12L29.4821 294.89L29.1621 294.5L28.6021 293.8L28.4421 293.59C25.68 289.764 23.181 285.754 20.9621 281.59C20.5421 280.84 20.1321 280.11 19.7221 279.36L19.0321 278.12C18.7021 277.49 18.3621 276.85 18.0321 276.23V276.16C16.4421 273.16 14.9221 270.16 13.3121 267.21C13.1921 267.1 13.4221 266.97 13.5021 267.11Z" fill="#FF862B"/>
<path d="M207.812 448.2C313.182 448.2 398.602 433.77 398.602 415.97C398.602 398.17 313.182 383.74 207.812 383.74C102.442 383.74 17.022 398.17 17.022 415.97C17.022 433.77 102.442 448.2 207.812 448.2Z" fill="#EBEBEB"/>
<path d="M133.652 91.8096C127.442 97.0196 96.9122 134.47 51.4822 122.4C51.4822 122.4 59.2922 154.7 74.7322 154.7C90.1722 154.7 99.4022 131.26 99.4022 131.26C99.4022 131.26 101.082 135.35 105.082 134.99C113.212 134.27 127.622 110.77 133.652 97.5396V91.8096Z" fill="#FF862B"/>
<path opacity="0.1" d="M133.652 91.8096C127.442 97.0196 96.9122 134.47 51.4822 122.4C51.4822 122.4 59.2922 154.7 74.7322 154.7C90.1722 154.7 99.4022 131.26 99.4022 131.26C99.4022 131.26 101.082 135.35 105.082 134.99C113.212 134.27 127.622 110.77 133.652 97.5396V91.8096Z" fill="black"/>
<path opacity="0.1" d="M133.652 91.8096V95.5796C129.772 101.16 110.582 127.5 91.8822 132.04C70.9422 137.14 51.4822 122.4 51.4822 122.4C96.9122 134.47 127.442 97.0196 133.652 91.8096Z" fill="black"/>
<path d="M281.972 91.8096C288.182 97.0196 318.712 134.47 364.142 122.4C364.142 122.4 356.332 154.7 340.892 154.7C325.452 154.7 316.222 131.26 316.222 131.26C316.222 131.26 314.542 135.35 310.542 134.99C302.412 134.27 288.002 110.77 281.972 97.5396V91.8096Z" fill="#FF862B"/>
<path opacity="0.1" d="M281.972 91.8096C288.182 97.0196 318.712 134.47 364.142 122.4C364.142 122.4 356.332 154.7 340.892 154.7C325.452 154.7 316.222 131.26 316.222 131.26C316.222 131.26 314.542 135.35 310.542 134.99C302.412 134.27 288.002 110.77 281.972 97.5396V91.8096Z" fill="black"/>
<path opacity="0.1" d="M281.972 91.8096V95.5796C285.852 101.16 305.042 127.5 323.742 132.04C344.682 137.14 364.142 122.4 364.142 122.4C318.712 134.47 288.182 97.0196 281.972 91.8096Z" fill="black"/>
<path d="M336.072 369.63C330.392 368.93 252.652 343.73 251.232 343.73C249.812 343.73 229.702 345.5 207.802 345.5C185.902 345.5 165.802 343.73 164.382 343.73C162.962 343.73 85.2322 368.93 79.5522 369.63C73.8722 370.33 22.8122 300.77 25.2422 298.26C27.6722 295.75 46.5422 299.68 48.6622 299.33C50.7822 298.98 87.0022 278.04 87.3622 276.25C87.7222 274.46 93.3622 230.11 99.4322 195.32C105.502 160.53 118.352 108.32 133.502 91.7896C148.652 75.2596 186.042 65.7896 207.802 65.7896C229.562 65.7896 266.972 75.2496 282.122 91.7896C297.272 108.33 310.122 160.53 316.192 195.32C322.262 230.11 327.902 274.48 328.262 276.25C328.622 278.02 364.822 298.98 366.952 299.33C369.082 299.68 387.892 295.78 390.382 298.26C392.872 300.74 341.752 370.35 336.072 369.63Z" fill="#FF862B"/>
<path d="M183.022 69.1896C184.552 68.4596 191.612 60.8296 201.182 58.1896C204.492 57.2896 198.392 64.1896 198.392 64.1896C198.392 64.1896 212.592 55.6496 218.312 53.5896C227.862 50.1396 232.602 49.4196 232.602 50.9996C232.602 54.5296 217.722 61.1696 215.222 63.9996C215.222 63.9996 224.052 61.8596 227.022 63.7196C229.992 65.5796 219.212 67.4596 219.212 67.4596L183.022 69.1896Z" fill="#FF862B"/>
<path opacity="0.1" d="M180.992 153.45C182.049 158.556 182.218 163.806 181.492 168.97C180.846 174.224 179.109 179.286 176.392 183.83C174.979 186.085 173.3 188.163 171.392 190.02C169.448 191.82 167.3 193.388 164.992 194.69C160.343 197.132 155.233 198.57 149.992 198.91C154.978 197.806 159.76 195.927 164.162 193.34C166.273 191.987 168.24 190.422 170.032 188.67C171.782 186.888 173.322 184.912 174.622 182.78C177.219 178.452 179.005 173.688 179.892 168.72C180.871 163.692 181.24 158.565 180.992 153.45Z" fill="black"/>
<path d="M150.552 128.01C131.012 128.01 121.182 143.01 121.182 160.53C121.182 174.72 132.782 189.21 151.532 189.21C170.282 189.21 181.892 172.21 181.892 158.86C181.892 145.51 171.812 128.01 150.552 128.01Z" fill="white"/>
<path d="M150.812 134.66C135.512 134.66 127.812 146.4 127.812 160.11C127.812 171.26 136.812 182.56 151.532 182.56C166.252 182.56 175.292 169.23 175.292 158.8C175.292 148.37 167.372 134.66 150.812 134.66Z" fill="#263238"/>
<path d="M157.812 134.9C150.862 134.9 147.372 140.24 147.372 146.46C147.4 147.841 147.703 149.203 148.263 150.466C148.822 151.73 149.628 152.869 150.632 153.818C151.636 154.768 152.819 155.508 154.112 155.995C155.404 156.483 156.781 156.709 158.162 156.66C164.822 156.66 168.952 150.6 168.952 145.87C168.948 144.416 168.656 142.977 168.093 141.637C167.53 140.296 166.706 139.081 165.67 138.061C164.634 137.041 163.406 136.236 162.058 135.694C160.709 135.151 159.266 134.881 157.812 134.9Z" fill="white"/>
<path d="M133.172 124.41C139.872 125.65 146.562 126.94 153.252 128.24C159.942 129.54 166.632 130.8 173.302 132.17L172.912 133.75L135.912 123.55L136.492 121.08C148.632 123.26 160.772 125.39 172.892 127.63L172.242 130.46L153.812 125.36L135.362 120.19L135.982 117.33L155.722 120.5L175.452 123.72L174.942 126.22L136.692 116.01L136.992 114.42C143.612 115.26 150.212 116.23 156.832 117.13C163.452 118.03 170.052 118.97 176.652 119.95C169.985 119.35 163.342 118.71 156.722 118.03C150.082 117.36 143.432 116.76 136.802 116.03L137.092 114.44L175.572 123.74L175.062 126.24L155.292 123.24L135.532 120.24L136.152 117.39L154.612 122.5L173.062 127.68L172.402 130.51C160.282 128.27 148.182 125.9 136.072 123.6L136.652 121.13L173.402 132.2L173.002 133.79C166.352 132.31 159.732 130.7 153.102 129.16C146.472 127.62 139.812 126.03 133.172 124.41Z" fill="#263238"/>
<path opacity="0.1" d="M234.812 153.45C234.532 158.561 234.867 163.688 235.812 168.72C236.696 173.687 238.478 178.452 241.072 182.78C242.376 184.912 243.919 186.888 245.672 188.67C247.463 190.424 249.43 191.989 251.542 193.34C255.944 195.928 260.726 197.808 265.712 198.91C260.472 198.57 255.361 197.132 250.712 194.69C248.402 193.39 246.254 191.823 244.312 190.02C242.404 188.163 240.726 186.085 239.312 183.83C236.596 179.286 234.859 174.224 234.212 168.97C233.525 163.8 233.727 158.551 234.812 153.45Z" fill="black"/>
<path d="M265.252 128.01C284.792 128.01 294.612 143.01 294.612 160.53C294.612 174.72 283.022 189.21 264.262 189.21C245.502 189.21 233.912 172.21 233.912 158.86C233.912 145.51 244.032 128.01 265.252 128.01Z" fill="white"/>
<path d="M265.032 134.66C280.332 134.66 288.032 146.4 288.032 160.11C288.032 171.22 278.952 182.56 264.272 182.56C249.592 182.56 240.502 169.26 240.502 158.8C240.502 148.34 248.422 134.66 265.032 134.66Z" fill="#263238"/>
<path d="M257.952 134.9C264.902 134.9 268.392 140.24 268.392 146.46C268.364 147.841 268.061 149.203 267.502 150.466C266.942 151.73 266.137 152.869 265.133 153.818C264.128 154.768 262.946 155.508 261.653 155.995C260.36 156.483 258.983 156.709 257.602 156.66C250.932 156.66 246.812 150.6 246.812 145.87C246.816 144.416 247.108 142.977 247.671 141.637C248.235 140.296 249.058 139.081 250.094 138.061C251.13 137.041 252.358 136.236 253.707 135.694C255.055 135.151 256.499 134.881 257.952 134.9Z" fill="white"/>
<path d="M282.452 124.41C275.832 126.03 269.202 127.59 262.562 129.14C255.922 130.69 249.312 132.29 242.662 133.77L242.262 132.18L279.012 121.11L279.592 123.58C267.482 125.88 255.382 128.25 243.262 130.49L242.602 127.66L261.052 122.48L279.512 117.37L280.132 120.22L260.372 123.22L240.602 126.22L240.092 123.72L278.572 114.42L278.862 116.01C272.232 116.74 265.582 117.34 258.942 118.01C252.302 118.68 245.662 119.33 239.012 119.93C245.612 118.95 252.219 118.01 258.832 117.11C265.452 116.21 272.052 115.24 278.672 114.4L278.972 115.99L240.722 126.26L240.212 123.76L259.942 120.54L279.682 117.37L280.302 120.23L261.812 125.36L243.342 130.46L242.692 127.63C254.812 125.39 266.952 123.26 279.092 121.08L279.672 123.55L242.672 133.75L242.282 132.17C248.952 130.8 255.652 129.55 262.332 128.24C269.012 126.93 275.752 125.65 282.452 124.41Z" fill="#263238"/>
<path d="M239.332 202.18C237.872 205.18 220.332 201.07 207.822 201.07C194.562 201.07 177.752 205.21 176.292 202.18C174.832 199.15 182.812 169.1 207.812 169.1C232.812 169.1 240.812 199.14 239.332 202.18Z" fill="#263238"/>
<path d="M229.302 202.93C222.912 202.3 214.602 201.07 207.822 201.07C200.712 201.07 192.562 202.27 186.332 202.9C194.202 187.75 202.412 186.47 207.822 192.52C213.222 186.47 221.442 187.75 229.302 202.93Z" fill="#FF99BA"/>
<path d="M193.292 202.12C189.782 202.53 186.472 202.93 183.722 203.12L186.452 192.87L190.452 192.16L193.292 202.12Z" fill="white"/>
<path d="M233.982 203.26C231.122 203.17 227.372 202.73 223.342 202.26L227.162 193.81L232.242 194.16L233.982 203.26Z" fill="white"/>
<path d="M274.102 228.2C272.562 219.97 269.51 212.097 265.102 204.98C260.907 198.291 255.358 192.554 248.812 188.14C244.007 184.897 238.689 182.49 233.082 181.02C232.723 181.909 232.061 182.642 231.212 183.09C230.585 183.305 229.911 183.339 229.265 183.189C228.62 183.039 228.029 182.71 227.562 182.24C227.066 183.368 226.188 184.285 225.082 184.83C223.442 185.45 222.082 183.72 222.082 183.72C222.082 183.72 220.372 187.96 217.172 188.1C213.972 188.24 212.332 182.84 212.332 182.84C212.332 182.84 211.112 185.51 209.162 185.51C207.212 185.51 204.252 181.77 204.252 181.77C204.252 181.77 204.252 181.51 204.252 181.1L202.862 181.53C195.372 183.945 188.465 187.892 182.582 193.12C176.349 198.702 171.206 205.392 167.412 212.85C159.035 229.677 156.286 248.751 159.572 267.26C161.109 275.49 164.16 283.364 168.572 290.48C172.744 297.121 178.28 302.799 184.812 307.14C191.547 311.498 199.146 314.346 207.087 315.489C215.028 316.632 223.121 316.042 230.812 313.76C238.318 311.416 245.236 307.495 251.102 302.26C257.34 296.678 262.485 289.984 266.272 282.52C274.623 265.701 277.367 246.651 274.102 228.16V228.2ZM244.352 251.67C243.608 257.172 242.139 262.553 239.982 267.67C238.161 272.041 235.615 276.075 232.452 279.6C229.714 282.649 226.323 285.041 222.532 286.6C218.885 288.058 214.915 288.514 211.032 287.92C207.064 287.409 203.306 285.841 200.152 283.38C196.961 280.806 194.388 277.549 192.622 273.85C190.58 269.575 189.272 264.988 188.752 260.28C188.128 254.749 188.242 249.16 189.092 243.66C189.833 238.104 191.302 232.671 193.462 227.5C195.291 223.103 197.846 219.047 201.022 215.5C203.761 212.451 207.152 210.058 210.942 208.5C214.667 207.055 218.708 206.628 222.652 207.26C226.543 207.791 230.221 209.348 233.312 211.77C236.49 214.332 239.053 217.575 240.812 221.26C242.866 225.567 244.171 230.194 244.672 234.94C245.293 240.506 245.185 246.13 244.352 251.67Z" fill="#37474F"/>
<path d="M268.812 227.03C267.269 218.801 264.218 210.929 259.812 203.81C255.608 197.121 250.053 191.385 243.502 186.97C238.695 183.728 233.378 181.318 227.772 179.84C227.419 180.735 226.755 181.474 225.902 181.92C225.274 182.132 224.599 182.165 223.954 182.013C223.309 181.861 222.719 181.53 222.252 181.06C221.758 182.192 220.88 183.113 219.772 183.66C218.132 184.27 216.772 182.54 216.772 182.54C216.772 182.54 215.062 186.78 211.862 186.93C208.662 187.08 207.032 181.67 207.032 181.67C207.032 181.67 205.802 184.34 203.852 184.34C201.902 184.34 198.942 180.59 198.942 180.59C198.942 180.59 198.942 180.33 198.942 179.93C198.472 180.06 198.012 180.21 197.552 180.36C190.064 182.769 183.161 186.713 177.282 191.94C171.045 197.525 165.898 204.218 162.102 211.68C153.745 228.496 151.008 247.551 154.292 266.04C155.83 274.27 158.882 282.143 163.292 289.26C167.451 295.918 172.98 301.614 179.512 305.97C186.247 310.329 193.846 313.178 201.787 314.321C209.727 315.464 217.821 314.873 225.512 312.59C233.016 310.256 239.937 306.349 245.812 301.13C252.051 295.549 257.195 288.855 260.982 281.39C269.345 264.575 272.089 245.521 268.812 227.03ZM239.012 250.49C238.267 255.992 236.798 261.372 234.642 266.49C232.821 270.861 230.275 274.895 227.112 278.42C224.373 281.469 220.983 283.861 217.192 285.42C213.544 286.872 209.575 287.327 205.692 286.74C201.732 286.239 197.976 284.693 194.812 282.26C191.615 279.689 189.038 276.432 187.272 272.73C185.228 268.453 183.923 263.862 183.412 259.15C182.269 248.005 183.886 236.751 188.122 226.38C189.943 221.982 192.496 217.925 195.672 214.38C198.414 211.335 201.804 208.943 205.592 207.38C209.313 205.922 213.354 205.481 217.302 206.1C221.192 206.626 224.871 208.179 227.962 210.6C231.157 213.176 233.734 216.436 235.502 220.14C237.552 224.448 238.854 229.074 239.352 233.82C239.962 239.367 239.847 244.971 239.012 250.49Z" fill="#455A64"/>
<path d="M219.812 171.74L217.262 185.74H211.052L209.282 172.61L208.512 181.24L202.182 181.54L200.382 170.01C202.805 169.352 205.303 169.016 207.812 169.01C211.966 169.01 216.067 169.943 219.812 171.74Z" fill="white"/>
<path d="M207.812 345.5L207.722 345.56L207.622 345.5H207.812Z" fill="black"/>
<path d="M207.612 345.5H207.812L207.722 345.56L207.612 345.5Z" fill="black"/>
<path opacity="0.1" d="M158.202 339.76C158.202 339.76 183.872 345.47 207.612 345.5C185.812 345.5 165.812 343.73 164.382 343.73C162.952 343.73 85.2421 368.93 79.5621 369.63C77.1821 369.93 66.9221 358.02 55.9321 343.84C60.4121 346.93 78.2221 359.16 80.3421 359.16C82.8121 359.16 158.202 339.76 158.202 339.76Z" fill="black"/>
<path opacity="0.1" d="M359.912 343.54C348.842 357.85 338.452 369.94 336.062 369.63C330.382 368.93 252.652 343.73 251.232 343.73C249.812 343.73 229.692 345.5 207.802 345.5C231.552 345.5 257.222 339.76 257.222 339.76C257.222 339.76 332.672 359.16 335.082 359.16C337.272 359.16 356.332 346.02 359.912 343.54Z" fill="black"/>
<path d="M100.542 189.14C100.542 189.14 69.9622 225.7 71.3822 253.91C72.8022 282.12 98.0122 301.66 131.552 301.84C131.552 301.84 145.962 303.79 151.552 301.84C151.552 301.84 144.702 290.48 143.992 288.7C143.992 288.7 159.082 284.62 167.602 272.2C167.602 272.2 155.602 266.69 150.072 260.48C150.072 260.48 157.482 249.48 159.072 248.06C159.072 248.06 143.812 249.12 138.482 250.19C138.482 250.19 114.882 248.77 105.652 231.73C96.4222 214.69 100.542 189.14 100.542 189.14Z" fill="#FF862B"/>
<path d="M81.4922 280.57C84.5172 284.137 88.0321 287.258 91.9322 289.84C95.7892 292.456 99.9286 294.63 104.272 296.32C105.342 296.76 106.472 297.08 107.562 297.48L109.202 298.04L110.892 298.49L114.262 299.37L117.682 300L119.402 300.31C119.972 300.39 120.552 300.43 121.132 300.5L124.592 300.86C126.902 301.03 129.232 301.01 131.592 301.09H131.712C134.993 301.555 138.299 301.815 141.612 301.87C144.887 301.989 148.163 301.69 151.362 300.98L150.812 302.26L146.892 295.76L144.972 292.47C144.342 291.34 143.722 290.31 143.142 289L142.742 288.11L143.742 287.79C146.017 287.041 148.236 286.132 150.382 285.07C152.538 284.014 154.623 282.818 156.622 281.49C158.611 280.167 160.481 278.675 162.212 277.03C163.916 275.387 165.448 273.574 166.782 271.62L167.212 273.07C165.552 272.31 163.982 271.5 162.412 270.64C160.842 269.78 159.302 268.87 157.792 267.9C154.71 265.994 151.887 263.698 149.392 261.07L148.922 260.55L149.292 259.96C150.672 257.78 152.082 255.63 153.552 253.5C154.292 252.44 155.032 251.39 155.832 250.35C156.63 249.25 157.549 248.243 158.572 247.35L159.142 248.93C155.712 249.13 152.272 249.39 148.852 249.7C145.432 250.01 142.002 250.35 138.642 250.92H138.562H138.512C133.702 250.742 128.952 249.779 124.452 248.07C119.952 246.4 115.812 243.889 112.252 240.67C108.754 237.406 105.96 233.462 104.042 229.08C102.175 224.718 100.998 220.093 100.552 215.37C101.212 220.039 102.56 224.585 104.552 228.86C106.555 233.095 109.407 236.874 112.932 239.96C116.462 243.007 120.532 245.364 124.932 246.91C129.301 248.484 133.899 249.332 138.542 249.42H138.412C141.852 248.77 145.292 248.35 148.742 247.99C152.192 247.63 155.632 247.38 159.092 247.15L161.772 246.98L159.652 248.74C158.777 249.555 157.986 250.456 157.292 251.43C156.532 252.43 155.802 253.48 155.082 254.53C153.652 256.63 152.262 258.78 150.912 260.94L150.822 259.83C153.202 262.316 155.89 264.487 158.822 266.29C160.296 267.223 161.802 268.103 163.342 268.93C164.872 269.76 166.452 270.55 168.012 271.26L169.092 271.75L168.442 272.75C167.037 274.841 165.404 276.769 163.572 278.5C161.746 280.209 159.779 281.761 157.692 283.14C155.611 284.5 153.443 285.723 151.202 286.8C148.961 287.891 146.645 288.824 144.272 289.59L144.862 288.38C145.302 289.38 145.962 290.54 146.562 291.62L148.442 294.89L152.312 301.39L152.922 302.39L151.782 302.66C148.431 303.394 144.999 303.687 141.572 303.53C138.185 303.407 134.808 303.073 131.462 302.53H131.582C129.222 302.4 126.862 302.38 124.512 302.16L120.992 301.73C120.402 301.65 119.822 301.59 119.232 301.5L117.502 301.15L114.032 300.45L110.622 299.45L108.912 298.97L107.252 298.36C106.152 297.94 105.022 297.58 103.952 297.1C99.6034 295.286 95.4711 292.992 91.6322 290.26C87.7898 287.551 84.3723 284.285 81.4922 280.57Z" fill="#263238"/>
<path d="M80.3423 220.31C80.3423 220.31 66.7223 233.61 66.2423 243.21C66.0723 246.67 71.3423 239.67 71.3423 239.67C71.3423 239.67 67.4623 251.52 68.1523 255.16C68.8423 258.8 71.4023 249.79 71.4023 249.79L80.3423 220.31Z" fill="#FF862B"/>
<path d="M314.702 187.26C314.702 187.26 337.212 229.26 330.082 256.61C322.952 283.96 294.302 297.92 261.422 291.26C261.422 291.26 246.912 290.26 241.852 287.2C241.852 287.2 250.852 277.47 251.932 275.88C251.932 275.88 237.992 268.81 232.172 254.88C232.172 254.88 245.032 251.94 251.722 246.98C251.722 246.98 246.722 234.7 245.422 232.98C245.422 232.98 260.152 237.13 265.152 239.26C265.152 239.26 288.552 242.67 301.052 227.87C313.552 213.07 314.702 187.26 314.702 187.26Z" fill="#FF862B"/>
<path d="M320.962 274.48C317.563 278.738 313.428 282.352 308.752 285.15C304.086 287.998 299.034 290.16 293.752 291.57C288.46 292.949 283.012 293.641 277.542 293.63C272.074 293.638 266.62 293.092 261.262 292H261.382C257.996 291.843 254.623 291.476 251.282 290.9C247.895 290.354 244.594 289.369 241.462 287.97L240.402 287.47L241.202 286.59L246.322 281.01L248.812 278.26C249.612 277.33 250.492 276.33 251.122 275.44L251.462 276.75C249.295 275.517 247.216 274.133 245.242 272.61C243.262 271.103 241.388 269.462 239.632 267.7C237.861 265.935 236.248 264.017 234.812 261.97C233.362 259.907 232.157 257.682 231.222 255.34L230.812 254.26L231.942 254.01C233.622 253.63 235.322 253.17 236.992 252.68C238.662 252.19 240.322 251.62 241.992 251.01C245.244 249.843 248.335 248.27 251.192 246.33L250.872 247.39C250.002 245 249.072 242.61 248.102 240.26C247.612 239.09 247.102 237.92 246.562 236.78C246.292 236.21 246.022 235.65 245.722 235.11C245.458 234.6 245.15 234.115 244.802 233.66L242.922 231.47L245.672 232.23C249.022 233.15 252.332 234.12 255.672 235.15C259.012 236.18 262.252 237.31 265.482 238.65H265.362C269.928 239.506 274.602 239.614 279.202 238.97C283.825 238.355 288.29 236.873 292.362 234.6C296.445 232.272 300.002 229.126 302.812 225.36C305.627 221.579 307.856 217.395 309.422 212.95C308.048 217.488 305.958 221.779 303.232 225.66C300.464 229.563 296.924 232.858 292.832 235.34C288.692 237.775 284.122 239.394 279.372 240.11C274.617 240.868 269.769 240.841 265.022 240.03H264.942C261.772 238.78 258.492 237.75 255.202 236.76C251.912 235.77 248.592 234.76 245.282 233.91L246.152 232.47C246.607 233.02 247.003 233.616 247.332 234.25C247.652 234.83 247.942 235.42 248.232 236C248.792 237.18 249.312 238.36 249.822 239.55C250.822 241.93 251.762 244.32 252.672 246.74L252.912 247.4L252.352 247.81C249.374 249.876 246.144 251.556 242.742 252.81C241.062 253.476 239.369 254.056 237.662 254.55C235.942 255.07 234.232 255.55 232.462 255.95L233.172 254.62C235.009 258.974 237.679 262.928 241.032 266.26C242.719 267.973 244.52 269.57 246.422 271.04C248.307 272.509 250.292 273.846 252.362 275.04L253.272 275.55L252.702 276.34C251.862 277.51 251.052 278.39 250.202 279.34L247.652 282.26L242.492 287.82L242.242 286.45C245.229 287.789 248.375 288.743 251.602 289.29C254.855 289.919 258.145 290.34 261.452 290.55H261.572C266.83 291.704 272.19 292.327 277.572 292.41C282.958 292.5 288.334 291.912 293.572 290.66C298.832 289.406 303.884 287.402 308.572 284.71C310.909 283.355 313.139 281.824 315.242 280.13C317.34 278.45 319.257 276.556 320.962 274.48Z" fill="#263238"/>
<path d="M331.422 242.17C331.422 242.17 334.502 253.27 332.612 259.54C330.722 265.81 330.082 256.6 330.082 256.6C330.082 256.6 329.352 268.37 327.992 268.94C326.632 269.51 327.462 264.06 327.462 264.06L331.422 242.17Z" fill="#FF862B"/>
<g opacity="0.1">
<path opacity="0.1" d="M54.9422 303.95C55.4022 311.95 72.0322 312.95 75.0422 304.64C78.0522 296.33 54.3522 293.86 54.9422 303.95Z" fill="black"/>
<path opacity="0.1" d="M308.732 346.53C306.732 352.89 318.032 357.97 322.522 352.23C327.012 346.49 311.232 338.49 308.732 346.53Z" fill="black"/>
<path opacity="0.1" d="M231.912 332.11C231.152 334.84 234.382 336.24 235.862 333.61C237.342 330.98 232.862 328.65 231.912 332.11Z" fill="black"/>
<path opacity="0.1" d="M305.732 272.43C308.512 278.24 321.252 273.95 320.962 266.82C320.672 259.69 302.222 265.07 305.732 272.43Z" fill="black"/>
<path opacity="0.1" d="M86.1122 303.37C88.3922 305.83 82.3922 309.32 80.6822 306.86C78.9722 304.4 84.2822 301.39 86.1122 303.37Z" fill="black"/>
<path opacity="0.1" d="M147.962 106.78C145.432 108.95 142.842 104.38 145.322 102.68C147.802 100.98 150.002 105.04 147.962 106.78Z" fill="black"/>
<path opacity="0.1" d="M318.902 253.64C321.172 256.1 315.182 259.59 313.462 257.12C311.742 254.65 317.072 251.66 318.902 253.64Z" fill="black"/>
<path opacity="0.1" d="M78.3523 289.26C84.7723 288.13 84.2823 298.74 78.3523 298.15C72.4223 297.56 72.5823 290.26 78.3523 289.26Z" fill="black"/>
<path opacity="0.1" d="M92.5321 235.45C95.5321 234.91 95.3421 239.93 92.5321 239.66C89.7221 239.39 89.8121 235.93 92.5321 235.45Z" fill="black"/>
<path opacity="0.1" d="M155.962 210.86C158.962 210.32 158.762 215.34 155.962 215.07C153.162 214.8 153.232 211.34 155.962 210.86Z" fill="black"/>
<path opacity="0.1" d="M281.912 110.37C284.912 109.84 284.722 114.86 281.912 114.58C279.102 114.3 279.182 110.86 281.912 110.37Z" fill="black"/>
<path opacity="0.1" d="M94.9922 224.67C98.5422 221.23 103.672 230.53 99.5622 232.31C95.4522 234.09 91.8122 227.76 94.9922 224.67Z" fill="black"/>
<path opacity="0.1" d="M305.212 178.32C310.122 177.79 308.452 188.27 304.112 187.15C299.772 186.03 300.812 178.8 305.212 178.32Z" fill="black"/>
<path opacity="0.1" d="M248.912 334.26C251.912 338.2 242.062 342.17 240.782 337.87C239.502 333.57 246.232 330.75 248.912 334.26Z" fill="black"/>
<path opacity="0.1" d="M142.012 88.8496C148.432 87.7196 147.942 98.3296 142.012 97.7396C136.082 97.1496 136.252 89.8696 142.012 88.8496Z" fill="black"/>
</g>
<path d="M193.372 357.41L197.272 354.24L202.322 355.82V358.28L193.372 357.41Z" fill="#455A64"/>
<path d="M219.522 357.27L218.532 355.95L222.252 356.3L221.642 357.47L219.522 357.27Z" fill="#455A64"/>
<path d="M212.432 360.59C212.432 360.59 214.602 358.59 215.032 358.28C215.462 357.97 220.532 358.14 220.452 359.44C220.372 360.74 220.092 363.77 219.512 363.77H214.892L212.432 360.59Z" fill="#455A64"/>
<path d="M208.102 353.37L210.682 352.18L213.282 351.91L212.742 354.1L212.172 354.67L209.172 354.45L208.102 353.37Z" fill="#455A64"/>
<path d="M205.812 355.51H206.592L207.112 356.46H205.112C205.112 356.46 204.592 356.32 204.922 356.13C205.252 355.94 205.812 355.51 205.812 355.51Z" fill="#455A64"/>
<path d="M84.6123 373.16V339.48H18.6123V312.59L94.3323 215.4H114.892V312.4H134.812V339.52H114.892V373.16H84.6123ZM48.9023 312.36H88.0023V261.26L48.9023 312.36Z" fill="#37474F"/>
<path d="M79.0122 373.16V339.48H13.0122V312.59L88.7322 215.4H109.292V312.4H129.182V339.52H109.292V373.16H79.0122ZM43.3022 312.36H82.4022V261.26L43.3022 312.36Z" fill="#455A64"/>
<path d="M162.512 35.0399C161.048 35.0587 159.598 34.7441 158.272 34.1199C157.033 33.5327 155.922 32.7069 155.002 31.6899C153.169 29.6475 152.148 27.0042 152.132 24.2599C152.13 22.8607 152.402 21.4745 152.932 20.1799C153.446 18.9059 154.188 17.7367 155.122 16.7299C156.058 15.7231 157.182 14.9109 158.432 14.3399C159.741 13.7454 161.165 13.445 162.602 13.4599C164.063 13.4399 165.508 13.7618 166.822 14.3999C168.057 15.006 169.162 15.8486 170.072 16.8799C170.975 17.9047 171.686 19.0834 172.172 20.3599C172.669 21.6349 172.923 22.9915 172.922 24.3599C172.927 25.7509 172.663 27.1297 172.142 28.4199C171.64 29.6836 170.908 30.8432 169.982 31.8399C169.049 32.8393 167.928 33.6447 166.682 34.2099C165.369 34.7871 163.946 35.0704 162.512 35.0399ZM156.332 24.2599C156.33 25.1665 156.472 26.0677 156.752 26.9299C157.017 27.7578 157.43 28.5304 157.972 29.2099C158.517 29.8773 159.199 30.4196 159.972 30.7999C160.794 31.2025 161.697 31.4119 162.612 31.4119C163.527 31.4119 164.431 31.2025 165.252 30.7999C166.029 30.408 166.712 29.8518 167.252 29.1699C167.786 28.4809 168.193 27.7019 168.452 26.8699C168.719 26.0324 168.854 25.1587 168.852 24.2799C168.856 23.3723 168.711 22.4704 168.422 21.6099C168.128 20.7512 167.677 19.9545 167.092 19.2599C166.563 18.5992 165.898 18.0603 165.142 17.6799C164.319 17.288 163.419 17.0846 162.507 17.0846C161.596 17.0846 160.695 17.288 159.872 17.6799C159.113 18.0727 158.448 18.6254 157.922 19.2999C157.397 19.9837 156.997 20.7558 156.742 21.5799C156.464 22.4457 156.326 23.3504 156.332 24.2599Z" fill="#263238"/>
<path d="M182.972 35.1899C181.789 35.2087 180.615 34.984 179.522 34.5298C178.545 34.1169 177.664 33.5077 176.932 32.7399C176.221 31.9924 175.664 31.1123 175.292 30.1499C174.532 28.1496 174.532 25.9401 175.292 23.9399C175.664 22.9743 176.221 22.0909 176.932 21.3399C177.664 20.5752 178.546 19.9693 179.522 19.5599C181.735 18.6798 184.2 18.6798 186.412 19.5599C187.383 19.9744 188.26 20.5797 188.992 21.3399C189.697 22.094 190.251 22.9767 190.622 23.9399C191.383 25.9401 191.383 28.1496 190.622 30.1499C190.254 31.1092 189.704 31.9886 189.002 32.7399C188.276 33.5096 187.398 34.1193 186.422 34.5298C185.33 34.984 184.155 35.2087 182.972 35.1899ZM178.862 27.0599C178.855 27.7072 178.964 28.3505 179.182 28.9598C179.377 29.5061 179.672 30.0114 180.052 30.4499C180.407 30.8748 180.851 31.2162 181.352 31.4499C181.861 31.6808 182.414 31.8003 182.972 31.8003C183.531 31.8003 184.083 31.6808 184.592 31.4499C185.094 31.2111 185.54 30.8705 185.902 30.4499C186.284 30.0092 186.58 29.5003 186.772 28.9499C186.987 28.3328 187.092 27.683 187.082 27.0298C187.09 26.3866 186.985 25.7469 186.772 25.1398C186.58 24.5894 186.284 24.0805 185.902 23.6398C185.54 23.2192 185.094 22.8786 184.592 22.6398C184.084 22.4098 183.531 22.2937 182.972 22.2999C182.412 22.2953 181.858 22.4184 181.352 22.6599C180.855 22.8998 180.412 23.2403 180.052 23.6599C179.67 24.1005 179.375 24.6094 179.182 25.1599C178.965 25.7695 178.857 26.4126 178.862 27.0599Z" fill="#263238"/>
<path d="M201.152 35.1899C199.969 35.2087 198.795 34.984 197.702 34.5299C196.722 34.1171 195.837 33.5079 195.102 32.7399C194.397 31.9895 193.844 31.11 193.472 30.1499C192.712 28.1496 192.712 25.9401 193.472 23.9399C193.844 22.9767 194.397 22.094 195.102 21.3399C195.838 20.575 196.723 19.9691 197.702 19.5599C198.795 19.1057 199.969 18.881 201.152 18.8999C202.329 18.88 203.497 19.1048 204.582 19.5599C205.556 19.9693 206.434 20.5752 207.162 21.3399C207.874 22.0909 208.431 22.9743 208.802 23.9399C209.562 25.9401 209.562 28.1496 208.802 30.1499C208.434 31.1092 207.884 31.9886 207.182 32.7399C206.456 33.5096 205.577 34.1193 204.602 34.5299C203.51 34.984 202.335 35.2087 201.152 35.1899ZM197.042 27.0599C197.037 27.7062 197.142 28.3487 197.352 28.9599C197.547 29.5061 197.842 30.0114 198.222 30.4499C198.582 30.8729 199.029 31.2139 199.532 31.4499C200.041 31.6808 200.593 31.8003 201.152 31.8003C201.711 31.8003 202.263 31.6808 202.772 31.4499C203.274 31.2111 203.72 30.8705 204.082 30.4499C204.458 30.0062 204.749 29.4979 204.942 28.9499C205.165 28.3347 205.273 27.684 205.262 27.0299C205.272 26.3856 205.163 25.745 204.942 25.1399C204.749 24.5918 204.458 24.0835 204.082 23.6399C203.72 23.2192 203.274 22.8786 202.772 22.6399C202.263 22.4098 201.711 22.2937 201.152 22.2999C200.592 22.2953 200.038 22.4184 199.532 22.6599C199.032 22.9008 198.587 23.2411 198.222 23.6599C197.84 24.1005 197.545 24.6094 197.352 25.1599C197.143 25.7713 197.038 26.4136 197.042 27.0599Z" fill="#263238"/>
<path d="M221.492 35.1898C220.357 35.2152 219.236 34.9281 218.252 34.3598C217.345 33.8242 216.599 33.0539 216.092 32.1299V41.2598H212.092V19.1699H215.602V21.8699C216.15 20.9736 216.909 20.2251 217.812 19.6898C218.783 19.1484 219.881 18.8757 220.992 18.8998C222.008 18.8886 223.013 19.1074 223.932 19.5398C224.82 19.9497 225.616 20.5348 226.272 21.2598C226.94 22.0251 227.462 22.9063 227.812 23.8598C228.178 24.8662 228.364 25.929 228.362 26.9998C228.363 28.1096 228.177 29.2116 227.812 30.2598C227.498 31.2096 227.014 32.0941 226.382 32.8699C225.79 33.5968 225.051 34.1898 224.212 34.6098C223.363 35.0107 222.432 35.2093 221.492 35.1898ZM220.142 31.7699C220.722 31.7739 221.294 31.6403 221.812 31.3799C222.313 31.1221 222.755 30.7648 223.112 30.3298C223.481 29.8739 223.766 29.3558 223.952 28.7999C224.152 28.2208 224.254 27.6124 224.252 26.9998C224.258 26.3681 224.146 25.7408 223.922 25.1498C223.713 24.6021 223.401 24.0996 223.002 23.6699C222.614 23.247 222.145 22.9068 221.622 22.6699C221.082 22.4273 220.495 22.3044 219.902 22.3099C219.505 22.3109 219.11 22.3751 218.732 22.4998C218.336 22.6296 217.962 22.8184 217.622 23.0599C217.283 23.3021 216.974 23.5841 216.702 23.8998C216.444 24.1962 216.237 24.5344 216.092 24.8998V28.5899C216.436 29.4658 217.005 30.2352 217.742 30.8198C218.406 31.4083 219.256 31.7446 220.142 31.7699Z" fill="#263238"/>
<path d="M237.032 35.1899C235.717 35.1906 234.41 34.9778 233.162 34.5599C231.974 34.1799 230.873 33.5681 229.922 32.7599L231.422 30.2399C232.288 30.8676 233.228 31.3849 234.222 31.7799C235.088 32.1228 236.011 32.3025 236.942 32.3099C237.596 32.3413 238.244 32.1851 238.812 31.8599C239.031 31.7253 239.211 31.5349 239.332 31.3083C239.453 31.0816 239.512 30.8267 239.502 30.5699C239.509 30.3067 239.435 30.0478 239.29 29.8279C239.145 29.608 238.937 29.4377 238.692 29.3399C237.838 28.9701 236.955 28.6691 236.052 28.4399C235.032 28.1599 234.162 27.8899 233.442 27.6299C232.822 27.4198 232.236 27.12 231.702 26.7399C231.277 26.4518 230.932 26.0592 230.702 25.5999C230.491 25.1146 230.388 24.589 230.402 24.0599C230.389 23.3142 230.546 22.5754 230.862 21.8999C231.188 21.256 231.657 20.6951 232.232 20.2599C232.83 19.8041 233.509 19.4649 234.232 19.2599C235.025 19.0134 235.852 18.892 236.682 18.8999C237.806 18.8913 238.923 19.0635 239.992 19.4099C241.032 19.7537 241.991 20.3048 242.812 21.0299L241.192 23.4599C240.467 22.9072 239.665 22.4626 238.812 22.1399C238.1 21.8667 237.345 21.7244 236.582 21.7199C235.984 21.6988 235.392 21.8442 234.872 22.1399C234.645 22.2801 234.46 22.4802 234.338 22.7183C234.216 22.9563 234.163 23.2232 234.182 23.4899C234.171 23.7302 234.226 23.9689 234.342 24.1799C234.477 24.381 234.659 24.5459 234.872 24.6599C235.171 24.8244 235.486 24.9584 235.812 25.0599C236.202 25.1899 236.692 25.3299 237.272 25.4699C238.352 25.7499 239.272 26.0299 240.042 26.3099C240.716 26.5518 241.353 26.8885 241.932 27.3099C242.388 27.6286 242.759 28.0544 243.012 28.5499C243.257 29.0825 243.376 29.6639 243.362 30.2499C243.389 30.9492 243.248 31.6448 242.951 32.2782C242.653 32.9117 242.208 33.4644 241.652 33.8899C240.3 34.8265 238.674 35.2841 237.032 35.1899Z" fill="#263238"/>
<path d="M245.912 34.8899V30.5699H249.212V34.8899H245.912Z" fill="#263238"/>
<path d="M252.662 34.8899V30.5699H255.962V34.8899H252.662Z" fill="#263238"/>
<path d="M259.412 34.8899V30.5699H262.712V34.8899H259.412Z" fill="#263238"/>
<path d="M174.542 392.58V396.26H159.752V374.96H174.272V378.59H163.892V383.72H172.892V387.08H163.892V392.63L174.542 392.58Z" fill="#263238"/>
<path d="M177.812 396.26V374.96H187.232C188.175 374.953 189.106 375.165 189.952 375.58C190.762 375.979 191.488 376.529 192.092 377.2C192.693 377.871 193.17 378.643 193.502 379.48C193.835 380.292 194.008 381.162 194.012 382.04C194.043 383.366 193.696 384.673 193.012 385.81C192.368 386.905 191.385 387.761 190.212 388.25L195.072 396.25H190.422L186.072 389.11H181.992V396.26H177.812ZM181.952 385.49H187.142C187.516 385.492 187.884 385.399 188.212 385.22C188.544 385.039 188.833 384.79 189.062 384.49C189.313 384.158 189.506 383.786 189.632 383.39C189.775 382.954 189.846 382.498 189.842 382.04C189.847 381.569 189.766 381.101 189.602 380.66C189.452 380.263 189.235 379.895 188.962 379.57C188.704 379.269 188.388 379.024 188.032 378.85C187.7 378.683 187.334 378.594 186.962 378.59H181.962L181.952 385.49Z" fill="#263238"/>
<path d="M197.732 396.26V374.96H207.152C208.095 374.953 209.026 375.165 209.872 375.58C210.682 375.979 211.408 376.529 212.012 377.2C212.613 377.871 213.09 378.643 213.422 379.48C213.755 380.292 213.928 381.162 213.932 382.04C213.963 383.366 213.616 384.673 212.932 385.81C212.288 386.905 211.305 387.761 210.132 388.25L214.992 396.25H210.342L205.992 389.11H201.912V396.26H197.732ZM201.872 385.49H207.062C207.436 385.492 207.804 385.399 208.132 385.22C208.464 385.039 208.753 384.79 208.982 384.49C209.233 384.158 209.426 383.786 209.552 383.39C209.695 382.954 209.766 382.498 209.762 382.04C209.767 381.569 209.686 381.101 209.522 380.66C209.372 380.263 209.155 379.895 208.882 379.57C208.624 379.269 208.308 379.024 207.952 378.85C207.62 378.683 207.254 378.594 206.882 378.59H201.882L201.872 385.49Z" fill="#263238"/>
<path d="M226.812 396.36C225.345 396.382 223.892 396.071 222.562 395.45C221.328 394.86 220.22 394.035 219.302 393.02C217.466 390.967 216.445 388.314 216.432 385.56C216.425 384.16 216.697 382.773 217.232 381.48C217.742 380.206 218.481 379.037 219.412 378.03C220.352 377.026 221.48 376.217 222.732 375.65C224.041 375.052 225.464 374.748 226.902 374.76C228.364 374.745 229.808 375.07 231.122 375.71C232.357 376.312 233.461 377.152 234.372 378.18C235.275 379.205 235.986 380.383 236.472 381.66C236.969 382.935 237.223 384.291 237.222 385.66C237.227 387.054 236.963 388.436 236.442 389.73C235.94 390.994 235.207 392.153 234.282 393.15C233.349 394.149 232.228 394.955 230.982 395.52C229.67 396.101 228.247 396.387 226.812 396.36ZM220.632 385.56C220.63 386.466 220.772 387.368 221.052 388.23C221.313 389.057 221.723 389.83 222.262 390.51C222.811 391.173 223.492 391.715 224.262 392.1C225.083 392.501 225.984 392.709 226.897 392.709C227.811 392.709 228.712 392.501 229.532 392.1C230.307 391.7 230.988 391.141 231.532 390.46C232.063 389.774 232.466 388.998 232.722 388.17C233.282 386.458 233.282 384.612 232.722 382.9C232.442 382.077 232.026 381.306 231.492 380.62C230.948 379.957 230.265 379.421 229.492 379.05C228.673 378.65 227.774 378.443 226.862 378.443C225.951 378.443 225.051 378.65 224.232 379.05C223.473 379.443 222.808 379.995 222.282 380.67C221.757 381.354 221.357 382.126 221.102 382.95C220.791 383.786 220.619 384.668 220.592 385.56H220.632Z" fill="#263238"/>
<path d="M240.362 396.26V374.96H249.812C250.755 374.954 251.686 375.166 252.532 375.58C253.342 375.979 254.068 376.529 254.672 377.2C255.273 377.871 255.75 378.643 256.082 379.48C256.415 380.292 256.588 381.162 256.592 382.04C256.623 383.366 256.276 384.673 255.592 385.81C254.948 386.905 253.965 387.761 252.792 388.25L257.652 396.25H253.002L248.652 389.11H244.572V396.26H240.362ZM244.502 385.49H249.692C250.066 385.492 250.434 385.399 250.762 385.22C251.094 385.039 251.383 384.79 251.612 384.49C251.863 384.158 252.056 383.786 252.182 383.39C252.325 382.954 252.396 382.498 252.392 382.04C252.397 381.569 252.316 381.101 252.152 380.66C252.002 380.263 251.785 379.895 251.512 379.57C251.25 379.27 250.93 379.025 250.572 378.85C250.244 378.682 249.881 378.593 249.512 378.59H244.512L244.502 385.49Z" fill="#263238"/>
<path d="M376.662 58.6097C375.895 65.9036 373.117 72.841 368.637 78.6479C364.157 84.4548 358.152 88.9028 351.292 91.4956C344.431 94.0883 336.985 94.724 329.784 93.3315C322.584 91.939 315.911 88.5732 310.512 83.6097L290.702 86.5197L300.612 69.3897C298.136 63.361 297.201 56.8103 297.892 50.3297C298.423 45.1492 299.97 40.1242 302.445 35.5425C304.92 30.9607 308.275 26.9121 312.317 23.6285C316.358 20.3449 321.008 17.8908 326 16.4066C330.991 14.9224 336.227 14.4374 341.406 14.9792C346.585 15.521 351.607 17.079 356.183 19.5641C360.76 22.0491 364.801 25.4125 368.076 29.4614C371.351 33.5104 373.795 38.1656 375.268 43.1604C376.741 48.1552 377.215 53.3915 376.662 58.5697V58.6097Z" fill="white"/>
<path d="M376.662 58.6097C375.89 65.9076 373.122 72.8517 368.662 78.6797C367.552 80.1294 366.353 81.5087 365.072 82.8097C363.751 84.0726 362.355 85.2547 360.892 86.3497C357.976 88.5628 354.761 90.3506 351.342 91.6597C347.93 93.0171 344.346 93.8922 340.692 94.2597C338.863 94.4229 337.025 94.4563 335.192 94.3597C333.353 94.315 331.521 94.1244 329.712 93.7897C322.41 92.4516 315.625 89.1027 310.122 84.1197L310.592 84.2597L290.812 87.2597L289.372 87.4797L290.102 86.2197L299.952 69.0597V69.7297C297.629 64.0538 296.64 57.9204 297.061 51.8019C297.482 45.6835 299.303 39.7435 302.382 34.4397C305.456 29.1712 309.682 24.6656 314.742 21.2597C319.812 17.9016 325.577 15.7352 331.604 14.9229C337.631 14.1107 343.764 14.6737 349.542 16.5697C355.266 18.5039 360.483 21.6953 364.812 25.9097C369.133 30.1083 372.444 35.2328 374.497 40.8971C376.55 46.5614 377.29 52.6177 376.662 58.6097ZM376.662 58.6097C377.295 52.6509 376.552 46.6264 374.491 40.9997C372.43 35.3731 369.105 30.2944 364.773 26.1544C360.441 22.0144 355.217 18.9236 349.502 17.1198C343.788 15.3159 337.736 14.8472 331.812 15.7497C325.917 16.6392 320.304 18.8661 315.402 22.2597C310.567 25.6632 306.528 30.0745 303.562 35.1897C300.649 40.3227 298.94 46.0499 298.562 51.9397C298.195 57.8257 299.148 63.7194 301.352 69.1897L301.492 69.5397L301.302 69.8697L291.302 86.9597L290.592 85.9097L310.422 83.1397H310.702L310.892 83.3197C316.193 88.2814 322.773 91.665 329.892 93.0897C331.662 93.4458 333.458 93.6631 335.262 93.7397C337.066 93.8697 338.878 93.8697 340.682 93.7397C344.3 93.4609 347.862 92.6766 351.262 91.4097C354.681 90.1747 357.898 88.4428 360.812 86.2697C362.275 85.1919 363.671 84.0265 364.992 82.7797C366.276 81.4929 367.479 80.1268 368.592 78.6897C373.085 72.8702 375.878 65.9199 376.662 58.6097Z" fill="#263238"/>
<path fill-rule="evenodd" clip-rule="evenodd" d="M335.091 64.5473L336.18 64.0683C336.858 65.137 337.578 66.1862 338.496 67.1549C337.859 67.4316 337.207 67.7031 336.56 67.9849C327.276 71.844 321.917 72.6775 316.063 63.7696C319.421 67.7655 323.117 67.8399 328.317 66.835C330.676 66.3754 332.882 65.456 335.092 64.5464L335.091 64.5473Z" fill="#D0D1C6"/>
<path fill-rule="evenodd" clip-rule="evenodd" d="M325.218 47.796L325.173 48.4406C325.108 49.8637 325.22 51.4105 325.287 52.5102C325.392 54.3722 322.144 56.0837 320.835 56.9446C320.145 57.3898 319.441 57.7902 318.723 58.1705C316.879 59.1413 316.832 58.6334 318.002 60.5702C318.048 60.6391 318.093 60.7088 318.144 60.7884C319.569 63.1799 321.52 65.855 323.921 66.7149C325.211 67.1809 326.748 67.1261 328.315 66.8353C323.116 67.8408 319.421 67.7655 316.061 63.7704C315.544 62.9865 315.016 62.1222 314.488 61.1766C314.32 60.8791 314.179 60.5821 314.047 60.3054C313.056 58.0323 313.648 56.5669 315.9 55.4167C325.496 50.5238 319.65 50.5747 322.536 44.0507C323.907 40.9407 328.278 37.6764 333.192 35.6625C329.271 37.6838 325.782 40.7768 325.218 47.796Z" fill="url(#paint0_linear_196_11847)"/>
<path opacity="0.56" fill-rule="evenodd" clip-rule="evenodd" d="M321.889 65.5106C322.52 66.0416 323.201 66.46 323.919 66.7165C325.209 67.1825 326.745 67.1278 328.313 66.8369C323.116 67.8408 319.42 67.7655 316.061 63.7704L316.03 63.7332C317.824 64.7661 319.54 65.471 321.889 65.5106Z" fill="#F47A1F"/>
<path fill-rule="evenodd" clip-rule="evenodd" d="M343.255 35.9855C338.336 37.1686 327.168 42.2372 325.656 45.8457C325.413 46.3766 325.284 47.0615 325.217 47.7969C325.782 40.7767 329.271 37.6837 333.192 35.6624C335.822 34.593 338.79 33.1934 341.499 32.2947L343.255 35.9855Z" fill="url(#paint1_linear_196_11847)"/>
<path opacity="0.81" fill-rule="evenodd" clip-rule="evenodd" d="M328.368 42.9276C327.076 43.9327 326.069 44.8533 325.655 45.8451C325.413 46.376 325.283 47.061 325.217 47.7964C325.782 40.7767 329.271 37.6837 333.192 35.6624L333.314 35.6174C330.635 37.7639 329.338 39.409 328.368 42.9276Z" fill="#BE5100"/>
<path fill-rule="evenodd" clip-rule="evenodd" d="M352.642 65.6378C355.681 64.8285 357.687 62.6132 356.236 59.2051C355.736 58.1813 355.231 57.1474 354.741 56.1186C350.502 47.3524 347.195 40.5113 343.01 31.7182C348.165 29.8761 350.609 36.4661 352.214 39.8384C354.662 44.9818 357.112 50.1203 359.564 55.254C361.418 60.4076 361.102 64.0955 352.643 65.6372L352.642 65.6378Z" fill="#A4B6C2"/>
<path fill-rule="evenodd" clip-rule="evenodd" d="M352.642 65.6378C354.709 65.0834 356.299 63.884 356.65 62.1039C360.302 60.418 360.181 58.03 359.561 55.2553C361.415 60.4089 361.099 64.0969 352.64 65.6386L352.642 65.6378Z" fill="#D0D1C6"/>
<path fill-rule="evenodd" clip-rule="evenodd" d="M339.039 45.953C340.243 44.3521 341.634 42.897 343.176 41.7594C345.827 39.8339 348.123 43.6454 345.626 45.4845C344.884 46.0328 343.811 46.8685 342.504 48.5834C336.544 56.4151 341.438 66.7815 350.91 65.9423C351.494 65.8898 352.073 65.7882 352.64 65.6386C361.101 64.0961 361.416 60.4075 359.563 55.2545L360.603 57.4392C363.718 64.7238 359.968 69.2925 352.036 70.5202C338.828 72.564 329.67 58.4105 339.039 45.953Z" fill="url(#paint2_linear_196_11847)"/>
<path d="M339.518 270.717C347.069 270.642 354.564 271.903 361.596 274.43C368.164 276.787 374.175 280.286 379.298 284.733C384.359 289.176 388.348 294.544 391.007 300.49C396.733 313.82 396.56 328.674 390.527 341.889C387.527 348.16 383.134 353.787 377.629 358.411C371.978 363.102 365.368 366.715 358.182 369.04C350.446 371.559 342.289 372.816 334.081 372.753C322.592 372.918 311.257 370.317 301.204 365.211C291.823 360.465 284.118 353.355 279 344.72L294.755 330.936C299.174 337.034 305.057 342.123 311.952 345.811C318.675 349.537 326.378 351.511 334.232 351.519C338.685 351.665 343.126 351.005 347.3 349.575C351.474 348.146 355.301 345.975 358.561 343.188C361.763 340.33 364.268 336.881 365.911 333.069C367.555 329.257 368.299 325.169 368.095 321.073C368.149 316.981 367.288 312.921 365.566 309.146C364.007 305.666 361.703 302.51 358.788 299.863C355.87 297.274 352.436 295.226 348.673 293.83C344.652 292.356 340.357 291.615 336.028 291.649C330.151 291.613 324.347 292.845 319.084 295.245C313.826 297.666 309.372 301.336 306.186 305.874H283.046C283.198 305.294 283.552 303.553 284.108 300.629C284.665 297.705 285.424 294.062 286.385 289.676C287.346 285.29 288.382 280.394 289.495 275.01C290.608 269.626 291.797 264.127 293.061 258.58C295.91 245.585 299.012 231.058 302.368 215H385.166V237.115H321.385L312.787 279.605C315.782 276.644 319.513 274.391 323.661 273.038C328.747 271.377 334.122 270.591 339.518 270.717Z" fill="#263238"/>
<path d="M333.518 270.717C341.069 270.642 348.564 271.903 355.596 274.43C362.164 276.787 368.175 280.286 373.298 284.733C378.359 289.176 382.348 294.544 385.007 300.49C390.733 313.82 390.56 328.674 384.527 341.889C381.527 348.16 377.134 353.787 371.629 358.411C365.978 363.102 359.368 366.715 352.182 369.04C344.446 371.559 336.289 372.816 328.081 372.753C316.592 372.918 305.257 370.317 295.204 365.211C285.823 360.465 278.118 353.355 273 344.72L288.755 330.936C293.174 337.034 299.057 342.123 305.952 345.811C312.675 349.537 320.378 351.511 328.232 351.519C332.685 351.665 337.126 351.005 341.3 349.575C345.474 348.146 349.301 345.975 352.561 343.188C355.763 340.33 358.268 336.881 359.911 333.069C361.555 329.257 362.299 325.169 362.095 321.073C362.149 316.981 361.288 312.921 359.566 309.146C358.007 305.666 355.703 302.51 352.788 299.863C349.87 297.274 346.436 295.226 342.673 293.83C338.652 292.356 334.357 291.615 330.028 291.649C324.151 291.613 318.347 292.845 313.084 295.245C307.826 297.666 303.372 301.336 300.186 305.874H277.046C277.198 305.294 277.552 303.553 278.108 300.629C278.665 297.705 279.424 294.062 280.385 289.676C281.346 285.29 282.382 280.394 283.495 275.01C284.608 269.626 285.797 264.127 287.061 258.58C289.91 245.585 293.012 231.058 296.368 215H379.166V237.115H315.385L306.787 279.605C309.782 276.644 313.513 274.391 317.661 273.038C322.747 271.377 328.122 270.591 333.518 270.717Z" fill="#455A64"/>
<defs>
<linearGradient id="paint0_linear_196_11847" x1="313.04" y1="72.475" x2="337.489" y2="38.5145" gradientUnits="userSpaceOnUse">
<stop offset="0.265625" stop-color="#F47A1F"/>
<stop offset="1" stop-color="#E6B300"/>
</linearGradient>
<linearGradient id="paint1_linear_196_11847" x1="323.599" y1="44.3976" x2="342.889" y2="35.2164" gradientUnits="userSpaceOnUse">
<stop stop-color="#A4B6C2"/>
<stop offset="1" stop-color="#D0D1C6"/>
</linearGradient>
<linearGradient id="paint2_linear_196_11847" x1="363.615" y1="66.9785" x2="333.026" y2="30.5781" gradientUnits="userSpaceOnUse">
<stop offset="0.0893996" stop-color="#F47A1F"/>
<stop offset="0.636274" stop-color="#EB9C0C"/>
</linearGradient>
</defs>
</svg>
