<svg width="750" height="500" viewBox="0 0 750 500" fill="none" xmlns="http://www.w3.org/2000/svg">
<path d="M53.8 198.75C55.5219 197.711 57.375 196.907 59.31 196.36L60.44 190.92L69.64 190.75L71 196.16C72.9494 196.638 74.8261 197.374 76.58 198.35L81.23 195.35L87.85 201.75L84.97 206.5C86.0086 208.218 86.8124 210.068 87.36 212L92.8 213.14L92.97 222.34L87.56 223.66C87.0841 225.613 86.3475 227.493 85.37 229.25L88.37 233.9L82 240.47L77.25 237.59C75.5295 238.625 73.6803 239.428 71.75 239.98L70.61 245.42L61.41 245.58L60.09 240.18C58.1364 239.701 56.2562 238.961 54.5 237.98L49.84 241L43.22 234.61L46.1 229.86C45.0653 228.136 44.2617 226.283 43.71 224.35L38.27 223.22L38.11 214.02L43.51 212.69C43.992 210.742 44.7283 208.866 45.7 207.11L42.7 202.46L49.09 195.84L53.84 198.72L53.8 198.75ZM58.71 211C57.3597 212.406 56.4562 214.181 56.1132 216.1C55.7702 218.019 56.0032 219.996 56.7828 221.783C57.5624 223.57 58.8537 225.086 60.4937 226.14C62.1338 227.194 64.0492 227.738 65.9984 227.705C67.9476 227.671 69.8432 227.061 71.4462 225.952C73.0492 224.843 74.2877 223.283 75.0056 221.471C75.7235 219.658 75.8886 217.674 75.4801 215.768C75.0715 213.862 74.1076 212.119 72.71 210.76C71.777 209.853 70.6738 209.139 69.4639 208.66C68.254 208.181 66.9612 207.945 65.6601 207.968C64.3589 207.99 63.075 208.269 61.8822 208.79C60.6894 209.31 59.6113 210.061 58.71 211V211Z" fill="#EBEBEB"/>
<path d="M67.35 65.58C69.0719 64.5412 70.925 63.7374 72.86 63.19L74 57.74L83.2 57.58L84.52 63C86.4684 63.4855 88.3445 64.2251 90.1 65.2L94.75 62.15L101.37 68.55L98.49 73.3C99.5286 75.0184 100.332 76.8682 100.88 78.8L106.33 79.94L106.49 89.14L101.08 90.46C100.602 92.3967 99.8658 94.2602 98.89 96L101.89 100.66L95.49 107.28L90.74 104.39C89.0237 105.433 87.1734 106.237 85.24 106.78L84.1 112.23L74.9 112.39L73.63 107C71.6779 106.516 69.7983 105.776 68.04 104.8L63.39 107.8L56.77 101.41L59.66 96.65C58.6183 94.9319 57.8111 93.0821 57.26 91.15L51.82 90.02L51.66 80.82L57.06 79.49C57.547 77.5706 58.2868 75.7245 59.26 74L56.26 69.35L62.6 62.7L67.35 65.58ZM72.26 77.84C70.9108 79.2471 70.0085 81.0222 69.6669 82.9415C69.3254 84.8608 69.5598 86.8383 70.3407 88.6245C71.1215 90.4107 72.4139 91.9257 74.0547 92.9784C75.6955 94.031 77.6113 94.5742 79.5605 94.5394C81.5096 94.5046 83.4048 93.8933 85.007 92.7828C86.6092 91.6722 87.8466 90.1121 88.5632 88.2991C89.2798 86.4861 89.4435 84.5016 89.0336 82.5957C88.6237 80.6898 87.6586 78.948 86.26 77.59C85.327 76.6821 84.2235 75.9681 83.0131 75.4889C81.8028 75.0098 80.5095 74.7751 79.208 74.7983C77.9064 74.8216 76.6223 75.1023 75.4298 75.6244C74.2373 76.1464 73.16 76.8994 72.26 77.84V77.84Z" fill="#EBEBEB"/>
<path d="M268.14 117.23C270.214 115.974 272.447 115.002 274.78 114.34L276.15 107.76L287.26 107.57L288.86 114.09C291.215 114.668 293.482 115.56 295.6 116.74L301.22 113.06L309.22 120.78L305.74 126.52C306.992 128.596 307.964 130.829 308.63 133.16L315.2 134.53L315.4 145.64L308.87 147.24C308.296 149.596 307.404 151.864 306.22 153.98L309.9 159.6L302.19 167.6L296.45 164.12C294.37 165.372 292.134 166.344 289.8 167.01L288.43 173.58L277.32 173.78L275.72 167.25C273.365 166.672 271.098 165.781 268.98 164.6L263.37 168.28L255.37 160.56L258.85 154.82C257.592 152.747 256.62 150.513 255.96 148.18L249.38 146.81L249.19 135.7L255.71 134.1C256.296 131.748 257.187 129.482 258.36 127.36L254.68 121.75L262.4 113.75L268.14 117.24V117.23ZM274.06 132C272.423 133.696 271.325 135.839 270.905 138.158C270.486 140.478 270.763 142.87 271.703 145.032C272.643 147.194 274.202 149.028 276.185 150.304C278.167 151.579 280.483 152.239 282.84 152.198C285.197 152.158 287.489 151.419 289.426 150.076C291.363 148.733 292.859 146.846 293.724 144.653C294.588 142.46 294.784 140.06 294.285 137.756C293.786 135.452 292.615 133.348 290.92 131.71C288.645 129.514 285.591 128.311 282.43 128.366C279.269 128.42 276.258 129.727 274.06 132V132Z" fill="#EBEBEB"/>
<path d="M116.84 44.9999C117.709 44.4686 118.648 44.0613 119.63 43.7899L120.2 40.9999L124.85 40.9199L125.52 43.6499C126.505 43.8938 127.453 44.267 128.34 44.7599L130.69 43.2199L134 46.4799L132.54 48.8899C133.067 49.7576 133.474 50.6928 133.75 51.6699L136.5 52.2399L136.58 56.8899L133.85 57.5599C133.61 58.5459 133.236 59.4946 132.74 60.3799L134.28 62.7399L131.05 66.0799L128.65 64.6199C127.784 65.1496 126.848 65.5568 125.87 65.8299L125.3 68.5899L120.64 68.6699L120 65.9399C119.015 65.6961 118.067 65.3228 117.18 64.8299L114.83 66.3699L111.48 63.1399L113 60.7299C112.463 59.8784 112.04 58.9607 111.74 57.9999L109 57.3799L108.92 52.7299L111.65 52.0599C111.89 51.0739 112.264 50.1252 112.76 49.2399L111.22 46.8799L114.45 43.5399L116.85 44.9999H116.84ZM119.32 51.1899C118.631 51.9004 118.169 52.7993 117.991 53.7728C117.814 54.7462 117.929 55.7505 118.322 56.6584C118.716 57.5663 119.37 58.337 120.202 58.873C121.034 59.4089 122.006 59.6861 122.995 59.6692C123.984 59.6524 124.947 59.3424 125.76 58.7785C126.573 58.2146 127.2 57.422 127.563 56.5013C127.925 55.5805 128.006 54.573 127.796 53.6061C127.585 52.6393 127.092 51.7566 126.38 51.0699C125.427 50.1514 124.149 49.6482 122.825 49.6707C121.502 49.6932 120.241 50.2395 119.32 51.1899V51.1899Z" fill="#EBEBEB"/>
<path fill-rule="evenodd" clip-rule="evenodd" d="M608.72 78.2C608.72 78.5449 608.617 78.8821 608.425 79.1687C608.233 79.4553 607.96 79.6782 607.641 79.8093C607.322 79.9404 606.971 79.9737 606.633 79.9049C606.295 79.8361 605.985 79.6684 605.743 79.4231C605.5 79.1777 605.336 78.8658 605.271 78.527C605.206 78.1882 605.243 77.8377 605.378 77.5201C605.513 77.2025 605.739 76.9322 606.028 76.7434C606.317 76.5547 606.655 76.456 607 76.46C607.458 76.4652 607.895 76.6509 608.217 76.9766C608.539 77.3024 608.72 77.7419 608.72 78.2V78.2Z" fill="#E0E0E0"/>
<path fill-rule="evenodd" clip-rule="evenodd" d="M653.73 49.3899C653.732 49.7349 653.631 50.0727 653.441 50.3604C653.25 50.648 652.979 50.8726 652.661 51.0055C652.342 51.1385 651.991 51.1738 651.653 51.107C651.315 51.0401 651.004 50.8742 650.76 50.6303C650.516 50.3863 650.35 50.0754 650.283 49.7369C650.216 49.3985 650.251 49.0478 650.384 48.7294C650.517 48.4111 650.742 48.1394 651.03 47.949C651.317 47.7586 651.655 47.658 652 47.6599C652.459 47.6599 652.899 47.8422 653.223 48.1666C653.548 48.4911 653.73 48.9311 653.73 49.3899V49.3899Z" fill="#E0E0E0"/>
<path d="M600.07 401C600.07 401 600.07 400.52 600.07 399.59C600.07 398.66 600.07 397.27 600.07 395.46C600.07 391.82 600.07 386.46 600.07 379.56C600.07 365.72 600.07 345.68 599.99 320.84C599.99 271.13 599.99 202.19 599.91 125.22V125.16V125.1C602.16 120.63 604.59 115.82 607.02 110.98V111.1V78.1999L607.28 78.4499L379.01 78.3099L379.12 78.1999C379.12 88.7599 379.12 96.8699 379.12 102.34C379.12 105.067 379.12 107.133 379.12 108.54C379.12 109.93 379.12 110.64 379.12 110.64C379.12 110.64 379.12 109.93 379.12 108.54C379.12 107.15 379.12 105.07 379.12 102.34C379.12 96.8699 379.12 88.7599 379.06 78.1999V78.0799H379.18L607.45 77.9399H607.7V78.1999C607.7 88.5599 607.7 99.1999 607.7 110.08V111.08V111.14L600.3 125.3V125.18C600.3 202.18 600.24 271.09 600.22 320.8C600.22 345.64 600.16 365.68 600.14 379.52C600.14 386.43 600.14 391.78 600.14 395.42C600.14 397.23 600.14 398.62 600.14 399.55C600.14 400.48 600.07 401 600.07 401Z" fill="#E0E0E0"/>
<path d="M644.9 203.26C644.9 203.26 644.9 202.75 644.9 201.76C644.9 200.77 644.85 199.3 644.81 197.38C644.74 193.53 644.64 187.88 644.51 180.63C644.28 166.12 643.95 145.24 643.51 119.72C646.05 112.947 648.717 105.84 651.51 98.3999V98.4799C651.51 83.5499 651.51 67.0199 651.51 49.5499L651.76 49.7999H587.76H481.76H481.62L481.55 49.6699L475.26 36.3599L475.46 36.4799L403.86 36.3899L383.86 36.3299H378.61H376.81C376.81 36.3299 377.42 36.3299 378.61 36.3299H383.86L403.86 36.2699L475.46 36.1799H475.59L475.65 36.2999L482 49.3899L481.79 49.2599H587.79H652V49.5099C652 66.9799 652 83.5099 652 98.4399L644 119.74V119.66C644.33 145.19 644.6 166.07 644.79 180.58C644.87 187.83 644.94 193.48 644.98 197.33C644.98 199.25 644.98 200.71 644.98 201.71C644.92 202.75 644.9 203.26 644.9 203.26Z" fill="#E0E0E0"/>
<path d="M632.43 214.44C632.43 214.44 632.43 213.88 632.36 212.78C632.29 211.68 632.29 210.05 632.23 207.93C632.13 203.65 631.98 197.37 631.78 189.31C631.41 173.16 630.88 149.88 630.23 121.31L639.63 99.3099V99.3899C639.92 87.3899 640.24 74.3899 640.57 60.6999L640.81 60.9399H530.06L350.25 60.8699L350.39 60.8199L335.78 75.3099H335.71L287 74.9399L274 74.7999H270.64H269.51H270.64H274H287L335.63 75.0699H335.51C340.057 70.5099 344.92 65.6366 350.1 60.4499L350.15 60.3899H350.23L530.04 60.3199H640.79H641.03V60.5699C640.69 74.2099 640.35 87.2199 640.03 99.2599C636.74 106.94 633.58 114.26 630.59 121.26V121.18C631.17 149.76 631.59 173.05 631.96 189.18C632.11 197.24 632.23 203.52 632.31 207.8C632.31 209.92 632.37 211.55 632.38 212.65C632.39 213.75 632.43 214.44 632.43 214.44Z" fill="#E0E0E0"/>
<path fill-rule="evenodd" clip-rule="evenodd" d="M272.51 74.55C272.51 74.8941 272.408 75.2305 272.217 75.5167C272.026 75.8028 271.754 76.0258 271.436 76.1575C271.118 76.2892 270.768 76.3237 270.431 76.2565C270.093 76.1894 269.783 76.0237 269.54 75.7803C269.296 75.537 269.131 75.227 269.063 74.8894C268.996 74.5519 269.031 74.202 269.162 73.8841C269.294 73.5662 269.517 73.2944 269.803 73.1032C270.089 72.912 270.426 72.81 270.77 72.81C270.999 72.8086 271.226 72.8527 271.437 72.9397C271.649 73.0267 271.842 73.1548 272.003 73.3166C272.165 73.4785 272.293 73.6708 272.38 73.8825C272.467 74.0942 272.511 74.3211 272.51 74.55V74.55Z" fill="#E0E0E0"/>
<path fill-rule="evenodd" clip-rule="evenodd" d="M376.84 36.1799C376.84 36.5241 376.738 36.8605 376.547 37.1466C376.356 37.4328 376.084 37.6558 375.766 37.7875C375.448 37.9192 375.098 37.9536 374.761 37.8865C374.423 37.8194 374.113 37.6537 373.87 37.4103C373.626 37.167 373.461 36.8569 373.393 36.5194C373.326 36.1819 373.361 35.832 373.492 35.5141C373.624 35.1961 373.847 34.9244 374.133 34.7332C374.419 34.542 374.756 34.4399 375.1 34.4399C375.561 34.4399 376.004 34.6233 376.33 34.9496C376.657 35.2759 376.84 35.7185 376.84 36.1799V36.1799Z" fill="#E0E0E0"/>
<path d="M665.64 397.7H629.29C639.93 361.52 642.35 293.7 640.57 248.77H653.94C653.24 293.54 656.47 361 665.64 397.7Z" fill="#EBEBEB"/>
<path d="M715.61 441.7C712.516 438.257 708.64 435.606 704.309 433.97C699.978 432.334 695.318 431.762 690.72 432.3C691.59 424.3 692.39 415.79 689.23 408.46C686.07 401.13 677.4 395.89 670.8 399.78C673.24 388.69 668.96 376.24 660.38 369.5C656.123 366.205 650.96 364.29 645.584 364.011C640.208 363.733 634.875 365.103 630.3 367.94C621.15 373.77 615.77 385.72 617.21 397.01C612.535 396.713 607.865 397.652 603.668 399.732C599.471 401.812 595.895 404.96 593.3 408.86C590.635 412.976 588.982 417.663 588.474 422.54C587.967 427.416 588.62 432.344 590.38 436.92C576.77 436.19 563.79 454 564.06 468.59L723.43 468.4C724.141 463.649 723.81 458.8 722.46 454.189C721.109 449.578 718.772 445.317 715.61 441.7V441.7Z" fill="#EBEBEB"/>
<path d="M635.39 182.1L666.07 192.68C672.84 199.63 668.29 209.44 662.57 213.21C664.658 214.216 666.372 215.859 667.464 217.903C668.557 219.946 668.972 222.284 668.649 224.579C668.327 226.874 667.283 229.006 665.669 230.669C664.055 232.332 661.954 233.439 659.67 233.83C660.433 234.974 660.945 236.265 661.175 237.621C661.405 238.976 661.346 240.364 661.003 241.696C660.66 243.027 660.041 244.271 659.185 245.346C658.328 246.422 657.255 247.305 656.035 247.937C654.814 248.57 653.475 248.939 652.102 249.019C650.73 249.099 649.356 248.889 648.07 248.402C646.785 247.915 645.616 247.163 644.641 246.194C643.666 245.226 642.905 244.062 642.41 242.78C641.12 239.39 641.73 235.39 639.91 232.26C638.19 229.33 634.8 227.92 632.03 225.94C625.17 221.04 622.03 211.94 623.03 203.57C624.03 195.2 629 187.63 635.39 182.1Z" fill="#EBEBEB"/>
<path d="M654.87 189.05C656.048 192.079 656.612 195.311 656.53 198.56C656.515 199.021 656.355 199.466 656.073 199.831C655.791 200.196 655.401 200.464 654.959 200.595C654.516 200.727 654.044 200.716 653.608 200.564C653.172 200.413 652.795 200.128 652.53 199.75V199.75C652.66 203.721 652.53 207.696 652.14 211.65C652.09 212.206 651.869 212.734 651.507 213.16C651.146 213.586 650.662 213.889 650.121 214.029C649.58 214.17 649.009 214.139 648.486 213.942C647.963 213.746 647.514 213.392 647.2 212.93C641.51 204.632 639.022 194.552 640.2 184.56L654.87 189.05Z" fill="#E0E0E0"/>
<path d="M624.44 152.06L624.27 152.19C619.499 156.023 615.65 160.878 613.007 166.398C610.364 171.917 608.995 177.96 609 184.08V191.85L624.43 181.12L624.44 152.06Z" fill="#E0E0E0"/>
<path d="M668.52 152L668.69 152.13C673.396 155.908 677.193 160.694 679.801 166.136C682.409 171.578 683.762 177.536 683.76 183.57V191.24L668.52 180.67V152Z" fill="#E0E0E0"/>
<path d="M646.45 75.9399C649.94 75.9399 656.36 84.9399 662.32 100.03C665.851 108.904 667.941 118.286 668.51 127.82V192.68H624.46V133.82C624.429 128.077 624.944 122.345 626 116.7C627.084 111.02 628.619 105.436 630.59 99.9999C636.18 84.8999 643 75.9999 646.45 75.9399Z" fill="#F5F5F5"/>
<path d="M624.9 182.16C624.9 182.23 634.67 182.33 646.72 182.4C658.77 182.47 668.54 182.46 668.54 182.4C668.54 182.34 658.77 182.23 646.72 182.17C634.67 182.11 624.9 182.1 624.9 182.16Z" fill="#E0E0E0"/>
<path d="M625.09 184.13C625.09 184.19 634.86 184.3 646.91 184.36C658.96 184.42 668.73 184.43 668.73 184.36C668.73 184.29 658.97 184.19 646.91 184.12C634.85 184.05 625.09 184.07 625.09 184.13Z" fill="#E0E0E0"/>
<path d="M625.06 186.2C625.06 186.27 634.83 186.37 646.88 186.44C658.93 186.51 668.7 186.5 668.7 186.44C668.7 186.38 658.93 186.27 646.88 186.21C634.83 186.15 625.06 186.14 625.06 186.2Z" fill="#E0E0E0"/>
<path d="M625 188.28C625 188.34 634.77 188.45 646.81 188.51C658.85 188.57 668.64 188.58 668.64 188.51C668.64 188.44 658.87 188.35 646.82 188.28C634.77 188.21 625 188.21 625 188.28Z" fill="#E0E0E0"/>
<path d="M625 190.35C625 190.42 634.77 190.52 646.82 190.59C658.87 190.66 668.64 190.65 668.64 190.59C668.64 190.53 658.88 190.42 646.82 190.35C634.76 190.28 625 190.29 625 190.35Z" fill="#E0E0E0"/>
<path d="M646.39 152.1C646.385 152.2 646.385 152.3 646.39 152.4C646.354 152.692 646.334 152.986 646.33 153.28C646.33 154.04 646.33 155.15 646.33 156.51C646.33 159.24 646.33 163.01 646.33 167.17C646.33 171.33 646.44 175.11 646.5 177.83C646.5 179.18 646.56 180.28 646.58 181.07C646.58 181.43 646.58 181.72 646.58 181.94C646.568 182.043 646.568 182.147 646.58 182.25C646.588 182.147 646.588 182.043 646.58 181.94C646.58 181.72 646.58 181.43 646.58 181.06C646.58 180.27 646.58 179.18 646.58 177.83C646.58 175.08 646.52 171.32 646.49 167.17C646.46 163.02 646.41 159.26 646.38 156.51C646.38 155.17 646.38 154.07 646.38 153.28C646.38 152.9 646.38 152.6 646.38 152.4C646.396 152.301 646.4 152.2 646.39 152.1Z" fill="#E0E0E0"/>
<path d="M624.44 152.06C624.44 152.12 634.22 152.18 646.29 152.18C658.36 152.18 668.15 152.13 668.15 152.07C668.15 152.01 658.36 151.95 646.29 151.95C634.22 151.95 624.44 152 624.44 152.06Z" fill="#E0E0E0"/>
<path d="M642.87 173.49C642.87 173.49 642.8 173.39 642.6 173.29C642.316 173.167 641.998 173.146 641.7 173.23C641.466 173.278 641.249 173.389 641.072 173.551C640.896 173.713 640.768 173.92 640.7 174.15C640.609 174.428 640.607 174.727 640.692 175.006C640.778 175.286 640.948 175.532 641.178 175.712C641.409 175.891 641.69 175.995 641.982 176.009C642.274 176.023 642.563 175.946 642.81 175.79C643.015 175.672 643.184 175.501 643.3 175.295C643.416 175.089 643.475 174.856 643.47 174.62C643.469 174.309 643.367 174.008 643.18 173.76C643.05 173.59 642.94 173.54 642.93 173.55C642.92 173.56 643 173.64 643.11 173.81C643.25 174.056 643.316 174.337 643.3 174.62C643.297 174.824 643.241 175.023 643.138 175.198C643.034 175.374 642.887 175.519 642.71 175.62C642.498 175.75 642.251 175.812 642.003 175.798C641.754 175.783 641.516 175.694 641.32 175.54C641.124 175.387 640.98 175.177 640.907 174.939C640.833 174.702 640.835 174.447 640.91 174.21C640.963 174.016 641.066 173.84 641.208 173.698C641.35 173.556 641.526 173.453 641.72 173.4C641.99 173.314 642.28 173.314 642.55 173.4C642.76 173.44 642.86 173.5 642.87 173.49Z" fill="#E0E0E0"/>
<path d="M642.63 161C642.63 161 642.56 160.9 642.36 160.81C642.076 160.689 641.76 160.664 641.46 160.74C641.226 160.789 641.01 160.901 640.834 161.063C640.658 161.225 640.529 161.431 640.46 161.66C640.376 161.939 640.376 162.236 640.46 162.515C640.543 162.794 640.707 163.043 640.93 163.23C641.165 163.398 641.444 163.495 641.733 163.509C642.022 163.523 642.309 163.454 642.56 163.31C642.721 163.207 642.859 163.073 642.966 162.915C643.072 162.757 643.145 162.578 643.18 162.39C643.215 162.203 643.211 162.01 643.168 161.824C643.124 161.638 643.044 161.463 642.93 161.31C642.8 161.14 642.69 161.08 642.68 161.09C642.67 161.1 642.76 161.19 642.86 161.36C643 161.602 643.066 161.88 643.05 162.16C643.05 162.364 642.996 162.565 642.892 162.741C642.788 162.917 642.639 163.061 642.46 163.16C642.249 163.288 642.003 163.35 641.756 163.335C641.509 163.321 641.273 163.232 641.077 163.08C640.882 162.929 640.738 162.721 640.663 162.485C640.589 162.249 640.588 161.996 640.66 161.76C640.713 161.565 640.815 161.387 640.957 161.243C641.099 161.1 641.276 160.995 641.47 160.94C641.742 160.865 642.028 160.865 642.3 160.94C642.52 160.9 642.62 161 642.63 161Z" fill="#E0E0E0"/>
<path d="M645.27 219.18C645.781 219.513 646.141 220.034 646.272 220.63C646.404 221.226 646.296 221.85 645.972 222.368C645.648 222.885 645.134 223.255 644.541 223.397C643.947 223.54 643.322 223.444 642.798 223.129C642.275 222.815 641.896 222.309 641.742 221.718C641.588 221.127 641.673 220.5 641.977 219.97C642.281 219.441 642.781 219.053 643.368 218.888C643.956 218.723 644.585 218.796 645.12 219.09" fill="#E0E0E0"/>
<path d="M636.47 113.42C635.168 115.381 634.477 117.683 634.484 120.037C634.491 122.39 635.196 124.688 636.509 126.641C637.822 128.594 639.685 130.114 641.862 131.009C644.039 131.903 646.432 132.132 648.739 131.666C651.045 131.201 653.162 130.062 654.822 128.393C656.481 126.724 657.609 124.601 658.062 122.292C658.515 119.982 658.273 117.59 657.366 115.419C656.46 113.247 654.93 111.392 652.97 110.09C651.668 109.225 650.208 108.625 648.675 108.324C647.141 108.023 645.562 108.027 644.03 108.337C642.498 108.646 641.042 109.254 639.744 110.126C638.447 110.998 637.335 112.118 636.47 113.42V113.42Z" fill="white"/>
<path d="M636.47 113.42C637.095 112.668 637.762 111.954 638.47 111.28C640.461 109.506 642.989 108.45 645.65 108.28C647.6 108.164 649.549 108.538 651.317 109.37C653.085 110.202 654.616 111.463 655.77 113.04C657.141 114.895 657.928 117.116 658.03 119.42C658.145 121.894 657.468 124.34 656.098 126.403C654.728 128.465 652.735 130.037 650.41 130.89C649.314 131.302 648.16 131.539 646.99 131.59C645.868 131.663 644.741 131.562 643.65 131.29C641.617 130.791 639.756 129.754 638.26 128.29C636.942 127.032 635.942 125.479 635.34 123.76C634.452 121.252 634.434 118.519 635.29 116C635.63 115.088 636.031 114.199 636.49 113.34C636.328 113.536 636.184 113.747 636.06 113.97C635.885 114.223 635.731 114.491 635.6 114.77C635.403 115.143 635.236 115.531 635.1 115.93C634.311 118.094 634.16 120.439 634.668 122.685C635.175 124.932 636.318 126.985 637.96 128.6C639.509 130.116 641.436 131.19 643.54 131.71C645.86 132.28 648.297 132.144 650.54 131.32C652.988 130.449 655.09 128.81 656.531 126.648C657.973 124.485 658.677 121.915 658.54 119.32C658.418 116.922 657.594 114.613 656.17 112.68C654.881 110.948 653.155 109.588 651.17 108.74C649.045 107.854 646.711 107.598 644.445 108.003C642.179 108.407 640.077 109.454 638.39 111.02C638.076 111.303 637.785 111.611 637.52 111.94C637.311 112.167 637.12 112.412 636.95 112.67C636.756 112.897 636.594 113.149 636.47 113.42V113.42Z" fill="#E0E0E0"/>
<path d="M646.45 75.9399C649.94 75.9399 656.36 84.9399 662.32 100.03H630.59C636.18 84.8999 643 75.9999 646.45 75.9399Z" fill="#E0E0E0"/>
<path d="M646.45 75.9399L645.83 76.0099C645.247 76.1822 644.696 76.4491 644.2 76.7999C642.35 78.2358 640.751 79.9695 639.47 81.9299C635.97 86.9299 631.91 94.9299 628.62 105.43C626.865 111.217 625.6 117.141 624.84 123.14C624.446 126.503 624.239 129.884 624.22 133.27C624.22 136.76 624.22 140.36 624.22 144.06C624.22 158.86 624.22 175.27 624.22 192.7V193H668.82V192.75C668.82 175.31 668.82 158.9 668.76 144.1C668.76 140.4 668.76 136.8 668.76 133.31C668.76 131.56 668.76 129.84 668.76 128.15C668.76 126.46 668.55 124.79 668.36 123.15C667.627 117.147 666.324 111.227 664.47 105.47C662.901 100.777 661.031 96.191 658.87 91.7399C657.274 88.3589 655.426 85.103 653.34 81.9999C652.077 80.0297 650.507 78.2742 648.69 76.7999C648.34 76.5999 648.06 76.3899 647.78 76.2699C647.546 76.164 647.306 76.0738 647.06 75.9999L646.45 75.9299C646.45 75.9299 646.65 75.9299 647.05 76.0499C647.289 76.1284 647.523 76.2219 647.75 76.3299C648.055 76.494 648.349 76.6777 648.63 76.8799C650.414 78.3741 651.953 80.1389 653.19 82.1099C655.226 85.199 657.031 88.4345 658.59 91.7899C660.719 96.2452 662.562 100.831 664.11 105.52C665.93 111.257 667.206 117.153 667.92 123.13C668.11 124.75 668.27 126.41 668.3 128.13V133.28C668.3 136.767 668.3 140.363 668.3 144.07C668.3 158.88 668.3 175.28 668.3 192.72L668.56 192.46H624.46L624.71 192.72C624.71 175.29 624.71 158.88 624.66 144.08C624.66 140.38 624.66 136.78 624.66 133.29C624.67 129.918 624.867 126.55 625.25 123.2C625.986 117.223 627.224 111.319 628.95 105.55C632.18 94.9999 636.19 86.9999 639.62 81.9999C640.879 80.0414 642.442 78.2961 644.25 76.8299C644.735 76.479 645.271 76.2057 645.84 76.0199L646.45 75.9399Z" fill="#E0E0E0"/>
<path d="M639.88 126.08C640.543 125.625 641.147 125.091 641.68 124.49C642.73 123.49 644.13 121.95 645.68 120.28L649.52 115.97C650.088 115.408 650.601 114.791 651.05 114.13C650.391 114.586 649.79 115.119 649.26 115.72C648.2 116.72 646.8 118.25 645.26 119.93L641.42 124.24C640.849 124.802 640.333 125.419 639.88 126.08V126.08Z" fill="#E0E0E0"/>
<path d="M643.38 126.1C644.769 125.026 646.052 123.821 647.21 122.5C648.491 121.286 649.647 119.946 650.66 118.5C649.271 119.575 647.989 120.78 646.83 122.1C645.55 123.315 644.394 124.655 643.38 126.1Z" fill="#E0E0E0"/>
<path d="M711.52 468.8C711.52 468.95 559.05 469.07 371.02 469.07C182.99 469.07 30.48 469 30.48 468.8C30.48 468.6 182.92 468.54 371.02 468.54C559.12 468.54 711.52 468.66 711.52 468.8Z" fill="#263238"/>
<path d="M672.68 237.37H636.09C630.639 237.37 626.22 241.789 626.22 247.24V283.83C626.22 289.281 630.639 293.7 636.09 293.7H672.68C678.131 293.7 682.55 289.281 682.55 283.83V247.24C682.55 241.789 678.131 237.37 672.68 237.37Z" fill="#263238"/>
<path d="M664.42 237.37H627.83C622.379 237.37 617.96 241.789 617.96 247.24V283.83C617.96 289.281 622.379 293.7 627.83 293.7H664.42C669.871 293.7 674.29 289.281 674.29 283.83V247.24C674.29 241.789 669.871 237.37 664.42 237.37Z" fill="#455A64"/>
<g clip-path="url(#clip0_194_10635)">
<path fill-rule="evenodd" clip-rule="evenodd" d="M656.92 250.292C656.733 250.105 656.479 250 656.214 250H643.786C643.521 250 643.267 250.105 643.08 250.292L634.292 259.08C634.105 259.267 634 259.521 634 259.786V272.214C634 272.479 634.105 272.733 634.292 272.92L643.08 281.708C643.267 281.895 643.521 282 643.786 282H656.214C656.479 282 656.733 281.895 656.92 281.708L665.708 272.92C665.895 272.733 666 272.479 666 272.214V259.786C666 259.521 665.895 259.267 665.708 259.08L656.92 250.292ZM657.708 259.708C657.896 259.52 658.001 259.266 658.001 259C658.001 258.734 657.896 258.48 657.708 258.292C657.52 258.104 657.266 257.999 657 257.999C656.734 257.999 656.48 258.104 656.292 258.292L650 264.586L643.708 258.292C643.615 258.199 643.505 258.125 643.383 258.075C643.262 258.025 643.131 257.999 643 257.999C642.869 257.999 642.738 258.025 642.617 258.075C642.495 258.125 642.385 258.199 642.292 258.292C642.199 258.385 642.125 258.495 642.075 258.617C642.025 258.738 641.999 258.869 641.999 259C641.999 259.131 642.025 259.262 642.075 259.383C642.125 259.505 642.199 259.615 642.292 259.708L648.586 266L642.292 272.292C642.104 272.48 641.999 272.734 641.999 273C641.999 273.266 642.104 273.52 642.292 273.708C642.48 273.896 642.734 274.001 643 274.001C643.266 274.001 643.52 273.896 643.708 273.708L650 267.414L656.292 273.708C656.385 273.801 656.495 273.875 656.617 273.925C656.738 273.975 656.869 274.001 657 274.001C657.131 274.001 657.262 273.975 657.383 273.925C657.505 273.875 657.615 273.801 657.708 273.708C657.801 273.615 657.875 273.505 657.925 273.383C657.975 273.262 658.001 273.131 658.001 273C658.001 272.869 657.975 272.738 657.925 272.617C657.875 272.495 657.801 272.385 657.708 272.292L651.414 266L657.708 259.708Z" fill="#EEF1F9"/>
</g>
<path d="M646.56 407.79C647.924 408.443 649.144 409.364 650.145 410.498C651.147 411.632 651.91 412.955 652.39 414.39C653.325 417.272 653.588 420.33 653.16 423.33C652.5 429.13 649.21 434.99 645.66 439.63C640.77 435.36 639.66 427.93 639.31 424.12C638.79 418.12 641.49 406.9 646.56 407.79" fill="#F47A1F"/>
<path d="M651.33 449.2C651 447.542 651.112 445.825 651.656 444.224C652.201 442.623 653.157 441.194 654.43 440.08C655.724 438.993 657.222 438.174 658.836 437.671C660.45 437.168 662.147 436.991 663.83 437.15C664.618 437.133 665.401 437.289 666.122 437.609C666.842 437.929 667.484 438.404 668 439C668.38 439.625 668.586 440.34 668.597 441.072C668.607 441.803 668.422 442.524 668.06 443.16C667.316 444.411 666.258 445.445 664.99 446.16C660.75 448.81 656.17 450.61 651.38 449.16" fill="#F47A1F"/>
<path d="M645.07 467C645.093 466.599 645.15 466.201 645.24 465.81C645.4 464.97 645.6 463.89 645.83 462.59C646.379 459 647.503 455.522 649.16 452.29C650.88 449.064 653.431 446.357 656.55 444.45C657.493 443.887 658.5 443.437 659.55 443.11C659.92 442.99 660.22 442.94 660.41 442.89C660.512 442.874 660.617 442.874 660.72 442.89C659.328 443.372 657.988 443.992 656.72 444.74C653.711 446.695 651.245 449.378 649.55 452.54C647.92 455.736 646.774 459.157 646.15 462.69C645.85 464.04 645.61 465.13 645.43 465.88C645.343 466.263 645.223 466.638 645.07 467Z" fill="#263238"/>
<path d="M645.25 416.51C645.297 416.679 645.318 416.855 645.31 417.03C645.31 417.41 645.37 417.91 645.4 418.52C645.47 419.82 645.55 421.7 645.62 424.02C645.77 428.67 645.89 435.1 645.86 442.19C645.83 449.28 645.66 455.72 645.47 460.36C645.37 462.69 645.28 464.57 645.2 465.86C645.2 466.48 645.12 466.97 645.1 467.36C645.099 467.536 645.076 467.71 645.03 467.88C645.015 467.707 645.015 467.533 645.03 467.36C645.03 466.97 645.03 466.47 645.03 465.86C645.03 464.51 645.11 462.64 645.17 460.35C645.28 455.71 645.41 449.29 645.44 442.19C645.47 435.09 645.44 428.68 645.32 424.03C645.32 421.75 645.26 419.88 645.24 418.53C645.24 417.91 645.24 417.42 645.24 417.03C645.228 416.857 645.231 416.683 645.25 416.51V416.51Z" fill="#263238"/>
<path d="M642.88 452.73C642.291 449.215 640.872 445.891 638.742 443.033C636.612 440.176 633.831 437.868 630.63 436.3C629 435.52 626.87 435 625.53 436.22C624.19 437.44 624.53 439.62 625.14 441.31C626.575 444.813 629.016 447.812 632.153 449.929C635.29 452.047 638.985 453.189 642.77 453.21" fill="#F47A1F"/>
<path d="M631.42 441.8C631.767 441.918 632.102 442.068 632.42 442.25C632.822 442.436 633.213 442.646 633.59 442.88C634.102 443.165 634.599 443.475 635.08 443.81C635.673 444.208 636.244 444.638 636.79 445.1C637.425 445.61 638.029 446.158 638.6 446.74C639.914 448.085 641.071 449.574 642.05 451.18C643.003 452.801 643.768 454.525 644.33 456.32C644.564 457.102 644.754 457.897 644.9 458.7C645.044 459.399 645.141 460.108 645.19 460.82C645.28 461.47 645.25 462.06 645.28 462.58C645.307 463.02 645.307 463.46 645.28 463.9C645.271 464.28 645.228 464.658 645.15 465.03C645.05 465.03 645.22 463.41 644.94 460.85C644.85 460.21 644.77 459.51 644.6 458.77C644.439 457.979 644.236 457.198 643.99 456.43C643.422 454.686 642.664 453.009 641.73 451.43C640.768 449.852 639.638 448.384 638.36 447.05C637.804 446.465 637.216 445.911 636.6 445.39C636.074 444.927 635.523 444.493 634.95 444.09C632.85 442.55 631.38 441.88 631.42 441.8Z" fill="#263238"/>
<path d="M200.7 218.17H96.16V468.87H200.7V218.17Z" fill="#E0E0E0"/>
<path d="M148.43 218.17H65.78V468.87H148.43V218.17Z" fill="#F5F5F5"/>
<path d="M148.55 468.68C148.41 468.68 148.29 412.54 148.29 343.29C148.29 274.04 148.41 217.89 148.55 217.89C148.69 217.89 148.81 274.03 148.81 343.29C148.81 412.55 148.7 468.68 148.55 468.68Z" fill="#263238"/>
<path d="M188.55 246.97H163.51V249.55H188.55V246.97Z" fill="#263238"/>
<path d="M188.55 254.35H163.51V256.93H188.55V254.35Z" fill="#263238"/>
<path d="M188.55 261.74H163.51V264.32H188.55V261.74Z" fill="#263238"/>
<path d="M140.44 228.83H74.3201V460.91H140.44V228.83Z" fill="#E0E0E0"/>
<path d="M133.85 237.38H79.0701V245.68H133.85V237.38Z" fill="#EBEBEB"/>
<path d="M87.3701 237.38H79.0701V245.68H87.3701V237.38Z" fill="#F47A1F"/>
<path d="M135.55 237.38H117.51V245.68H135.55V237.38Z" fill="#F5F5F5"/>
<path d="M133.85 252.15H79.0701V260.45H133.85V252.15Z" fill="#EBEBEB"/>
<path d="M87.3701 252.15H79.0701V260.45H87.3701V252.15Z" fill="white"/>
<path d="M135.55 252.15H117.51V260.45H135.55V252.15Z" fill="#F5F5F5"/>
<path d="M133.85 266.93H79.0701V275.23H133.85V266.93Z" fill="#EBEBEB"/>
<path d="M87.3701 266.93H79.0701V275.23H87.3701V266.93Z" fill="#F47A1F"/>
<path d="M135.55 266.93H117.51V275.23H135.55V266.93Z" fill="#F5F5F5"/>
<path d="M133.85 281.71H79.0701V290.01H133.85V281.71Z" fill="#EBEBEB"/>
<path d="M87.3701 281.71H79.0701V290.01H87.3701V281.71Z" fill="white"/>
<path d="M135.55 281.71H117.51V290.01H135.55V281.71Z" fill="#F5F5F5"/>
<path d="M133.85 296.48H79.0701V304.78H133.85V296.48Z" fill="#EBEBEB"/>
<path d="M87.3701 296.48H79.0701V304.78H87.3701V296.48Z" fill="#F47A1F"/>
<path d="M135.55 296.48H117.51V304.78H135.55V296.48Z" fill="#F5F5F5"/>
<path d="M133.85 311.26H79.0701V319.56H133.85V311.26Z" fill="#EBEBEB"/>
<path d="M87.3701 311.26H79.0701V319.56H87.3701V311.26Z" fill="#F47A1F"/>
<path d="M135.55 311.26H117.51V319.56H135.55V311.26Z" fill="#F5F5F5"/>
<path d="M133.85 326.04H79.0701V334.34H133.85V326.04Z" fill="#EBEBEB"/>
<path d="M87.3701 326.04H79.0701V334.34H87.3701V326.04Z" fill="white"/>
<path d="M135.55 326.04H117.51V334.34H135.55V326.04Z" fill="#F5F5F5"/>
<path d="M133.85 340.81H79.0701V349.11H133.85V340.81Z" fill="#EBEBEB"/>
<path d="M87.3701 340.81H79.0701V349.11H87.3701V340.81Z" fill="white"/>
<path d="M135.55 340.81H117.51V349.11H135.55V340.81Z" fill="#F5F5F5"/>
<path d="M133.85 355.59H79.0701V363.89H133.85V355.59Z" fill="#EBEBEB"/>
<path d="M87.3701 355.59H79.0701V363.89H87.3701V355.59Z" fill="white"/>
<path d="M135.55 355.59H117.51V363.89H135.55V355.59Z" fill="#F5F5F5"/>
<path d="M133.85 370.37H79.0701V378.67H133.85V370.37Z" fill="#EBEBEB"/>
<path d="M87.3701 370.37H79.0701V378.67H87.3701V370.37Z" fill="#F47A1F"/>
<path d="M135.55 370.37H117.51V378.67H135.55V370.37Z" fill="#F5F5F5"/>
<path d="M133.85 385.15H79.0701V393.45H133.85V385.15Z" fill="#EBEBEB"/>
<path d="M87.3701 385.15H79.0701V393.45H87.3701V385.15Z" fill="white"/>
<path d="M135.55 385.15H117.51V393.45H135.55V385.15Z" fill="#F5F5F5"/>
<path d="M133.85 399.92H79.0701V408.22H133.85V399.92Z" fill="#EBEBEB"/>
<path d="M87.3701 399.92H79.0701V408.22H87.3701V399.92Z" fill="#F47A1F"/>
<path d="M135.55 399.92H117.51V408.22H135.55V399.92Z" fill="#F5F5F5"/>
<path d="M133.85 414.7H79.0701V423H133.85V414.7Z" fill="#EBEBEB"/>
<path d="M87.3701 414.7H79.0701V423H87.3701V414.7Z" fill="white"/>
<path d="M135.55 414.7H117.51V423H135.55V414.7Z" fill="#F5F5F5"/>
<path d="M133.85 429.48H79.0701V437.78H133.85V429.48Z" fill="#EBEBEB"/>
<path d="M87.3701 429.48H79.0701V437.78H87.3701V429.48Z" fill="#F47A1F"/>
<path d="M135.55 429.48H117.51V437.78H135.55V429.48Z" fill="#F5F5F5"/>
<path d="M133.85 444.25H79.0701V452.55H133.85V444.25Z" fill="#EBEBEB"/>
<path d="M87.3701 444.25H79.0701V452.55H87.3701V444.25Z" fill="white"/>
<path d="M135.55 444.25H117.51V452.55H135.55V444.25Z" fill="#F5F5F5"/>
<path d="M200.7 468.87C200.7 466.64 200.6 364.77 200.46 218.17L200.7 218.41H65.8L66.06 218.15C66.06 314.39 66.01 402.39 66 468.85L65.8 468.65L200.72 468.85L65.8 469.04H65.6V468.84C65.6 402.38 65.6 314.38 65.54 218.14V217.88H65.82H200.72H200.96V218.12C200.96 291.48 200.88 354.18 200.85 398.55C200.75 442.81 200.7 467.76 200.7 468.87Z" fill="#263238"/>
<path d="M554.92 147.51H195.08C192.102 147.51 189.245 148.693 187.139 150.799C185.033 152.905 183.85 155.762 183.85 158.74V412.91C183.85 415.888 185.033 418.745 187.139 420.851C189.245 422.957 192.102 424.14 195.08 424.14H333.19L326.49 468.54H426.62L421 424.14H554.92C557.898 424.14 560.755 422.957 562.861 420.851C564.967 418.745 566.15 415.888 566.15 412.91V158.74C566.15 157.265 565.859 155.805 565.295 154.442C564.731 153.08 563.904 151.842 562.861 150.799C561.818 149.756 560.58 148.929 559.217 148.365C557.855 147.8 556.395 147.51 554.92 147.51Z" fill="#455A64"/>
<path d="M379.8 397.41C384.7 404.41 377.04 412.07 370.04 407.17C369.806 407.007 369.603 406.804 369.44 406.57C364.56 399.57 372.21 391.92 379.2 396.81C379.433 396.973 379.637 397.176 379.8 397.41Z" fill="#263238"/>
<path d="M203.61 157.21H546.44C549.013 157.21 551.48 158.232 553.299 160.051C555.118 161.87 556.14 164.337 556.14 166.91V377.64H193.91V166.91C193.91 164.337 194.932 161.87 196.751 160.051C198.57 158.232 201.037 157.21 203.61 157.21V157.21Z" fill="#263238"/>
<path d="M458.16 424.14C458.16 424.27 427.99 424.37 390.79 424.37C353.59 424.37 323.42 424.27 323.42 424.14C323.42 424.01 353.58 423.92 390.79 423.92C428 423.92 458.16 424 458.16 424.14Z" fill="#263238"/>
<path d="M256.69 174.62H230.29V180.19H256.69V174.62Z" fill="#455A64"/>
<path d="M243.49 199.58H230.29V205.15H243.49V199.58Z" fill="#F47A1F"/>
<path d="M258.82 212.13H240.23V217.7H258.82V212.13Z" fill="#455A64"/>
<path d="M272.6 212.13H261.77V217.7H272.6V212.13Z" fill="#455A64"/>
<path d="M369.72 212.13H347.44V217.7H369.72V212.13Z" fill="#455A64"/>
<path d="M434.82 224.36H397.19V229.93H434.82V224.36Z" fill="#455A64"/>
<path d="M492.87 212.13H474.8V217.7H492.87V212.13Z" fill="#455A64"/>
<path d="M534.75 212.13H498.41V217.7H534.75V212.13Z" fill="#455A64"/>
<path d="M258.82 224.36H240.23V229.93H258.82V224.36Z" fill="#455A64"/>
<path d="M247.39 236.56H228.8V242.13H247.39V236.56Z" fill="#F47A1F"/>
<path d="M247.4 248.77H238.71V254.34H247.4V248.77Z" fill="#455A64"/>
<path d="M279.27 274.47H270.59V280.04H279.27V274.47Z" fill="#455A64"/>
<path d="M407.03 320.91H390.06V326.48H407.03V320.91Z" fill="#455A64"/>
<path d="M501.83 320.91H460.26V326.48H501.83V320.91Z" fill="#455A64"/>
<path d="M343.14 308.72H326.17V314.29H343.14V308.72Z" fill="#E0E0E0"/>
<path d="M281.66 298.26H264.69V303.83H281.66V298.26Z" fill="#455A64"/>
<path d="M386.54 320.91H359.78V326.48H386.54V320.91Z" fill="#455A64"/>
<path d="M252.8 261.19H238.71V266.76H252.8V261.19Z" fill="#455A64"/>
<path d="M264.85 274.68H238.71V280.25H264.85V274.68Z" fill="#455A64"/>
<path d="M276.96 285H238.71V290.57H276.96V285Z" fill="#455A64"/>
<path d="M346.26 285H308.01V290.57H346.26V285Z" fill="#455A64"/>
<path d="M318.06 308.72H264.35V314.29H318.06V308.72Z" fill="#455A64"/>
<path d="M355.19 320.91H264.35V326.48H355.19V320.91Z" fill="#455A64"/>
<path d="M327.71 333.11H236.87V338.68H327.71V333.11Z" fill="#455A64"/>
<path d="M303.95 285H281V290.57H303.95V285Z" fill="#455A64"/>
<path d="M274.5 248.77H250.82V254.34H274.5V248.77Z" fill="#455A64"/>
<path d="M279.72 261.2H256.04V266.77H279.72V261.2Z" fill="#455A64"/>
<path d="M371.46 261.2H308.76V266.77H371.46V261.2Z" fill="#455A64"/>
<path d="M445.57 261.2H373.16V266.77H445.57V261.2Z" fill="#455A64"/>
<path d="M303.21 261.2H283.61V266.77H303.21V261.2Z" fill="#455A64"/>
<path d="M308.78 248.77H277.74V254.34H308.78V248.77Z" fill="#455A64"/>
<path d="M329.49 248.77H312.21V254.34H329.49V248.77Z" fill="#E0E0E0"/>
<path d="M281.15 224.36H261.77V229.93H281.15V224.36Z" fill="#455A64"/>
<path d="M390.01 224.36H294.32V229.93H390.01V224.36Z" fill="#455A64"/>
<path d="M497.42 261.2H452.18V266.77H497.42V261.2Z" fill="#455A64"/>
<path d="M456.69 320.91H411.44V326.48H456.69V320.91Z" fill="#455A64"/>
<path d="M467.76 212.13H373.5V217.7H467.76V212.13Z" fill="#455A64"/>
<path d="M341.58 212.13H275.99V217.7H341.58V212.13Z" fill="#455A64"/>
<path d="M274.45 186.44H230.29V192.01H274.45V186.44Z" fill="#455A64"/>
<path d="M339.33 186.44H278.86V192.01H339.33V186.44Z" fill="#455A64"/>
<path d="M280.26 174.62H260.82V180.19H280.26V174.62Z" fill="#E0E0E0"/>
<path d="M220.65 174.62H215.25V180.19H220.65V174.62Z" fill="#455A64"/>
<path d="M220.65 186.82H215.25V192.39H220.65V186.82Z" fill="#455A64"/>
<path d="M220.65 199.01H215.25V204.58H220.65V199.01Z" fill="#455A64"/>
<path d="M220.65 211.2H215.25V216.77H220.65V211.2Z" fill="#455A64"/>
<path d="M220.65 223.39H215.25V228.96H220.65V223.39Z" fill="#455A64"/>
<path d="M220.65 235.58H215.25V241.15H220.65V235.58Z" fill="#455A64"/>
<path d="M220.65 247.77H215.25V253.34H220.65V247.77Z" fill="#455A64"/>
<path d="M220.65 259.96H215.25V265.53H220.65V259.96Z" fill="#455A64"/>
<path d="M220.65 272.15H215.25V277.72H220.65V272.15Z" fill="#455A64"/>
<path d="M277.14 359.44H268.46V365.01H277.14V359.44Z" fill="#E0E0E0"/>
<path d="M263.18 359.44H237.04V365.01H263.18V359.44Z" fill="#F47A1F"/>
<path d="M220.65 358.82H215.25V364.39H220.65V358.82Z" fill="#455A64"/>
<path d="M220.65 284.34H215.25V289.91H220.65V284.34Z" fill="#455A64"/>
<path d="M220.65 296.53H215.25V302.1H220.65V296.53Z" fill="#455A64"/>
<path d="M220.65 308.72H215.25V314.29H220.65V308.72Z" fill="#455A64"/>
<path d="M220.65 320.91H215.25V326.48H220.65V320.91Z" fill="#455A64"/>
<path d="M220.65 333.11H215.25V338.68H220.65V333.11Z" fill="#455A64"/>
<path d="M263.35 345.93H236.87V351.5H263.35V345.93Z" fill="#455A64"/>
<path d="M328.37 345.93H268.46V351.5H328.37V345.93Z" fill="#455A64"/>
<path d="M220.65 345.93H215.25V351.5H220.65V345.93Z" fill="#455A64"/>
<path d="M366.15 186.4H346.71V191.97H366.15V186.4Z" fill="#E0E0E0"/>
<g opacity="0.3">
<path opacity="0.3" d="M389.28 283.95H376V391.83H534.23L530.11 286.57L389.28 283.95Z" fill="black"/>
</g>
<path d="M544.52 268H386.19V381.64H544.52V268Z" fill="#E0E0E0"/>
<path d="M545 382.14H385.69V267.5H545V382.14ZM386.67 381.14H544V268.5H386.69L386.67 381.14Z" fill="#263238"/>
<path d="M441.85 280.14H416.25V285.54H441.85V280.14Z" fill="#455A64"/>
<path d="M429.05 304.34H416.25V309.74H429.05V304.34Z" fill="#F47A1F"/>
<path d="M443.91 316.51H425.88V321.91H443.91V316.51Z" fill="#455A64"/>
<path d="M457.28 316.51H446.78V321.91H457.28V316.51Z" fill="#455A64"/>
<path d="M443.91 328.38H425.88V333.78H443.91V328.38Z" fill="#455A64"/>
<path d="M432.84 340.21H414.81V345.61H432.84V340.21Z" fill="#F47A1F"/>
<path d="M432.83 352.04H424.41V357.44H432.83V352.04Z" fill="#455A64"/>
<path d="M438.08 364.09H424.41V369.49H438.08V364.09Z" fill="#455A64"/>
<path d="M459.12 352.04H436.16V357.44H459.12V352.04Z" fill="#455A64"/>
<path d="M464.18 364.1H441.22V369.5H464.18V364.1Z" fill="#455A64"/>
<path d="M519.51 364.1H492.35V369.5H519.51V364.1Z" fill="#455A64"/>
<path d="M486.96 364.1H467.96V369.5H486.96V364.1Z" fill="#455A64"/>
<path d="M492.37 352.04H462.27V357.44H492.37V352.04Z" fill="#455A64"/>
<path d="M512.45 352.04H495.69V357.44H512.45V352.04Z" fill="white"/>
<path d="M465.57 328.38H446.78V333.78H465.57V328.38Z" fill="#455A64"/>
<path d="M524.17 316.51H460.56V321.91H524.17V316.51Z" fill="#455A64"/>
<path d="M459.08 291.6H416.25V297H459.08V291.6Z" fill="#455A64"/>
<path d="M521.99 291.6H463.35V297H521.99V291.6Z" fill="#455A64"/>
<path d="M464.7 280.14H445.85V285.54H464.7V280.14Z" fill="white"/>
<path d="M406.89 280.14H401.66V285.54H406.89V280.14Z" fill="#455A64"/>
<path d="M406.89 291.96H401.66V297.36H406.89V291.96Z" fill="#455A64"/>
<path d="M406.89 303.79H401.66V309.19H406.89V303.79Z" fill="#455A64"/>
<path d="M406.89 315.61H401.66V321.01H406.89V315.61Z" fill="#455A64"/>
<path d="M406.89 327.43H401.66V332.83H406.89V327.43Z" fill="#455A64"/>
<path d="M406.89 339.25H401.66V344.65H406.89V339.25Z" fill="#455A64"/>
<path d="M406.89 351.08H401.66V356.48H406.89V351.08Z" fill="#455A64"/>
<path d="M406.89 362.9H401.66V368.3H406.89V362.9Z" fill="#455A64"/>
<g opacity="0.3">
<path opacity="0.3" d="M300.86 423.53C302.86 413.53 296.36 383.62 296.36 383.62L247.74 389.8L245.74 423.31L300.86 423.53Z" fill="black"/>
</g>
<path d="M239 383.62C239 383.62 241.14 423.39 232.22 437.07L292.77 438.56C292.77 438.56 297.47 415.33 296.4 383.62H239Z" fill="#F47A1F"/>
<path d="M296.2 391.32C296.2 391.46 283.59 391.58 268.05 391.58C252.51 391.58 239.9 391.46 239.9 391.32C239.9 391.18 252.5 391.06 268.05 391.06C283.6 391.06 296.2 391.18 296.2 391.32Z" fill="#263238"/>
<path d="M289.47 404.93C289.47 405.07 279.39 405.19 266.97 405.19C254.55 405.19 244.47 405.07 244.47 404.93C244.47 404.79 254.54 404.67 266.97 404.67C279.4 404.67 289.47 404.79 289.47 404.93Z" fill="#263238"/>
<path d="M290 412.36C290 412.5 279.93 412.62 267.5 412.62C255.07 412.62 245 412.5 245 412.36C245 412.22 255.07 412.1 267.49 412.1C279.91 412.1 290 412.22 290 412.36Z" fill="#263238"/>
<path d="M288.55 419.79C288.55 419.93 278.47 420.05 266.05 420.05C253.63 420.05 243.55 419.93 243.55 419.79C243.55 419.65 253.62 419.53 266.05 419.53C278.48 419.53 288.55 419.65 288.55 419.79Z" fill="#263238"/>
<g opacity="0.3">
<path opacity="0.3" d="M229 384.36C229 384.36 231.59 413.8 231.59 424.27H224.13L229 384.36Z" fill="black"/>
</g>
<path d="M211.11 384.36C211.11 384.36 213.25 424.14 204.33 437.81H224.27C224.27 437.81 230 416.07 229 384.36H211.11Z" fill="#E0E0E0"/>
<path d="M489.85 211.4L523.38 172.86L489.62 148.34L516.11 132.75C516.11 132.75 557.66 158 557.11 173.16C556.62 186.96 504.24 221.87 504.24 221.87L489.85 211.4Z" fill="#FFBF9D"/>
<path d="M463.55 299C459.567 305.536 454.096 311.038 447.584 315.059C441.072 319.079 433.701 321.505 426.074 322.137C418.446 322.77 410.777 321.592 403.692 318.699C396.606 315.806 390.304 311.28 385.298 305.49C380.293 299.699 376.727 292.809 374.889 285.379C373.052 277.949 372.995 270.19 374.725 262.735C376.454 255.279 379.92 248.337 384.841 242.475C389.761 236.613 395.997 231.996 403.04 229V229C412.509 224.972 423.013 224.055 433.037 226.38C443.061 228.705 452.088 234.153 458.818 241.937C465.547 249.722 469.631 259.443 470.482 269.698C471.332 279.953 468.905 290.213 463.55 299ZM383.36 250.12C377.736 259.344 375.592 270.273 377.314 280.937C379.036 291.602 384.511 301.301 392.752 308.286C400.993 315.27 411.458 319.082 422.261 319.032C433.064 318.983 443.494 315.077 451.671 308.017C459.848 300.958 465.234 291.209 466.859 280.529C468.484 269.85 466.24 258.94 460.533 249.768C454.825 240.597 446.029 233.765 435.73 230.505C425.43 227.246 414.305 227.772 404.36 231.99C395.644 235.676 388.3 241.998 383.36 250.07V250.12Z" fill="#F47A1F"/>
<g opacity="0.3">
<path opacity="0.3" d="M463.55 299C459.567 305.536 454.096 311.038 447.584 315.059C441.072 319.079 433.701 321.505 426.074 322.137C418.446 322.77 410.777 321.592 403.692 318.699C396.606 315.806 390.304 311.28 385.298 305.49C380.293 299.699 376.727 292.809 374.889 285.379C373.052 277.949 372.995 270.19 374.725 262.735C376.454 255.279 379.92 248.337 384.841 242.475C389.761 236.613 395.997 231.996 403.04 229V229C412.509 224.972 423.013 224.055 433.037 226.38C443.061 228.705 452.088 234.153 458.818 241.937C465.547 249.722 469.631 259.443 470.482 269.698C471.332 279.953 468.905 290.213 463.55 299ZM383.36 250.12C377.736 259.344 375.592 270.273 377.314 280.937C379.036 291.602 384.511 301.301 392.752 308.286C400.993 315.27 411.458 319.082 422.261 319.032C433.064 318.983 443.494 315.077 451.671 308.017C459.848 300.958 465.234 291.209 466.859 280.529C468.484 269.85 466.24 258.94 460.533 249.768C454.825 240.597 446.029 233.765 435.73 230.505C425.43 227.246 414.305 227.772 404.36 231.99C395.644 235.676 388.3 241.998 383.36 250.07V250.12Z" fill="black"/>
</g>
<path d="M461.58 296.82C457.597 303.356 452.126 308.858 445.614 312.879C439.102 316.899 431.731 319.325 424.104 319.957C416.477 320.59 408.808 319.412 401.722 316.519C394.636 313.626 388.334 309.1 383.328 303.31C378.323 297.52 374.757 290.629 372.919 283.199C371.082 275.769 371.025 268.01 372.755 260.555C374.484 253.099 377.95 246.157 382.871 240.295C387.791 234.433 394.027 229.816 401.07 226.82V226.82C410.539 222.792 421.043 221.875 431.067 224.2C441.091 226.525 450.118 231.973 456.848 239.758C463.577 247.542 467.661 257.263 468.512 267.518C469.362 277.773 466.935 288.033 461.58 296.82V296.82ZM381.39 247.94C375.772 257.163 373.633 268.09 375.358 278.752C377.084 289.413 382.561 299.107 390.802 306.087C399.043 313.067 409.507 316.874 420.306 316.821C431.106 316.768 441.532 312.86 449.705 305.8C457.878 298.74 463.26 288.993 464.882 278.316C466.504 267.639 464.259 256.733 458.551 247.565C452.843 238.396 444.048 231.568 433.751 228.311C423.454 225.054 412.332 225.582 402.39 229.8C393.664 233.5 386.32 239.845 381.39 247.94V247.94Z" fill="#F47A1F"/>
<path d="M532.26 207.48L534.16 210.48C535.87 213.12 533.78 217.38 530.04 219.11L466.61 257.95L460.69 249.29L522.52 206C526.52 202.94 530.06 204.08 532.26 207.48Z" fill="#F47A1F"/>
<path d="M422.08 231.15C421.814 231.176 421.546 231.176 421.28 231.15C420.76 231.15 419.99 231.08 419 231.15C416.206 231.268 413.436 231.721 410.75 232.5C408.893 233.042 407.076 233.71 405.31 234.5C403.293 235.411 401.342 236.46 399.47 237.64C397.399 238.933 395.436 240.391 393.6 242C391.615 243.717 389.791 245.611 388.15 247.66C386.525 249.715 385.101 251.922 383.9 254.25C382.817 256.441 381.921 258.719 381.22 261.06C380.055 265.04 379.499 269.174 379.57 273.32C379.607 276.114 379.942 278.897 380.57 281.62C380.75 282.62 381.02 283.32 381.13 283.84C381.217 284.09 381.277 284.348 381.31 284.61C381.2 284.37 381.106 284.123 381.03 283.87C380.89 283.36 380.59 282.64 380.37 281.67C379.657 278.944 379.258 276.146 379.18 273.33C379.056 269.141 379.582 264.958 380.74 260.93C381.433 258.553 382.333 256.24 383.43 254.02C384.638 251.653 386.079 249.412 387.73 247.33C389.391 245.259 391.239 243.344 393.25 241.61C395.122 239.977 397.129 238.505 399.25 237.21C401.144 236.025 403.122 234.982 405.17 234.09C406.961 233.327 408.802 232.686 410.68 232.17C413.392 231.428 416.188 231.035 419 231C419.767 230.988 420.535 231.014 421.3 231.08C421.561 231.083 421.822 231.106 422.08 231.15Z" fill="white"/>
<path d="M460 283.11C459.88 283.11 460.78 280.89 461.41 277.16C461.48 276.69 461.56 276.16 461.63 275.7C461.7 275.24 461.72 274.65 461.78 274.1C461.9 273 461.88 271.81 461.9 270.56C461.808 265.136 460.55 259.795 458.21 254.9C457.64 253.79 457.13 252.72 456.53 251.79C456.24 251.32 455.98 250.85 455.69 250.42C455.4 249.99 455.11 249.6 454.84 249.21C452.61 246.16 450.84 244.6 450.92 244.51C451.355 244.848 451.766 245.215 452.15 245.61C452.63 246.043 453.078 246.511 453.49 247.01C454.076 247.643 454.624 248.311 455.13 249.01C455.42 249.39 455.71 249.79 456.02 250.21C456.33 250.63 456.59 251.1 456.9 251.58C457.537 252.589 458.121 253.631 458.65 254.7C459.83 257.176 460.754 259.766 461.41 262.43C462.026 265.101 462.361 267.829 462.41 270.57C462.41 271.83 462.41 273.03 462.24 274.15C462.18 274.7 462.15 275.25 462.06 275.76C461.97 276.27 461.88 276.76 461.8 277.23C461.65 278.076 461.457 278.914 461.22 279.74C461.071 280.37 460.877 280.988 460.64 281.59C460.47 282.114 460.256 282.622 460 283.11V283.11Z" fill="white"/>
<path d="M430 248.69C430.1 248.8 423.56 254.92 415.39 262.37C407.22 269.82 400.53 275.78 400.39 275.67C400.25 275.56 406.83 269.44 415 262C423.17 254.56 429.86 248.58 430 248.69Z" fill="white"/>
<path d="M442.44 256.58C442.296 256.74 442.139 256.887 441.97 257.02L440.57 258.22L435.39 262.59C431.01 266.27 424.97 271.37 418.39 277.08C411.81 282.79 405.86 288.02 401.59 291.82L396.51 296.32L395.12 297.53C394.966 297.68 394.795 297.811 394.61 297.92C394.743 297.751 394.89 297.594 395.05 297.45L396.38 296.17C397.54 295.06 399.23 293.49 401.38 291.55C405.6 287.68 411.48 282.4 418.09 276.68C424.7 270.96 430.78 265.92 435.23 262.31C437.45 260.5 439.23 259.05 440.52 258.07L441.98 256.94C442.118 256.802 442.273 256.681 442.44 256.58V256.58Z" fill="white"/>
<g opacity="0.3">
<path opacity="0.3" d="M381.67 294.27L448.38 236.71C448.38 236.71 454.97 241.71 457.77 246.27L389.5 305C386.226 301.958 383.568 298.315 381.67 294.27V294.27Z" fill="white"/>
</g>
<g opacity="0.3">
<path opacity="0.3" d="M396.81 310.4L461.81 253.78C461.81 253.78 462.13 253.25 463.02 257.32L400 312.17C398.816 311.83 397.725 311.225 396.81 310.4V310.4Z" fill="white"/>
</g>
<path d="M489.85 211.4C489.85 211.4 470.29 232.95 469.85 233.76C469.41 234.57 464.14 247.01 465.44 249.53C466.74 252.05 476.54 260.9 476.54 260.9C476.54 260.9 480.04 259.39 476.73 253.47L473.42 247.56L475.2 241.56C475.2 241.56 477.84 249.13 479.37 250.79C480.9 252.45 486.96 255.29 488.48 253.79C489.387 252.923 489.999 251.793 490.23 250.56C490.23 250.56 494.38 253.86 497.31 248.61C497.31 248.61 501 248.04 502.58 245.46C504.16 242.88 504 238 504 238C503.848 237.682 503.625 237.402 503.349 237.182C503.073 236.961 502.75 236.807 502.406 236.729C502.062 236.651 501.704 236.652 501.36 236.732C501.016 236.812 500.695 236.968 500.42 237.19C498.852 238.381 497.642 239.979 496.92 241.81L495.21 239.53C495.656 236.452 496.535 233.452 497.82 230.62C499.01 228.34 506.69 223.37 507.6 219.41C508.37 216.06 501.67 213.84 498.23 214.03C497.714 214.059 497.206 214.163 496.72 214.34L489.85 211.4Z" fill="#FFBF9D"/>
<path d="M488.15 238.92C488.12 239.116 488.12 239.315 488.15 239.51C488.194 240.037 488.285 240.559 488.42 241.07C488.86 242.783 489.737 244.352 490.963 245.626C492.19 246.9 493.725 247.835 495.42 248.34C495.929 248.494 496.451 248.601 496.98 248.66C497.172 248.691 497.368 248.691 497.56 248.66C497.56 248.6 496.73 248.54 495.48 248.12C493.845 247.572 492.364 246.643 491.16 245.41C489.977 244.16 489.103 242.649 488.61 241C488.23 239.75 488.2 238.92 488.15 238.92Z" fill="#FF9A6C"/>
<path d="M481.57 238.27C481.548 238.476 481.548 238.684 481.57 238.89C481.581 239.135 481.608 239.379 481.65 239.62C481.683 239.956 481.736 240.29 481.81 240.62C481.995 241.442 482.246 242.248 482.56 243.03C483.349 244.948 484.527 246.681 486.02 248.12C486.634 248.713 487.304 249.245 488.02 249.71C488.31 249.92 488.6 250.07 488.84 250.22C489.08 250.37 489.31 250.47 489.49 250.55C489.673 250.653 489.868 250.733 490.07 250.79C490.07 250.74 489.29 250.37 488.14 249.54C487.463 249.058 486.827 248.519 486.24 247.93C485.523 247.211 484.874 246.428 484.3 245.59C483.674 244.709 483.118 243.779 482.64 242.81C482.374 242.083 482.173 241.333 482.04 240.57C481.68 239.15 481.63 238.26 481.57 238.27Z" fill="#FF9A6C"/>
<path d="M474.08 236.71C474.08 236.71 473.91 237 473.84 237.52C473.768 238.196 473.85 238.88 474.08 239.52C474.282 240.183 474.663 240.778 475.18 241.24C475.56 241.6 475.85 241.75 475.87 241.72C475.218 241.06 474.701 240.279 474.35 239.42C474.089 238.542 473.997 237.622 474.08 236.71V236.71Z" fill="#FF9A6C"/>
<path d="M541.54 170.57C541.54 170.65 540.47 169.93 538.61 169.26C536.195 168.383 533.596 168.139 531.06 168.55C528.532 169.009 526.198 170.206 524.35 171.99C522.91 173.34 522.2 174.36 522.12 174.31C522.226 174.033 522.378 173.776 522.57 173.55C523.028 172.901 523.54 172.293 524.1 171.73C525.94 169.779 528.359 168.471 531 168C533.622 167.572 536.312 167.88 538.77 168.89C539.511 169.186 540.221 169.554 540.89 169.99C541.32 170.34 541.56 170.54 541.54 170.57Z" fill="#FF9A6C"/>
<path d="M440.13 81.46C440.13 74.91 440.13 68.32 438.99 61.86C437.85 55.4 435.6 49.03 431.54 43.86C430.92 43.08 426.19 38.05 425.28 38.44C424.63 38.73 428.15 43.71 428 44.44C426.56 51.06 427.84 58.05 430.44 64.31C433.023 70.3721 436.273 76.1276 440.13 81.47" fill="#263238"/>
<path d="M433 57.47C428.45 41.67 415.47 31.15 399.8 36.14L398.38 36.68C391.485 39.3275 385.839 44.473 382.565 51.0933C379.291 57.7136 378.629 65.3236 380.71 72.41C384.71 86.08 389.35 101.13 392.16 108.21C398 122.87 413.61 119.51 413.61 119.51L423.35 141.91L454.35 126.02L433 57.47Z" fill="#FFBF9D"/>
<path d="M413.68 119.62C420.471 116.998 426.37 112.487 430.68 106.62C430.68 106.62 431.12 120.39 415.91 124.71L413.68 119.62Z" fill="#FF9A6C"/>
<path d="M391.21 85.69C391.419 86.2357 391.833 86.678 392.364 86.9227C392.894 87.1675 393.499 87.1952 394.05 87C394.325 86.9191 394.581 86.7839 394.803 86.6024C395.025 86.421 395.209 86.1969 395.343 85.9435C395.477 85.69 395.559 85.4123 395.585 85.1266C395.61 84.8409 395.578 84.5531 395.49 84.28C395.273 83.7415 394.857 83.3076 394.327 83.0691C393.798 82.8305 393.197 82.8058 392.65 83C392.378 83.0812 392.125 83.2154 391.906 83.3948C391.686 83.5742 391.504 83.7953 391.37 84.0453C391.236 84.2954 391.153 84.5694 391.126 84.8517C391.098 85.134 391.127 85.4189 391.21 85.69V85.69Z" fill="#263238"/>
<path d="M386.24 77.31C386.61 77.49 387.75 75.7 390.02 74.83C392.29 73.96 394.38 74.47 394.51 74.1C394.59 73.93 394.13 73.53 393.21 73.28C391.97 72.9788 390.666 73.0696 389.48 73.54C388.301 73.9839 387.295 74.7934 386.61 75.85C386.11 76.65 386.07 77.24 386.24 77.31Z" fill="#263238"/>
<path d="M410.56 78.9C410.763 79.4513 411.174 79.9012 411.705 80.1534C412.236 80.4057 412.844 80.4404 413.4 80.25C413.676 80.1691 413.934 80.0336 414.156 79.8514C414.379 79.6693 414.563 79.4442 414.698 79.1896C414.832 78.935 414.914 78.6561 414.938 78.3692C414.963 78.0824 414.929 77.7936 414.84 77.52C414.637 76.9686 414.226 76.5188 413.695 76.2665C413.164 76.0142 412.556 75.9796 412 76.17C411.725 76.252 411.468 76.3883 411.246 76.5707C411.024 76.7531 410.84 76.9781 410.706 77.2323C410.572 77.4866 410.49 77.765 410.465 78.0514C410.44 78.3378 410.472 78.6262 410.56 78.9V78.9Z" fill="#263238"/>
<path d="M408.76 69.72C409.13 69.9 410.27 68.1 412.54 67.24C414.81 66.38 416.89 66.88 417.03 66.5C417.11 66.34 416.65 65.94 415.73 65.69C414.49 65.3902 413.189 65.4774 412 65.94C410.82 66.3908 409.812 67.2027 409.12 68.26C408.64 69.06 408.59 69.65 408.76 69.72Z" fill="#263238"/>
<path d="M407.32 90.23C407.32 90.09 405.78 90.39 403.39 90.97C402.79 91.14 402.2 91.23 401.95 90.87C401.667 90.2938 401.572 89.6429 401.68 89.01C401.68 87.41 401.68 85.72 401.68 83.96C401.68 76.78 401.39 70.96 401.1 70.96C400.81 70.96 400.6 76.79 400.63 83.96C400.63 85.73 400.63 87.41 400.69 89.02C400.6 89.8552 400.802 90.6959 401.26 91.4C401.424 91.5707 401.624 91.7025 401.845 91.7856C402.067 91.8686 402.304 91.9009 402.54 91.88C402.882 91.8398 403.217 91.7592 403.54 91.64C405.93 90.89 407.36 90.36 407.32 90.23Z" fill="#263238"/>
<path d="M414.58 89.24C414.2 89.36 415.14 91.81 413.71 94.36C412.28 96.91 409.56 97.65 409.71 98C409.71 98.17 410.48 98.25 411.59 97.86C413.024 97.3316 414.23 96.3204 415 95C415.73 93.7132 415.935 92.1939 415.57 90.76C415.25 89.66 414.74 89.16 414.58 89.24Z" fill="#263238"/>
<path d="M405.36 60.49C405.82 61.02 407.97 59.86 410.75 59.16C413.53 58.46 415.95 58.36 416.09 57.68C416.15 57.35 415.55 56.92 414.46 56.68C413.023 56.3833 411.537 56.4278 410.12 56.81C408.701 57.1599 407.388 57.8458 406.29 58.81C405.46 59.56 405.16 60.24 405.36 60.49Z" fill="#263238"/>
<path d="M384.29 69.43C384.89 69.79 386.24 68.66 388.11 67.92C389.98 67.18 391.7 66.92 391.86 66.25C391.92 65.93 391.47 65.51 390.59 65.25C389.436 65.034 388.243 65.1614 387.161 65.6164C386.078 66.0715 385.153 66.8342 384.5 67.81C384 68.64 384 69.25 384.29 69.43Z" fill="#263238"/>
<path d="M436 68.84C436.21 68.63 445 61.96 448.51 72.15C452.02 82.34 441.12 83.8 441 83.51C440.88 83.22 436 68.84 436 68.84Z" fill="#FFBF9D"/>
<path d="M442.77 78.5701C442.77 78.5701 442.99 78.6301 443.34 78.6601C443.826 78.6967 444.306 78.5424 444.68 78.2301C445.61 77.4601 445.93 75.4401 445.34 73.5801C445.069 72.7027 444.612 71.8943 444 71.2101C443.793 70.9263 443.52 70.697 443.205 70.542C442.889 70.387 442.541 70.3108 442.19 70.3201C441.97 70.3443 441.764 70.441 441.605 70.5948C441.445 70.7486 441.342 70.951 441.31 71.1701C441.31 71.5001 441.41 71.6801 441.36 71.7201C441.31 71.7601 441.08 71.6201 441.02 71.1701C440.984 70.8969 441.048 70.6198 441.2 70.3901C441.407 70.0813 441.726 69.8659 442.09 69.7901C442.537 69.7276 442.993 69.7813 443.413 69.9459C443.833 70.1105 444.204 70.3806 444.49 70.7301C445.235 71.4588 445.785 72.3632 446.09 73.3601C446.74 75.4301 446.36 77.7201 445.03 78.6601C444.785 78.8337 444.504 78.9499 444.208 79.0001C443.912 79.0503 443.608 79.0332 443.32 78.9501C442.87 78.8101 442.74 78.6001 442.77 78.5701Z" fill="#FF9A6C"/>
<path d="M381.65 53.24C379.65 52.89 382.84 45.85 386.28 42.64C391.48 37.77 400.28 32.89 406.5 32.58C413.97 32.21 420.78 33.69 426.3 38.74C431.739 43.942 435.691 50.5008 437.75 57.74C438.57 59.8833 438.802 62.2071 438.42 64.47C437.75 67.21 435.5 69.56 436.67 72.64C436.9 73.1912 437.019 73.7826 437.019 74.38C437.019 74.9774 436.9 75.5689 436.67 76.12C435.47 78.74 432.55 77.64 430.87 76.12C427.27 72.88 425.4 68.18 423.66 63.66C422.42 60.45 421.16 57.16 421.02 53.72C420.95 51.85 421.21 49.97 421.02 48.1C420.987 47.161 420.751 46.2403 420.328 45.4012C419.905 44.5622 419.305 43.8249 418.57 43.24C418.215 43.0191 417.84 42.8317 417.45 42.68C415.605 41.9177 413.591 41.6604 411.613 41.9345C409.636 42.2087 407.768 43.0045 406.2 44.24C401.13 48.24 392.33 54.58 389.1 53.5C384.46 51.93 382.95 50.4 382.95 50.4L381.65 53.24Z" fill="#263238"/>
<path d="M366.23 148.08C366.23 148.08 364.77 143.96 369.72 138.42C374.67 132.88 413.9 122 413.9 122C413.9 122 428.16 138.15 440.5 127.12C449.5 119.12 449.8 111.12 449.8 111.12H485.3L489.73 147.59L475.58 147.67L366.23 148.08Z" fill="#F47A1F"/>
<path d="M478.85 111.11C478.85 111.11 488.11 109.24 496.57 113.11C510.78 119.56 535.47 140.11 535.47 140.11L505.47 164.76L484.67 147.7L478.85 111.11Z" fill="#F47A1F"/>
<path d="M491.75 153.59C491.612 153.54 491.481 153.473 491.36 153.39C491.12 153.24 490.76 153.02 490.36 152.71C489.113 151.846 487.933 150.89 486.83 149.85C485.176 148.314 483.685 146.612 482.38 144.77C480.721 142.524 479.589 139.933 479.07 137.19C478.07 131.37 478.94 125.85 480.82 122.45C481.54 121.094 482.535 119.902 483.74 118.95C484.074 118.706 484.425 118.485 484.79 118.29C485.03 118.15 485.17 118.08 485.18 118.1C485.19 118.12 484.7 118.46 483.86 119.1C482.74 120.088 481.817 121.279 481.14 122.61C479.4 125.96 478.56 131.38 479.58 137.08C480.088 139.751 481.177 142.277 482.77 144.48C484.037 146.313 485.481 148.018 487.08 149.57C488.157 150.632 489.292 151.634 490.48 152.57C490.921 152.887 491.345 153.228 491.75 153.59V153.59Z" fill="#263238"/>
<path d="M484.64 147.61C484.64 147.75 460.2 147.97 430.05 148.09C399.9 148.21 375.45 148.19 375.45 148.04C375.45 147.89 399.89 147.69 430.05 147.57C460.21 147.45 484.64 147.46 484.64 147.61Z" fill="#263238"/>
<path d="M353.44 142.62C353.51 142.77 353.57 142.92 353.63 143.07C353.876 143.78 354.024 144.52 354.07 145.27C354.067 145.624 354.083 145.978 354.12 146.33C354.2 146.544 354.297 146.751 354.41 146.95C354.849 148.366 354.982 149.859 354.8 151.33C354.612 152.935 354.893 154.561 355.61 156.01C356.45 157.39 358.4 158.2 359.73 157.28C359.665 157.789 359.79 158.304 360.079 158.728C360.368 159.151 360.802 159.455 361.3 159.58C361.804 159.688 362.327 159.665 362.819 159.513C363.311 159.361 363.756 159.084 364.11 158.71C364.814 157.958 365.298 157.028 365.51 156.02C365.531 156.622 365.784 157.193 366.216 157.613C366.649 158.032 367.227 158.268 367.83 158.27C368.432 158.242 369.017 158.062 369.531 157.747C370.045 157.433 370.471 156.993 370.77 156.47C371.348 155.413 371.689 154.242 371.77 153.04C371.928 151.494 372.172 149.959 372.5 148.44C372.5 148.44 374.01 148.69 374.7 148.75H374.9C375.506 147.996 375.991 147.152 376.34 146.25C377.34 144.25 378.04 143.01 378.77 141.25C379.33 139.91 379.68 138.56 378.85 137.69C376.85 135.58 372.93 139.87 372.93 139.87C372.37 138.37 367.82 138.13 366.93 140.12C366.57 139.02 366.71 138.39 365.82 137.65C365.384 137.272 364.866 137.002 364.306 136.861C363.747 136.72 363.163 136.713 362.6 136.84C362.031 136.977 361.525 137.3 361.162 137.759C360.8 138.218 360.602 138.785 360.6 139.37C360.113 138.621 359.412 138.036 358.588 137.692C357.764 137.347 356.855 137.26 355.98 137.44C354.933 137.696 354.018 138.33 353.41 139.22C353.109 139.657 352.889 140.145 352.76 140.66C352.689 140.852 352.652 141.055 352.65 141.26C352.666 141.351 352.697 141.439 352.74 141.52C353 141.88 353.26 142.22 353.44 142.62Z" fill="#FFBF9D"/>
<path d="M348.63 139.71C348.136 139.655 347.636 139.708 347.165 139.865C346.694 140.022 346.262 140.28 345.9 140.62C345.174 141.738 344.873 143.079 345.05 144.4C346.42 144.66 347.13 144.72 348.51 144.98C348.8 145.03 349.04 144.98 349.28 145.13C349.91 145.58 349.81 147.13 350.06 147.83C350.33 148.449 350.826 148.942 351.446 149.207C352.067 149.473 352.766 149.492 353.4 149.26C354.022 148.992 354.554 148.553 354.935 147.993C355.316 147.433 355.529 146.777 355.55 146.1C355.559 144.736 355.06 143.416 354.15 142.4C353.465 141.595 352.621 140.941 351.671 140.478C350.721 140.015 349.686 139.753 348.63 139.71V139.71Z" fill="#FFBF9D"/>
<path d="M360.66 139C360.92 139 360.92 143.13 360.66 148.19C360.4 153.25 359.98 157.34 359.73 157.33C359.48 157.32 359.47 153.2 359.73 148.14C359.99 143.08 360.41 138.94 360.66 139Z" fill="#FF9A6C"/>
<path d="M367 139.82C367.25 139.82 367.58 143.56 367.18 148.16C366.78 152.76 365.82 156.4 365.58 156.35C365.34 156.3 365.87 152.62 366.25 148.08C366.63 143.54 366.71 139.83 367 139.82Z" fill="#FF9A6C"/>
<path d="M373.16 140.67C373.42 140.67 373.53 143.78 373.04 147.56C372.55 151.34 371.98 154.33 371.74 154.31C371.5 154.29 371.64 151.19 372.12 147.44C372.6 143.69 372.9 140.66 373.16 140.67Z" fill="#FF9A6C"/>
<path d="M350.61 140.35C350.61 140.24 351.27 140.09 352.22 140.53C353.418 141.144 354.326 142.203 354.75 143.48C355.195 144.693 355.408 145.978 355.38 147.27C355.27 148.41 354.44 148.74 354.38 148.59C354.32 148.44 354.76 148.09 354.68 147.25C354.513 146.079 354.231 144.927 353.84 143.81C353.466 142.723 352.768 141.778 351.84 141.1C351.18 140.6 350.6 140.49 350.61 140.35Z" fill="#FF9A6C"/>
<path d="M502.16 457.2C506.82 454.173 510.509 449.868 512.786 444.799C515.063 439.731 515.832 434.114 515 428.62L526.35 421.18L527.96 420.18L617.83 361.28C622.163 364.036 627.152 365.588 632.284 365.776C637.416 365.965 642.506 364.783 647.029 362.352C651.553 359.921 655.348 356.329 658.023 351.945C660.698 347.562 662.157 342.544 662.25 337.41L657 336.5L651.28 344.5L638.13 341.73L630.79 330.48L633.56 317.32L644.49 310.19L637.09 308.25C629.25 305.94 624.9 307.82 617.52 312.64C612.877 315.669 609.203 319.968 606.936 325.027C604.668 330.085 603.902 335.689 604.73 341.17L513.36 401.06L510.53 402.9L501.87 408.57C497.186 405.603 491.748 404.045 486.204 404.082C480.66 404.119 475.243 405.75 470.6 408.78C463.25 413.57 453.34 423.54 452.27 431.61L457.49 432.47L468.42 425.34L481.58 428.11L488.92 439.36L486.15 452.52L474.38 455.84L475.21 459.65C479.56 461.475 484.292 462.205 488.99 461.778C493.688 461.351 498.21 459.779 502.16 457.2V457.2Z" fill="#E0E0E0"/>
<g opacity="0.3">
<path opacity="0.3" d="M502.16 457.2C506.82 454.173 510.509 449.868 512.786 444.799C515.063 439.731 515.832 434.114 515 428.62L526.35 421.18L527.96 420.18L617.83 361.28C622.163 364.036 627.152 365.588 632.284 365.776C637.416 365.965 642.506 364.783 647.029 362.352C651.553 359.921 655.348 356.329 658.023 351.945C660.698 347.562 662.157 342.544 662.25 337.41L657 336.5L651.28 344.5L638.13 341.73L630.79 330.48L633.56 317.32L644.49 310.19L637.09 308.25C629.25 305.94 624.9 307.82 617.52 312.64C612.877 315.669 609.203 319.968 606.936 325.027C604.668 330.085 603.902 335.689 604.73 341.17L513.36 401.06L510.53 402.9L501.87 408.57C497.186 405.603 491.748 404.045 486.204 404.082C480.66 404.119 475.243 405.75 470.6 408.78C463.25 413.57 453.34 423.54 452.27 431.61L457.49 432.47L468.42 425.34L481.58 428.11L488.92 439.36L486.15 452.52L474.38 455.84L475.21 459.65C479.56 461.475 484.292 462.205 488.99 461.778C493.688 461.351 498.21 459.779 502.16 457.2V457.2Z" fill="black"/>
</g>
<path d="M496.94 456.34C501.592 453.308 505.273 449.001 507.541 443.932C509.809 438.864 510.569 433.249 509.73 427.76L521.09 420.31L522.69 419.31L612.56 360.4C616.895 363.166 621.89 364.725 627.028 364.916C632.167 365.107 637.263 363.924 641.792 361.489C646.321 359.053 650.118 355.453 652.791 351.061C655.465 346.668 656.917 341.642 657 336.5L646 343.64L632.85 340.87L625.51 329.61L628.28 316.46L639.22 309.32C634.485 307.333 629.306 306.643 624.216 307.32C619.126 307.998 614.309 310.019 610.259 313.176C606.209 316.333 603.073 320.512 601.173 325.282C599.273 330.053 598.679 335.243 599.45 340.32L508.08 400.22L505.29 402L496.63 407.68C492.295 404.933 487.308 403.39 482.179 403.208C477.05 403.026 471.966 404.213 467.448 406.646C462.929 409.079 459.14 412.671 456.469 417.053C453.799 421.435 452.342 426.449 452.25 431.58L463.19 424.44L476.34 427.21L483.68 438.47L480.91 451.62L470 458.79C474.349 460.613 479.078 461.343 483.775 460.916C488.471 460.488 492.991 458.918 496.94 456.34V456.34Z" fill="#E0E0E0"/>
<path d="M496.94 456.34C496.94 456.34 496.42 456.68 495.39 457.34C493.813 458.224 492.163 458.973 490.46 459.58C483.764 461.87 476.46 461.628 469.93 458.9L469.75 458.83L469.92 458.72L480.85 451.57L480.79 451.64C481.64 447.59 482.56 443.18 483.54 438.49V438.6C481.25 435.08 478.78 431.3 476.19 427.35L476.29 427.41L463.13 424.66H463.26L452.32 431.81L452.04 431.99V431.66C452.112 426.748 453.431 421.935 455.873 417.672C458.315 413.41 461.8 409.837 466 407.29C470.511 404.51 475.701 403.025 481 403C486.556 402.989 492.001 404.556 496.7 407.52H496.47L599.36 340.1L599.25 340.34C598.449 334.914 599.18 329.373 601.36 324.34C603.456 319.539 606.807 315.391 611.06 312.333C615.313 309.275 620.312 307.419 625.53 306.96C630.243 306.55 634.984 307.288 639.35 309.11L639.78 309.3L639.39 309.55L628.45 316.69L628.56 316.53C627.633 320.95 626.71 325.333 625.79 329.68V329.5L633.13 340.75L632.98 340.65L646.13 343.42H645.95L656.89 336.29L657.27 336.05V336.49C657.168 341.837 655.596 347.052 652.726 351.564C649.856 356.076 645.799 359.711 641 362.07C636.44 364.351 631.359 365.386 626.27 365.07C621.356 364.744 616.6 363.201 612.43 360.58H612.66L509.77 427.88V427.77C510.459 432.512 509.986 437.351 508.39 441.87C507.224 445.155 505.476 448.204 503.23 450.87C501.858 452.475 500.319 453.93 498.64 455.21C497.47 456.02 496.87 456.42 496.87 456.42L498.6 455.16C500.261 453.866 501.786 452.405 503.15 450.8C505.788 447.64 507.723 443.955 508.827 439.989C509.93 436.023 510.177 431.868 509.55 427.8V427.73H509.61L612.38 360.26L612.5 360.19L612.62 360.26C616.725 362.842 621.41 364.358 626.25 364.67C631.262 364.992 636.269 363.977 640.76 361.73C645.466 359.399 649.441 355.819 652.251 351.382C655.06 346.945 656.596 341.821 656.69 336.57L657.05 336.77L646.11 343.91L646.03 343.96H645.93L632.78 341.2H632.68V341.12L625.33 329.86L625.28 329.78V329.68C626.193 325.327 627.117 320.943 628.05 316.53V316.43L628.13 316.37L639.07 309.24V309.67C634.775 307.863 630.104 307.131 625.462 307.537C620.82 307.943 616.347 309.475 612.43 312C607.738 315.054 604.045 319.417 601.81 324.55C599.664 329.504 598.947 334.96 599.74 340.3V340.45L599.61 340.54L496.75 407.89L496.63 407.96L496.51 407.89C491.87 404.957 486.489 403.41 481 403.43C475.899 403.459 470.896 404.841 466.504 407.436C462.112 410.031 458.487 413.746 456 418.2C453.724 422.309 452.488 426.913 452.4 431.61L452.12 431.46L463.12 424.33H463.19L476.34 427.11H476.4V427.17L483.73 438.43V438.48V438.54C482.73 443.22 481.8 447.63 480.94 451.69V451.74L469.94 458.86V458.68C476.425 461.403 483.678 461.677 490.35 459.45C492.055 458.86 493.708 458.127 495.29 457.26L496.94 456.34Z" fill="#263238"/>
<path d="M608.51 356.38C608.51 356.38 608.26 356.25 607.86 355.96C607.295 355.53 606.758 355.066 606.25 354.57C602.877 351.28 600.582 347.043 599.67 342.42C599.527 341.727 599.433 341.026 599.39 340.32C599.351 340.065 599.351 339.805 599.39 339.55C599.47 339.55 599.6 340.63 600.01 342.35C600.554 344.583 601.38 346.737 602.47 348.76C603.564 350.778 604.908 352.649 606.47 354.33C607.71 355.61 608.56 356.31 608.51 356.38Z" fill="#263238"/>
<path d="M209.25 87H137.48C132.029 87 127.61 91.419 127.61 96.87V168.64C127.61 174.091 132.029 178.51 137.48 178.51H209.25C214.701 178.51 219.12 174.091 219.12 168.64V96.87C219.12 91.419 214.701 87 209.25 87Z" fill="#F47A1F"/>
<g opacity="0.3">
<path opacity="0.3" d="M209.25 87H137.48C132.029 87 127.61 91.419 127.61 96.87V168.64C127.61 174.091 132.029 178.51 137.48 178.51H209.25C214.701 178.51 219.12 174.091 219.12 168.64V96.87C219.12 91.419 214.701 87 209.25 87Z" fill="black"/>
</g>
<path d="M195.83 87H124.06C118.609 87 114.19 91.419 114.19 96.87V168.64C114.19 174.091 118.609 178.51 124.06 178.51H195.83C201.281 178.51 205.7 174.091 205.7 168.64V96.87C205.7 91.419 201.281 87 195.83 87Z" fill="#F47A1F"/>
<g clip-path="url(#clip1_194_10635)">
<path fill-rule="evenodd" clip-rule="evenodd" d="M168.525 139.23C168.321 138.874 168.027 138.579 167.672 138.373C167.317 138.168 166.914 138.06 166.504 138.06C166.094 138.06 165.691 138.168 165.336 138.373C164.981 138.579 164.687 138.874 164.483 139.23L150.34 163.293C149.398 164.898 150.528 166.937 152.362 166.937H180.645C182.478 166.937 183.61 164.896 182.666 163.293L168.525 139.23ZM166.5 146.312C166.239 146.313 165.982 146.367 165.743 146.473C165.505 146.579 165.292 146.734 165.117 146.927C164.942 147.12 164.809 147.348 164.728 147.596C164.647 147.843 164.618 148.105 164.644 148.365L165.366 155.598C165.39 155.882 165.52 156.147 165.73 156.34C165.94 156.533 166.215 156.64 166.5 156.64C166.785 156.64 167.06 156.533 167.27 156.34C167.48 156.147 167.61 155.882 167.634 155.598L168.356 148.365C168.382 148.105 168.353 147.843 168.272 147.596C168.191 147.348 168.058 147.12 167.883 146.927C167.708 146.734 167.495 146.579 167.257 146.473C167.018 146.367 166.761 146.313 166.5 146.312V146.312ZM166.504 158.687C165.957 158.687 165.433 158.905 165.046 159.292C164.659 159.678 164.442 160.203 164.442 160.75C164.442 161.297 164.659 161.822 165.046 162.208C165.433 162.595 165.957 162.812 166.504 162.812C167.051 162.812 167.576 162.595 167.963 162.208C168.349 161.822 168.567 161.297 168.567 160.75C168.567 160.203 168.349 159.678 167.963 159.292C167.576 158.905 167.051 158.687 166.504 158.687Z" fill="#EEF1F9"/>
</g>
<g opacity="0.3">
<path opacity="0.3" d="M185.14 87L114.19 143.67V154.7L198.79 87H185.14Z" fill="white"/>
</g>
<g opacity="0.3">
<path opacity="0.3" d="M114.28 167.56L205.7 96.64V116.55L123.83 178.55C122.567 178.549 121.316 178.298 120.151 177.811C118.985 177.325 117.927 176.613 117.037 175.716C116.148 174.819 115.445 173.755 114.968 172.585C114.491 171.416 114.251 170.163 114.26 168.9L114.28 167.56Z" fill="white"/>
</g>
<path d="M150.715 103.199L159.9 103.112L160.119 118.992C160.252 121.559 159.984 124.13 159.323 126.613C158.675 128.451 157.422 130.019 155.762 131.07C153.698 132.378 151.276 133.033 148.818 132.947C146.442 133.098 144.06 132.729 141.841 131.865C140.229 131.117 138.881 129.906 137.976 128.391C136.995 126.648 136.427 124.709 136.314 122.721L145.049 121.456C145.037 122.427 145.166 123.396 145.434 124.332C145.646 124.93 146.034 125.452 146.549 125.832C146.997 126.108 147.522 126.238 148.049 126.203C148.494 126.229 148.937 126.136 149.332 125.933C149.726 125.729 150.057 125.425 150.289 125.05C150.843 123.865 151.074 122.556 150.96 121.253L150.715 103.199Z" fill="#EEF1F9"/>
<path d="M164.299 122.413L173.01 121.789C173.117 122.938 173.527 124.04 174.2 124.983C174.685 125.581 175.307 126.056 176.015 126.368C176.722 126.68 177.493 126.819 178.265 126.775C179.348 126.838 180.417 126.503 181.267 125.835C181.594 125.577 181.859 125.248 182.041 124.874C182.223 124.5 182.317 124.09 182.316 123.674C182.303 123.279 182.203 122.891 182.023 122.538C181.843 122.185 181.588 121.875 181.275 121.63C179.838 120.752 178.229 120.189 176.556 119.98C172.53 119.123 169.652 117.96 167.921 116.491C167.085 115.804 166.415 114.94 165.959 113.962C165.503 112.985 165.273 111.919 165.286 110.843C165.277 109.316 165.72 107.821 166.561 106.544C167.524 105.109 168.895 103.991 170.5 103.333C172.798 102.458 175.249 102.048 177.71 102.127C181.501 102.088 184.397 102.758 186.4 104.137C187.455 104.916 188.328 105.912 188.958 107.056C189.589 108.201 189.963 109.468 190.053 110.769L181.428 111.36C181.395 110.812 181.25 110.277 181 109.787C180.751 109.297 180.403 108.863 179.978 108.512C179.552 108.161 179.06 107.9 178.529 107.745C177.999 107.59 177.443 107.545 176.895 107.612C176.022 107.546 175.154 107.791 174.447 108.302C174.197 108.497 173.995 108.746 173.858 109.031C173.72 109.316 173.65 109.628 173.653 109.945C173.664 110.193 173.731 110.436 173.849 110.655C173.966 110.875 174.133 111.065 174.335 111.212C175.277 111.78 176.332 112.137 177.426 112.261C180.392 112.758 183.291 113.598 186.062 114.762C187.612 115.461 188.936 116.576 189.882 117.981C190.69 119.291 191.117 120.797 191.115 122.332C191.149 124.186 190.622 126.006 189.602 127.558C188.554 129.189 187.034 130.468 185.241 131.226C182.985 132.146 180.56 132.593 178.12 132.539C173.078 132.593 169.578 131.663 167.62 129.748C165.66 127.778 164.481 125.173 164.299 122.413V122.413Z" fill="#EEF1F9"/>
<g clip-path="url(#clip2_194_10635)">
<path fill-rule="evenodd" clip-rule="evenodd" d="M449.95 192.489L450.792 192.118C451.316 192.945 451.874 193.756 452.583 194.505C452.091 194.719 451.586 194.929 451.086 195.147C443.906 198.131 439.763 198.776 435.235 191.887C437.832 194.977 440.691 195.035 444.711 194.258C446.536 193.902 448.241 193.191 449.951 192.488L449.95 192.489Z" fill="#D0D1C6"/>
<path fill-rule="evenodd" clip-rule="evenodd" d="M442.315 179.535L442.28 180.033C442.23 181.134 442.316 182.33 442.368 183.18C442.45 184.62 439.938 185.944 438.925 186.609C438.392 186.954 437.847 187.263 437.292 187.557C435.866 188.308 435.83 187.915 436.735 189.413C436.77 189.466 436.805 189.52 436.845 189.582C437.946 191.431 439.455 193.5 441.312 194.165C442.31 194.525 443.498 194.483 444.71 194.258C440.689 195.036 437.832 194.977 435.234 191.888C434.834 191.282 434.426 190.613 434.017 189.882C433.888 189.652 433.778 189.422 433.676 189.208C432.91 187.451 433.368 186.317 435.109 185.428C442.53 181.644 438.01 181.683 440.241 176.638C441.301 174.233 444.682 171.709 448.482 170.151C445.449 171.715 442.751 174.106 442.315 179.535Z" fill="url(#paint0_linear_194_10635)"/>
<path opacity="0.56" fill-rule="evenodd" clip-rule="evenodd" d="M439.741 193.234C440.229 193.644 440.755 193.968 441.311 194.166C442.308 194.527 443.496 194.484 444.708 194.259C440.689 195.036 437.832 194.977 435.234 191.888L435.21 191.859C436.597 192.658 437.924 193.203 439.741 193.234Z" fill="#F47A1F"/>
<path fill-rule="evenodd" clip-rule="evenodd" d="M456.264 170.401C452.46 171.316 443.823 175.236 442.653 178.026C442.466 178.437 442.366 178.967 442.314 179.535C442.751 174.107 445.449 171.715 448.482 170.152C450.515 169.324 452.81 168.242 454.905 167.547L456.264 170.401Z" fill="url(#paint1_linear_194_10635)"/>
<path opacity="0.81" fill-rule="evenodd" clip-rule="evenodd" d="M444.751 175.77C443.752 176.547 442.973 177.259 442.653 178.026C442.466 178.437 442.366 178.966 442.314 179.535C442.751 174.107 445.449 171.715 448.482 170.152L448.576 170.117C446.504 171.777 445.501 173.049 444.751 175.77Z" fill="#BE5100"/>
<path fill-rule="evenodd" clip-rule="evenodd" d="M463.523 193.332C465.873 192.706 467.424 190.993 466.302 188.357C465.915 187.566 465.524 186.766 465.146 185.971C461.868 179.192 459.311 173.901 456.074 167.101C460.061 165.677 461.95 170.773 463.191 173.381C465.084 177.358 466.979 181.332 468.875 185.302C470.309 189.287 470.065 192.139 463.524 193.332L463.523 193.332Z" fill="#A4B6C2"/>
<path fill-rule="evenodd" clip-rule="evenodd" d="M463.523 193.332C465.121 192.903 466.351 191.976 466.622 190.599C469.446 189.295 469.352 187.449 468.873 185.303C470.307 189.288 470.063 192.14 463.521 193.333L463.523 193.332Z" fill="#D0D1C6"/>
<path fill-rule="evenodd" clip-rule="evenodd" d="M453.003 178.109C453.934 176.871 455.01 175.746 456.202 174.866C458.253 173.377 460.028 176.325 458.097 177.747C457.523 178.171 456.693 178.817 455.683 180.143C451.074 186.2 454.859 194.216 462.183 193.567C462.635 193.527 463.083 193.448 463.521 193.333C470.064 192.14 470.308 189.287 468.874 185.302L469.679 186.992C472.088 192.625 469.188 196.158 463.054 197.108C452.84 198.688 445.758 187.743 453.003 178.109Z" fill="url(#paint2_linear_194_10635)"/>
</g>
<defs>
<linearGradient id="paint0_linear_194_10635" x1="432.898" y1="198.619" x2="451.804" y2="172.357" gradientUnits="userSpaceOnUse">
<stop offset="0.265625" stop-color="#F47A1F"/>
<stop offset="1" stop-color="#E6B300"/>
</linearGradient>
<linearGradient id="paint1_linear_194_10635" x1="441.063" y1="176.907" x2="455.981" y2="169.807" gradientUnits="userSpaceOnUse">
<stop stop-color="#A4B6C2"/>
<stop offset="1" stop-color="#D0D1C6"/>
</linearGradient>
<linearGradient id="paint2_linear_194_10635" x1="472.009" y1="194.369" x2="448.353" y2="166.22" gradientUnits="userSpaceOnUse">
<stop offset="0.0893996" stop-color="#F47A1F"/>
<stop offset="0.636274" stop-color="#EB9C0C"/>
</linearGradient>
<clipPath id="clip0_194_10635">
<rect width="32" height="32" fill="white" transform="translate(634 250)"/>
</clipPath>
<clipPath id="clip1_194_10635">
<rect width="33" height="33" fill="white" transform="translate(150 136)"/>
</clipPath>
<clipPath id="clip2_194_10635">
<rect width="33.4678" height="31.2699" fill="white" transform="translate(429 179.383) rotate(-25.4524)"/>
</clipPath>
</defs>
</svg>
