<svg width="61" height="63" viewBox="0 0 61 63" fill="none" xmlns="http://www.w3.org/2000/svg">
<path d="M18.8926 0.273418C17.5333 0.23717 16.2027 0.377903 14.9727 0.669903C10.1509 1.8134 5.00002 5.68455 5.00002 13.1211C5.00002 21.0283 11.0479 28.541 14.6524 32.3144C19.5571 37.4492 25.7544 41.8262 29.7246 42.9609C29.8142 42.9866 29.9069 42.9997 30 43C30.0817 43.0004 30.163 42.9906 30.2422 42.9707C38.499 40.9072 55 26.5517 55 13.1211C55 5.68455 49.8491 1.8134 45.0274 0.669903C40.107 -0.498097 33.5835 0.761698 30 6.02928C27.312 2.07859 22.9706 0.382164 18.8926 0.273418ZM18.4824 2.26561C20.6562 2.19017 22.807 2.73065 24.6869 3.82472C26.5668 4.91879 28.0992 6.5219 29.1074 8.4492C29.2 8.6033 29.3308 8.73082 29.4872 8.81935C29.6436 8.90788 29.8203 8.95441 30 8.95441C30.1798 8.95441 30.3564 8.90788 30.5128 8.81935C30.6693 8.73082 30.8001 8.6033 30.8926 8.4492C33.6939 2.87693 39.9434 1.51759 44.5645 2.61326C48.6421 3.58104 53 6.84959 53 13.1211C53 17.3204 51.1417 21.7294 48.3906 25.7812L47 23.6972V20.5801L49.9961 18.8672C50.1725 18.766 50.3139 18.6135 50.4015 18.43C50.4891 18.2465 50.5187 18.0406 50.4864 17.8398L49.5977 12.3476C49.5238 12.0079 49.3629 11.6932 49.1307 11.4343C48.8986 11.1755 48.6032 10.9814 48.2735 10.8711L44.3164 9.55272C44.2145 9.51817 44.1076 9.50036 44 9.49998H35C34.8924 9.50036 34.7855 9.51817 34.6836 9.55272L30.7246 10.8711C30.3881 10.9863 30.0878 11.1882 29.854 11.4563C29.6202 11.7244 29.461 12.0493 29.3926 12.3984L28.5137 17.8398C28.4814 18.0406 28.5109 18.2465 28.5985 18.43C28.6861 18.6135 28.8275 18.766 29.0039 18.8672L32 20.5801V23.8086L30.0723 28.6289C30.025 28.7469 30.0005 28.8728 30 29V40.9551C28.9589 40.5988 27.9543 40.1436 27 39.5957V31C27 30.8447 26.9639 30.6916 26.8946 30.5527L25.1172 27L26.6836 23.8691C26.9075 22.9295 27.0138 21.9658 27 21V14C27 13.819 26.9509 13.6414 26.8579 13.4861C26.7649 13.3308 26.6315 13.2037 26.4719 13.1183C26.3123 13.0328 26.1325 12.9924 25.9517 13.0011C25.771 13.0099 25.5959 13.0675 25.4453 13.1679L22.6973 15H16.3028L13.5547 13.1679C13.4041 13.0675 13.2291 13.0099 13.0483 13.0011C12.8675 12.9924 12.6877 13.0328 12.5281 13.1183C12.3685 13.2037 12.2351 13.3308 12.1421 13.4861C12.0491 13.6414 12 13.819 12 14V22.6972L10.9043 24.3418C8.5555 20.6925 7.00002 16.8193 7.00002 13.1211C7.00002 6.84959 11.3579 3.58296 15.4356 2.61522C16.4343 2.38134 17.4567 2.26402 18.4824 2.26561V2.26561ZM35.1621 11.5H43.8438L47.6328 12.7187L48.4024 17.4765L45.5039 19.1328C45.351 19.2202 45.2239 19.3464 45.1354 19.4987C45.0469 19.6509 45.0002 19.8239 45 20V24C45.0001 24.1974 45.0585 24.3904 45.168 24.5547L47.1426 27.5176C42.7136 33.3471 36.6313 38.2005 32 40.2344V29.1914L33.9278 24.3711C33.9751 24.253 33.9996 24.1271 34 24V20C33.9998 19.8239 33.9531 19.6509 33.8646 19.4987C33.7761 19.3464 33.649 19.2202 33.4961 19.1328L30.5977 17.4765L31.3594 12.7676L35.1621 11.5ZM36.75 15.5C36.4848 15.5 36.2305 15.6053 36.0429 15.7929C35.8554 15.9804 35.75 16.2348 35.75 16.5C35.75 16.7652 35.8554 17.0196 36.0429 17.2071C36.2305 17.3946 36.4848 17.5 36.75 17.5C37.0152 17.5 37.2696 17.3946 37.4571 17.2071C37.6447 17.0196 37.75 16.7652 37.75 16.5C37.75 16.2348 37.6447 15.9804 37.4571 15.7929C37.2696 15.6053 37.0152 15.5 36.75 15.5ZM42.75 15.5C42.4848 15.5 42.2305 15.6053 42.0429 15.7929C41.8554 15.9804 41.75 16.2348 41.75 16.5C41.75 16.7652 41.8554 17.0196 42.0429 17.2071C42.2305 17.3946 42.4848 17.5 42.75 17.5C43.0152 17.5 43.2696 17.3946 43.4571 17.2071C43.6447 17.0196 43.75 16.7652 43.75 16.5C43.75 16.2348 43.6447 15.9804 43.4571 15.7929C43.2696 15.6053 43.0152 15.5 42.75 15.5ZM14 15.8672L15.4453 16.832C15.6096 16.9415 15.8026 16.9999 16 17H23C23.1974 16.9999 23.3904 16.9415 23.5547 16.832L25 15.8672V21C24.9896 21.6836 24.9427 22.3663 24.8594 23.0449L23.1055 26.5527C23.0361 26.6916 23 26.8447 23 27C23 27.1552 23.0361 27.3084 23.1055 27.4472L25 31.2363V38.3789C20.0369 35.0603 15.6817 30.9126 12.125 26.1172L13.8321 23.5547C13.9415 23.3904 14 23.1974 14 23V15.8672ZM17 18.8633C16.7348 18.8633 16.4804 18.9686 16.2929 19.1562C16.1054 19.3437 16 19.598 16 19.8633C16 20.1285 16.1054 20.3828 16.2929 20.5704C16.4804 20.7579 16.7348 20.8633 17 20.8633C17.2652 20.8633 17.5196 20.7579 17.7071 20.5704C17.8947 20.3828 18 20.1285 18 19.8633C18 19.598 17.8947 19.3437 17.7071 19.1562C17.5196 18.9686 17.2652 18.8633 17 18.8633ZM22 18.8633C21.7348 18.8633 21.4804 18.9686 21.2929 19.1562C21.1054 19.3437 21 19.598 21 19.8633C21 20.1285 21.1054 20.3828 21.2929 20.5704C21.4804 20.7579 21.7348 20.8633 22 20.8633C22.2652 20.8633 22.5196 20.7579 22.7071 20.5704C22.8947 20.3828 23 20.1285 23 19.8633C23 19.598 22.8947 19.3437 22.7071 19.1562C22.5196 18.9686 22.2652 18.8633 22 18.8633ZM39.75 19.5C39.4185 19.5 39.1006 19.6053 38.8661 19.7929C38.6317 19.9804 38.5 20.2348 38.5 20.5C38.5 20.7652 38.6317 21.0196 38.8661 21.2071C39.1006 21.3946 39.4185 21.5 39.75 21.5C40.0815 21.5 40.3995 21.3946 40.6339 21.2071C40.8683 21.0196 41 20.7652 41 20.5C41 20.2348 40.8683 19.9804 40.6339 19.7929C40.3995 19.6053 40.0815 19.5 39.75 19.5ZM7.88674 37.832C7.51407 37.8227 7.14394 37.8958 6.80283 38.0462C6.46172 38.1966 6.15806 38.4205 5.91358 38.7019C5.6691 38.9833 5.48985 39.3153 5.38864 39.6741C5.28743 40.0329 5.26678 40.4096 5.32815 40.7773L5.39455 41.1855L5.09963 40.8398C4.83498 40.5314 4.5083 40.2822 4.14088 40.1084C3.77347 39.9347 3.37357 39.8403 2.96724 39.8315C2.56091 39.8226 2.15728 39.8995 1.78266 40.0571C1.40803 40.2147 1.07082 40.4494 0.79299 40.7461C0.339646 41.246 0.0718746 41.8865 0.034539 42.5603C-0.0027966 43.2341 0.192572 43.9003 0.587912 44.4472L6.15236 52.3965C6.3837 52.7265 6.65386 53.0274 6.95705 53.2929L10.7363 56.5996C12.4131 58.0664 14.3335 60.2978 14.2285 61.7597L16.2246 61.9023C16.4175 59.2187 13.3711 56.2471 12.0528 55.0937L8.27346 51.7871C8.09136 51.6284 7.92935 51.448 7.79104 51.25L2.22658 43.3008C2.09686 43.1305 2.02823 42.9215 2.03178 42.7075C2.03532 42.4935 2.11082 42.2869 2.24611 42.1211C2.33119 42.0281 2.43501 41.9541 2.55073 41.9041C2.66645 41.8542 2.79145 41.8293 2.9175 41.8311C3.04354 41.833 3.16775 41.8615 3.28197 41.9149C3.39618 41.9682 3.49779 42.0451 3.5801 42.1406L8.15432 47.4785C8.49277 47.8728 8.92741 48.1728 9.41604 48.3496L12.1055 49.248L12.1211 49.2793L12.1543 49.2637L16.6699 50.7695L16.8828 51.1387C16.9689 51.3598 17.014 51.5947 17.0156 51.832H19.0156C19.0152 51.2433 18.8774 50.6628 18.6133 50.1367L16.5 46.4844C16.4334 46.3512 16.4019 46.2033 16.4086 46.0545C16.4153 45.9058 16.4599 45.7612 16.5382 45.6346C16.6165 45.508 16.7258 45.4035 16.8559 45.331C16.986 45.2586 17.1324 45.2206 17.2813 45.2207C17.421 45.2207 17.5586 45.2542 17.6827 45.3184C17.8067 45.3827 17.9136 45.4757 17.9942 45.5898C20.6997 49.4121 21.4111 50.4199 21.6231 50.709L21.6172 50.7109C23.3697 53.1777 23.1997 57.209 23.0625 60.4472C23.0401 60.9746 23.0171 61.4853 23.0039 61.9726L25.0039 62.0273C25.0171 61.5498 25.0386 61.0488 25.0606 60.5312C25.211 56.9882 25.398 52.5791 23.2481 49.5527C23.1915 49.4726 19.627 44.4336 19.627 44.4336C19.2053 43.8391 18.5735 43.427 17.8594 43.2809C17.1454 43.1348 16.4025 43.2656 15.7812 43.6467C15.16 44.0279 14.7068 44.6309 14.5135 45.3337C14.3202 46.0364 14.4013 46.7864 14.7403 47.4316L15.1602 48.1582L13.5254 47.6133L10.961 42.4844L10.2774 39.7461C10.1429 39.2096 9.83637 38.7319 9.4046 38.3862C8.97284 38.0405 8.43967 37.8458 7.88674 37.832V37.832ZM52.3008 37.834C51.7215 37.8132 51.1527 37.9919 50.6894 38.3404C50.2262 38.6888 49.8966 39.1857 49.7559 39.748L49.0723 42.4824L46.5078 47.6133L44.8711 48.1601L45.3223 47.3789C45.6486 46.7308 45.7177 45.9833 45.5156 45.2864C45.3135 44.5896 44.8552 43.995 44.2328 43.622C43.6104 43.2491 42.8699 43.1255 42.1601 43.2761C41.4503 43.4266 40.8237 43.8401 40.4063 44.4336C40.4063 44.4336 36.8828 49.4121 36.7871 49.5469L36.7832 49.5527C34.6348 52.5771 34.8223 56.9863 34.9727 60.5293C34.9947 61.0469 35.0161 61.5488 35.0293 62.0273L37.0293 61.9726C37.0161 61.4844 36.9932 60.9726 36.9707 60.4453C36.8335 57.207 36.6616 53.1777 38.4141 50.7109L38.3985 50.6992C38.7188 50.2822 39.544 49.1152 42.0391 45.5898C42.1197 45.4757 42.2265 45.3826 42.3506 45.3184C42.4746 45.2542 42.6123 45.2207 42.752 45.2207C42.9009 45.2196 43.0476 45.2572 43.1777 45.3298C43.3078 45.4024 43.4168 45.5074 43.4942 45.6347C43.571 45.7514 43.6176 45.8853 43.6295 46.0245C43.6414 46.1637 43.6184 46.3036 43.5625 46.4316L41.4199 50.1347C41.1557 50.5918 41.0169 51.1107 41.0176 51.6387H43.0176C43.017 51.4626 43.0628 51.2895 43.1504 51.1367L43.3633 50.7695L47.8789 49.2637L47.9121 49.2793L47.9278 49.2461L50.6524 48.3379C51.1265 48.1602 51.5478 47.8652 51.877 47.4804L56.4531 42.1406C56.5345 42.0463 56.6348 41.97 56.7476 41.9169C56.8603 41.8637 56.9829 41.8348 57.1074 41.832C57.235 41.8272 57.3621 41.8507 57.4796 41.9006C57.5971 41.9506 57.7021 42.0259 57.7871 42.1211C57.9225 42.2869 57.9981 42.4935 58.0017 42.7075C58.0052 42.9216 57.9365 43.1306 57.8067 43.3008L52.2422 51.25C52.1036 51.4478 51.9416 51.6281 51.7598 51.7871L47.9805 55.0937C46.6616 56.2471 43.6162 59.2188 43.8086 61.9023L45.8047 61.7597C45.6997 60.2978 47.6211 58.0664 49.2989 56.5996L53.0762 53.2929C53.3793 53.0274 53.6494 52.7264 53.8809 52.3965L59.4453 44.4472C59.8403 43.9005 60.0354 43.2347 59.9981 42.5613C59.9608 41.8879 59.6932 41.2477 59.2403 40.748C58.9644 40.4463 58.6262 40.2081 58.2492 40.0499C57.8721 39.8918 57.4653 39.8174 57.0567 39.832C56.6519 39.8418 56.2538 39.9366 55.888 40.1102C55.5223 40.2839 55.1971 40.5324 54.9336 40.8398L54.6387 41.1875L54.7051 40.7773C54.7641 40.4225 54.7468 40.0593 54.6544 39.7117C54.5619 39.3641 54.3964 39.0403 54.1688 38.7617C53.9413 38.4832 53.657 38.2564 53.3349 38.0964C53.0128 37.9364 52.6602 37.8469 52.3008 37.834V37.834ZM7.80276 39.832C7.80927 39.8319 7.81578 39.8319 7.82229 39.832C7.94031 39.8319 8.05499 39.8712 8.14808 39.9437C8.24116 40.0163 8.3073 40.1179 8.33596 40.2324L9.0469 43.0742C9.06396 43.1451 9.08885 43.2139 9.12111 43.2793L10.8418 46.7187L10.0821 46.4648C9.92409 46.4058 9.78365 46.3077 9.67385 46.1797L7.91213 44.123L7.29885 40.4472C7.28663 40.373 7.29037 40.297 7.30983 40.2243C7.32929 40.1516 7.36402 40.0839 7.4117 40.0257C7.45938 39.9675 7.51892 39.9201 7.58635 39.8867C7.65378 39.8533 7.72755 39.8347 7.80276 39.832ZM52.1953 39.832C52.2005 39.8319 52.2058 39.8319 52.211 39.832C52.288 39.832 52.3641 39.8487 52.4339 39.8811C52.5038 39.9135 52.5658 39.9606 52.6156 40.0194C52.6654 40.0781 52.7019 40.147 52.7224 40.2212C52.7429 40.2954 52.747 40.3732 52.7344 40.4492L52.1211 44.123L50.3574 46.1797C50.2567 46.2992 50.1288 46.393 49.9844 46.4531L49.1914 46.7168L50.9121 43.2793C50.9444 43.2139 50.9693 43.1451 50.9864 43.0742L51.6973 40.2324C51.7253 40.1205 51.7891 40.0208 51.8791 39.9485C51.969 39.8763 52.08 39.8353 52.1953 39.832Z" fill="#F47A1F"/>
</svg>
