<svg width="480" height="487" viewBox="0 0 480 487" fill="none" xmlns="http://www.w3.org/2000/svg">
<path d="M102.598 0.0195141C90.1153 0.384348 78.2664 5.59942 69.5663 14.5577C60.8662 23.516 55.9998 35.5123 56 48V75.8887C55.9905 85.3667 58.7959 94.6341 64.0605 102.516L72 114.422V125.602C71.9992 127.149 71.55 128.663 70.7066 129.961C69.8633 131.258 68.6619 132.283 67.248 132.912L33.2559 148.021C23.3608 152.426 14.9538 159.603 9.0519 168.685C3.14997 177.767 0.00590962 188.364 0 199.195V296H16V199.195C16.0038 191.459 18.2494 183.889 22.465 177.401C26.6806 170.914 32.6857 165.787 39.7539 162.641L73.7461 147.533C77.9873 145.646 81.5907 142.57 84.1204 138.678C86.6501 134.786 87.9977 130.244 88 125.602V109.578L77.375 93.6406C73.8649 88.3861 71.9941 82.2077 72 75.8887V48C72 39.5131 75.3714 31.3737 81.3726 25.3726C87.3737 19.3714 95.5131 16 104 16C112.487 16 120.626 19.3714 126.627 25.3726C132.629 31.3737 136 39.5131 136 48V75.8887C136.006 82.2075 134.136 88.3859 130.627 93.6406L120 109.578V125.602C120.002 130.244 121.35 134.786 123.88 138.678C126.409 142.57 130.013 145.646 134.254 147.533L155.314 156.895C149.255 162.153 144.396 168.65 141.064 175.947C137.732 183.245 136.005 191.173 136 199.195V208.883L106.602 238.283L127.27 272.014L118.334 293.574L80 302.766V353.234L118.332 362.426L127.268 383.986L106.6 417.717L142.281 453.398L176.012 432.73L197.574 441.666L206.766 480H257.234L266.426 441.668L287.986 432.732L321.717 453.4L357.398 417.719L336.73 383.986L345.666 362.426L384 353.234V302.766L345.668 293.574L336.732 272.014L357.4 238.283L344 224.883V199.195C343.995 191.173 342.268 183.245 338.936 175.947C335.604 168.65 330.745 162.153 324.686 156.895L345.746 147.533C349.987 145.646 353.591 142.57 356.12 138.678C358.65 134.786 359.998 130.244 360 125.602V109.578L349.375 93.6406C345.865 88.3861 343.994 82.2077 344 75.8887V48C344 39.5131 347.371 31.3737 353.373 25.3726C359.374 19.3714 367.513 16 376 16C384.487 16 392.626 19.3714 398.627 25.3726C404.629 31.3737 408 39.5131 408 48V75.8887C408.006 82.2075 406.136 88.3859 402.627 93.6406L392 109.578V125.602C392.002 130.244 393.35 134.786 395.88 138.678C398.409 142.57 402.013 145.646 406.254 147.533L440.246 162.641C447.314 165.787 453.319 170.914 457.535 177.401C461.751 183.889 463.996 191.459 464 199.195V296H480V199.195C479.994 188.364 476.85 177.767 470.948 168.685C465.046 159.603 456.639 152.426 446.744 148.021L412.75 132.912C411.337 132.283 410.136 131.257 409.293 129.96C408.45 128.663 408.001 127.149 408 125.602V114.422L415.939 102.514C421.204 94.6327 424.009 85.366 424 75.8887V48C424 35.2696 418.943 23.0606 409.941 14.0589C400.939 5.05711 388.73 -1.7188e-05 376 -1.7188e-05C363.27 -1.7188e-05 351.061 5.05711 342.059 14.0589C333.057 23.0606 328 35.2696 328 48V75.8887C327.99 85.3667 330.796 94.6341 336.061 102.516L344 114.422V125.602C343.999 127.149 343.55 128.663 342.707 129.961C341.863 131.258 340.662 132.283 339.248 132.912L308 146.801L276.75 132.912C275.337 132.283 274.136 131.257 273.293 129.96C272.45 128.663 272.001 127.149 272 125.602V114.422L279.939 102.514C285.203 94.6326 288.009 85.366 288 75.8887V48C288 35.2696 282.943 23.0606 273.941 14.0589C264.939 5.05711 252.73 -1.7188e-05 240 -1.7188e-05C227.27 -1.7188e-05 215.061 5.05711 206.059 14.0589C197.057 23.0606 192 35.2696 192 48V75.8887C191.991 85.3667 194.796 94.6341 200.061 102.516L208 114.422V125.602C207.999 127.149 207.55 128.663 206.707 129.961C205.863 131.258 204.662 132.283 203.248 132.912L172 146.801L140.75 132.912C139.337 132.283 138.136 131.257 137.293 129.96C136.45 128.663 136.001 127.149 136 125.602V114.422L143.939 102.514C149.204 94.6327 152.009 85.366 152 75.8887V48C152 41.5784 150.712 35.2221 148.211 29.3074C145.711 23.3928 142.049 18.04 137.442 13.566C132.835 9.09204 127.378 5.58789 121.393 3.26103C115.408 0.934166 109.016 -0.168095 102.598 0.0195141V0.0195141ZM240.934 16.0137C249.255 16.2565 257.155 19.733 262.955 25.7051C268.755 31.6772 272 39.6747 272 48V75.8887C272.006 82.2075 270.136 88.3859 266.627 93.6406L256 109.578V125.602C256.002 130.244 257.35 134.786 259.88 138.678C262.409 142.57 266.013 145.646 270.254 147.533L304.246 162.641C311.314 165.787 317.319 170.914 321.535 177.401C325.751 183.889 327.996 191.459 328 199.195V208.883L321.717 202.602L287.986 223.27L266.426 214.334L257.234 176H206.766L197.574 214.332L176.014 223.268L152 208.555V199.195C152.004 191.459 154.25 183.889 158.466 177.402C162.681 170.915 168.686 165.789 175.754 162.643L209.746 147.533C213.987 145.646 217.591 142.57 220.12 138.678C222.65 134.786 223.998 130.244 224 125.602V109.578L213.375 93.6406C209.865 88.3861 207.994 82.2077 208 75.8887V48C208 43.7191 208.859 39.4817 210.526 35.5388C212.193 31.5958 214.634 28.0274 217.705 25.0449C220.776 22.0623 224.414 19.7263 228.404 18.175C232.394 16.6237 236.655 15.8888 240.934 16.0137ZM219.383 192H244.617L252.768 225.994L289.396 241.172L319.322 222.832L328 231.51V232H328.49L337.168 240.678L318.828 270.603L334.008 307.232L368 315.383V340.617L334.006 348.768L318.828 385.396L337.168 415.322L319.322 433.168L289.396 414.828L252.768 430.008L244.617 464H219.383L211.232 430.006L174.604 414.828L144.678 433.168L126.832 415.322L145.17 385.396L129.992 348.768L96 340.617V315.383L129.994 307.232L145.172 270.603L126.832 240.678L144.678 222.832L174.604 241.17L211.232 225.992L219.383 192ZM40 200V296H56V200H40ZM424 200V296H440V200H424ZM231.998 240C214.593 240 197.579 245.161 183.108 254.831C168.636 264.5 157.357 278.244 150.697 294.324C144.036 310.404 142.293 328.098 145.689 345.168C149.084 362.238 157.466 377.918 169.773 390.225C182.08 402.532 197.76 410.914 214.83 414.309C231.9 417.705 249.594 415.962 265.674 409.301C281.754 402.641 295.498 391.362 305.167 376.89C314.837 362.419 319.998 345.405 319.998 328C319.972 304.669 310.692 282.301 294.194 265.804C277.697 249.306 255.329 240.026 231.998 240V240ZM229.006 256.062C238.705 255.659 248.385 257.221 257.464 260.654C266.544 264.088 274.835 269.322 281.841 276.041C288.846 282.761 294.42 290.828 298.227 299.757C302.035 308.686 303.998 318.293 303.998 328C303.977 347.089 296.384 365.39 282.886 378.888C269.388 392.386 251.087 399.978 231.998 400C213.163 399.998 195.078 392.616 181.623 379.435C168.167 366.255 160.412 348.328 160.021 329.496C159.629 310.665 166.633 292.431 179.529 278.703C192.425 264.975 210.187 256.847 229.006 256.062V256.062ZM208 272V304H176V352H208V384H256V352H288V304H256V272H208ZM224 288H240V320H272V336H240V368H224V336H192V320H224V288ZM20.8008 318.353L5.14258 321.646C6.91008 330.038 9.12747 338.329 11.7852 346.482L26.9961 341.52C24.5166 333.914 22.4485 326.181 20.8008 318.353V318.353ZM459.199 318.353C452.779 349.017 439.93 377.971 421.5 403.305L434.455 412.695C454.207 385.543 467.977 354.511 474.857 321.646L459.199 318.353ZM32.6719 356.965L17.8711 363.035C21.3598 371.534 25.3338 379.825 29.7734 387.867L43.7793 380.131C39.636 372.628 35.9274 364.893 32.6719 356.965V356.965ZM53.1426 395.58L39.8086 404.42C62.9995 439.401 94.9185 467.725 132.41 486.59L139.59 472.293C104.59 454.68 74.7923 428.238 53.1426 395.58V395.58ZM409.234 418.756C402.044 427.036 394.261 434.782 385.947 441.934L396.377 454.066C405.282 446.408 413.617 438.112 421.318 429.244L409.234 418.756ZM365.771 457.385C357.653 462.903 349.181 467.883 340.41 472.293L347.59 486.59C356.989 481.865 366.067 476.53 374.768 470.617L365.771 457.385Z" fill="#F47A1F"/>
</svg>
