<svg width="490" height="490" viewBox="0 0 490 490" fill="none" xmlns="http://www.w3.org/2000/svg">
<path d="M245.006 0.326172C216.897 0.326172 194.025 23.1919 194.025 51.2969C194.025 62.7669 197.837 73.3608 204.252 81.8828C187.333 81.8828 173.835 96.1079 174.727 113.006L184.176 292.49C175.201 291.389 166.758 290.051 159.062 288.471C133.358 283.201 124.3 277.09 122.637 274.828C122.248 269.549 117.845 265.391 112.471 265.391C106.838 265.391 102.275 269.953 102.275 275.586C102.275 298.734 145.986 308.751 185.262 313.078L187.949 364.303C177.56 363.127 167.833 361.634 159.062 359.836C133.358 354.562 124.3 348.455 122.637 346.193C122.248 340.914 117.845 336.752 112.471 336.752C106.838 336.752 102.275 341.317 102.275 346.945C102.275 370.846 148.842 380.748 189.035 384.846L191.73 436.066C179.916 434.84 168.886 433.212 159.064 431.195C133.36 425.925 124.3 419.815 122.637 417.553C122.248 412.279 117.847 408.115 112.473 408.115C106.84 408.115 102.277 412.681 102.277 418.309C102.277 442.962 151.824 452.719 192.812 456.58L193.08 461.664C193.219 464.318 193.708 466.869 194.496 469.285H10.5195C4.88653 469.285 0.324219 473.851 0.324219 479.48C0.324219 485.113 4.88753 489.674 10.5195 489.674H479.486C485.114 489.674 489.676 485.112 489.676 479.48C489.676 473.852 485.112 469.285 479.484 469.285H295.508C296.295 466.869 296.792 464.318 296.932 461.664L297.201 456.58C338.18 452.72 387.736 442.963 387.736 418.309C387.736 412.681 383.163 408.115 377.535 408.115C372.156 408.115 367.754 412.278 367.365 417.553C365.712 419.815 356.648 425.925 330.949 431.195C321.117 433.212 310.091 434.841 298.277 436.066L300.977 384.846C341.16 380.747 387.736 370.846 387.736 346.945C387.736 341.317 383.163 336.752 377.535 336.752C372.156 336.752 367.754 340.914 367.365 346.193C365.712 348.455 356.648 354.561 330.949 359.836C322.173 361.634 312.442 363.127 302.053 364.303L304.752 313.078C344.018 308.751 387.736 298.734 387.736 275.586C387.736 269.952 383.163 265.391 377.535 265.391C372.156 265.391 367.754 269.548 367.365 274.828C365.712 277.09 356.648 283.201 330.949 288.471C323.249 290.05 314.803 291.389 305.838 292.49L315.279 113.006C316.166 96.1119 302.679 81.8828 285.756 81.8828C292.171 73.3618 295.977 62.7669 295.977 51.2969C295.977 23.1929 273.117 0.326172 245.006 0.326172ZM92.0801 10.5137V30.9043H112.471V10.5137H92.0801ZM112.471 30.9043V51.2949H132.859V30.9043H112.471ZM112.471 51.2949H92.0801V71.6836H112.471V51.2949ZM408.125 10.5137C391.262 10.5137 377.535 24.2356 377.535 41.0996C377.535 57.9686 391.262 71.6836 408.125 71.6836C424.989 71.6836 438.705 57.9686 438.705 41.0996C438.705 24.2356 424.989 10.5137 408.125 10.5137ZM245.006 20.709C261.87 20.709 275.586 34.4309 275.586 51.2949C275.586 68.1639 261.87 81.8789 245.006 81.8789C228.142 81.8789 214.414 68.1639 214.414 51.2949C214.414 34.4309 228.142 20.709 245.006 20.709ZM71.6895 30.9043V51.2949H92.0781V30.9043H71.6895ZM408.125 30.9043C413.743 30.9043 418.314 35.4816 418.314 41.0996C418.314 46.7226 413.743 51.2949 408.125 51.2949C402.497 51.2949 397.926 46.7226 397.926 41.0996C397.926 35.4816 402.497 30.9043 408.125 30.9043ZM10.5195 102.27C4.88653 102.27 0.324219 106.837 0.324219 112.465C0.323219 129.109 8.34284 143.912 20.7148 153.221V153.244C20.7148 174.252 33.4898 192.325 51.6738 200.119C54.7018 225.36 76.2264 245 102.273 245H153.244C158.882 245 163.445 240.438 163.445 234.805V112.465C163.445 106.837 158.882 102.27 153.244 102.27H10.5195ZM204.25 102.27H285.756C290.995 102.27 295.199 106.652 294.92 111.926L285.307 294.5C259.19 296.463 230.86 296.468 204.693 294.5L195.092 111.926C194.813 106.681 198.981 102.27 204.25 102.27ZM336.756 102.271C331.128 102.271 326.566 106.839 326.566 112.467V234.807C326.564 240.439 331.128 245 336.756 245H387.734C413.772 245 435.307 225.362 438.326 200.121C456.514 192.327 469.295 174.251 469.295 153.244C469.295 153.234 469.285 153.23 469.285 153.221C481.667 143.912 489.676 129.111 489.676 112.467C489.676 106.839 485.113 102.271 479.486 102.271H336.756ZM22.457 122.658H143.055V143.049H51.3008C38.0078 143.049 26.67 134.527 22.457 122.658ZM346.955 122.658H467.543C463.34 134.527 451.993 143.049 438.705 143.049H346.955V122.658ZM42.8477 163.439H143.055V183.828H71.6895C58.3965 183.828 47.0617 175.308 42.8477 163.439ZM346.955 163.439H447.152C442.949 175.307 431.602 183.828 418.314 183.828H346.955V163.439ZM73.4375 204.219H143.055V224.609H102.275C88.9834 224.609 77.6415 216.088 73.4375 204.219ZM346.955 204.219H416.572C412.358 216.088 401.022 224.609 387.734 224.609H346.955V204.219ZM41.1035 265.391V285.779H20.7148V306.17H41.1035V326.561H61.4941V306.17H41.1055V285.779H61.4941V265.391H41.1035ZM61.4941 285.779V306.17H81.8848V285.779H61.4941ZM205.77 314.91C233.063 316.818 256.879 316.818 284.232 314.91L281.543 366.131C257.616 367.739 232.391 367.739 208.469 366.131L205.77 314.91ZM438.705 316.363C421.842 316.363 408.125 330.08 408.125 346.943C408.125 363.812 421.842 377.529 438.705 377.529C455.569 377.529 469.295 363.812 469.295 346.943C469.295 330.08 455.569 316.363 438.705 316.363ZM438.705 336.752C444.323 336.752 448.904 341.328 448.904 346.945C448.904 352.567 444.323 357.141 438.705 357.141C433.088 357.141 428.516 352.568 428.516 346.945C428.516 341.328 433.088 336.752 438.705 336.752ZM209.539 386.523C234.481 388.102 255.515 388.102 280.467 386.523L277.768 437.729C257.009 438.974 234.671 439.074 212.234 437.729L209.539 386.523ZM41.1055 387.725C24.2415 387.725 10.5195 401.447 10.5195 418.311C10.5195 435.175 24.2415 448.895 41.1055 448.895C57.9695 448.895 71.6895 435.175 71.6895 418.311C71.6895 401.448 57.9695 387.725 41.1055 387.725ZM428.516 397.92V418.311H448.904V438.699H428.516V418.311H408.125V438.701H428.516V459.09H448.906V438.701H469.295V418.311H448.906V397.92H428.516ZM41.1055 408.115C46.7235 408.114 51.3008 412.692 51.3008 418.311C51.3008 423.934 46.7235 428.506 41.1055 428.506C35.4825 428.506 30.9102 423.934 30.9102 418.311C30.9102 412.693 35.4825 408.115 41.1055 408.115ZM213.311 458.113C235.783 459.398 254.228 459.398 276.701 458.113L276.572 460.594C276.313 465.47 272.289 469.285 267.408 469.285H222.604C217.723 469.285 213.698 465.47 213.439 460.594L213.311 458.113Z" fill="#F47A1F"/>
</svg>
