<svg width="157" height="157" viewBox="0 0 157 157" fill="none" xmlns="http://www.w3.org/2000/svg">
<path d="M48.2068 0.234028C47.2749 0.195868 46.3298 0.206222 45.3681 0.264607C22.5882 1.60061 7.33395 21.5164 2.63446 34.5789C-3.64108 52.0356 2.43517 74.3384 19.31 95.7718L23.4126 92.5458C7.67288 72.558 1.8903 52.0716 7.54743 36.3423C11.7746 24.5844 25.4199 6.66043 45.6739 5.47316C58.7468 4.73993 69.1809 15.5364 74.1935 20.7421C75.1512 21.7336 75.923 22.5317 76.4971 23.0406C76.8128 23.3224 77.1985 23.5249 77.6081 23.6267L77.8782 23.6929C78.7106 23.8991 79.596 23.6809 80.2379 23.1068C80.7937 22.6137 81.5438 21.8474 82.4701 20.895C87.5662 15.6606 98.2035 4.79326 111.331 5.53432C131.588 6.7242 145.23 24.6456 149.458 36.4034C155.89 54.2829 147.521 78.1381 127.079 100.211L130.912 103.758C152.705 80.2266 161.473 54.3878 154.371 34.6401C149.671 21.5801 134.417 1.66176 111.637 0.325764C96.153 -0.605783 84.3682 11.4633 78.7293 17.2561C78.6197 17.3683 78.5075 17.4804 78.4032 17.5874C78.257 17.4387 78.1088 17.2829 77.9496 17.1185C72.7439 11.7122 62.1852 0.806421 48.2068 0.234028ZM49.7969 18.4844C48.9541 18.4844 48.1647 18.8938 47.6768 19.5801L34.6299 37.8457C33.8888 38.8816 34.0049 40.3014 34.9051 41.2043L40.1238 46.423C41.0032 47.305 42.3802 47.4355 43.4161 46.7492L50.5868 41.9687H56.5446L57.625 43.0492V71.4108C50.7363 73.9132 31.9265 82.4989 23.8713 103.666C19.1196 116.155 20.1736 127.815 21.9245 135.453L15.875 131.819V122.859C15.875 119.874 14.2149 117.19 11.5481 115.857C8.87613 114.521 5.73554 114.811 3.34797 116.601C1.38833 118.073 0.218754 120.412 0.218754 122.859V141.125C0.218754 142.025 0.685058 142.859 1.447 143.337L22.322 156.384C22.7369 156.642 23.2126 156.781 23.7031 156.781H75.8906H86.3281H141.125C141.529 156.781 141.932 156.686 142.292 156.506L152.73 151.287C153.202 151.052 153.585 150.681 153.841 150.222C154.112 149.737 160.354 138.226 153.825 126.789C148.317 117.129 138.223 115.32 136.253 115.057C136.138 115.041 136.024 115.031 135.906 115.031H108.284L107.188 113.935C108.594 113.445 109.941 112.807 111.189 112.029C112.47 111.231 113.559 110.331 114.522 109.4L124.75 112.325L126.182 107.305L118.002 104.966C119.083 103.121 119.76 101.387 120.138 100.129C120.211 99.884 120.25 99.6307 120.25 99.375V94.0135L126.498 91.3379L124.444 86.5371L120.25 88.3361V86.3281C120.25 85.8558 120.123 85.3897 119.878 84.9827L112.05 71.9358C111.638 71.2469 110.924 70.7914 110.128 70.6922C109.343 70.6061 108.539 70.8649 107.968 71.4363L100.904 78.5H99.375V45.6586L103.065 41.9687H106.413L113.584 46.7492C114.784 47.5503 116.401 47.2232 117.202 46.0255L122.421 38.1974C123.006 37.3206 123.006 36.1793 122.421 35.3026L111.984 19.6463C111.498 18.9183 110.684 18.4844 109.813 18.4844H101.984C100.995 18.4844 100.094 19.0421 99.6502 19.9267L95.1552 28.9219H67.0636L62.5685 19.9267C62.1276 19.0421 61.2233 18.4844 60.2344 18.4844H49.7969ZM51.1423 23.7031H58.6239L63.119 32.6983C63.5599 33.5829 64.4642 34.1406 65.4531 34.1406H96.7656C97.7546 34.1406 98.6562 33.5829 99.0998 32.6983L103.595 23.7031H108.416L117.116 36.75L114.308 40.9596L108.651 37.1883C108.223 36.9039 107.717 36.75 107.203 36.75H101.984C101.29 36.75 100.627 37.0239 100.139 37.5145L94.9207 42.7332C94.4302 43.2212 94.1563 43.8866 94.1563 44.5781V78.5H87.4086L80.3449 71.4363C79.7761 70.8649 78.9773 70.5983 78.184 70.6922C77.3856 70.7914 76.6749 71.2469 76.2627 71.9358L68.4345 84.9827C68.1893 85.3897 68.0625 85.8558 68.0625 86.3281V88.3361L63.8732 86.5422L61.8194 91.3379L68.0625 94.0135V98.1264V99.375C68.0625 99.6307 68.1016 99.884 68.1746 100.129C68.6548 101.726 69.6004 104.079 71.2835 106.469L61.9264 109.981L63.7611 114.868L75.1211 110.608C75.7369 111.103 76.4038 111.581 77.124 112.029C79.1254 113.277 81.3728 114.169 83.7239 114.664V130.672L68.2664 130.621L68.2511 135.84L83.7188 135.891V151.562H78.5C78.5 145.806 73.8188 141.125 68.0625 141.125H62.8438C62.8438 128.177 52.3097 117.641 39.3594 117.641H36.75V122.859H39.3594C49.429 122.859 57.625 131.053 57.625 141.125V143.734C57.625 145.175 58.7914 146.344 60.2344 146.344H68.0625C70.9406 146.344 73.2813 148.684 73.2813 151.562H24.4523L5.4375 139.678V122.859C5.4375 122.043 5.82483 121.26 6.47718 120.77C7.28608 120.164 8.30851 120.071 9.21396 120.525C10.1168 120.977 10.6563 121.85 10.6563 122.859V133.297C10.6563 134.213 11.1374 135.065 11.9202 135.534L24.967 143.362C25.9142 143.931 27.1207 143.84 27.9739 143.133C28.8246 142.426 29.1398 141.261 28.7588 140.223C26.807 134.91 22.8984 120.896 28.7486 105.521C29.1322 104.511 29.5666 103.558 30.0023 102.611L30.0125 102.616C38.7983 83.5235 57.3716 76.9008 61.009 75.7683C62.1024 75.4317 62.8438 74.4241 62.8438 73.2812V41.9687C62.8438 41.2773 62.5699 40.6118 62.0793 40.1238L59.4699 37.5145C58.982 37.0239 58.3191 36.75 57.625 36.75H49.7969C49.2828 36.75 48.7774 36.9039 48.3495 37.1883L42.3 41.2196L40.1595 39.0791L51.1423 23.7031ZM68.0625 44.5781V49.7969H73.2813V44.5781H68.0625ZM83.7188 44.5781V49.7969H88.9375V44.5781H83.7188ZM73.2813 55.0156V60.2344H83.7188V55.0156H73.2813ZM79.0147 77.4909L84.4832 82.9543C84.9712 83.4448 85.634 83.7187 86.3281 83.7187H96.7656H101.984C102.678 83.7187 103.341 83.4448 103.829 82.9543L109.298 77.4909L115.031 87.0518V90.5734L106.174 94.3652L108.228 99.166L115.031 96.2509V98.9775C114.64 100.18 113.94 101.818 112.774 103.473L107.922 102.086L106.49 107.106L108.36 107.641C106.369 108.865 104.148 109.603 101.745 109.828C100.738 109.922 99.8748 110.585 99.533 111.535C99.1886 112.488 99.4245 113.552 100.139 114.267L105.358 119.486C105.846 119.976 106.509 120.25 107.203 120.25H135.723C137.215 120.477 145.104 122.014 149.3 129.373C153.595 136.901 150.657 144.71 149.611 147.011L140.508 151.562H116.912L115.031 145.921V139.306L118.369 134.296C118.784 133.67 119.486 133.297 120.235 133.297C121.362 133.297 121.94 134.039 122.136 134.357C122.334 134.678 122.741 135.528 122.238 136.533L120.525 139.958C120.024 140.963 120.219 142.177 121.014 142.97L123.624 145.579C124.112 146.07 124.775 146.344 125.469 146.344H138.516V141.125H126.549L126.034 140.61L126.906 138.872C128.07 136.545 127.947 133.828 126.58 131.615C125.212 129.402 122.836 128.078 120.235 128.078C117.738 128.078 115.415 129.319 114.027 131.396L110.251 137.068C109.966 137.499 109.813 138.002 109.813 138.516V146.344C109.813 146.623 109.861 146.903 109.95 147.169L111.413 151.562H101.984V133.297H96.7656V151.562H88.9375V133.287V112.422C88.9375 111.075 87.914 109.948 86.5728 109.823C84.6627 109.645 82.8683 109.133 81.2113 108.319L84.6361 107.035L82.8014 102.147L76.385 104.558C74.6915 102.559 73.7588 100.447 73.2813 98.9775V98.1264V96.2458L80.0799 99.1609L82.1338 94.3652L73.2813 90.5734V87.0518L79.0147 77.4909ZM83.7188 88.9375V94.1562H88.9375V88.9375H83.7188ZM99.375 88.9375V94.1562H104.594V88.9375H99.375ZM91.5469 96.7656V101.984H96.7656V96.7656H91.5469Z" fill="#F47A1F"/>
</svg>
