<svg width="138" height="174" viewBox="0 0 138 174" fill="none" xmlns="http://www.w3.org/2000/svg">
<path d="M73.9022 109.476C70.6477 125.893 69.9253 143.278 72.3235 161.033C72.7647 164.298 71.7725 167.596 69.6016 170.079C65.1059 175.223 57.051 175.363 52.4122 170.151C50.3123 172.51 47.2554 174 43.8559 174C36.9291 174 31.5744 167.892 32.5009 161.033C34.7465 144.406 34.3974 127.007 30.9222 109.476C30.6112 107.905 31.632 106.379 33.203 106.068C34.7766 105.757 36.3005 106.777 36.6116 108.348C39.9784 125.337 40.7403 143.363 38.2486 161.81C37.7817 165.268 40.5101 168.201 43.8563 168.201C46.9752 168.201 49.5126 165.663 49.5126 162.544V108.751C49.5126 107.15 50.8111 105.852 52.4126 105.852C54.0141 105.852 55.3125 107.15 55.3125 108.751V162.544C55.3125 165.663 57.8499 168.2 60.9688 168.2C64.3128 168.2 67.0438 165.27 66.5766 161.81C64.2537 144.612 64.6021 126.57 68.2136 108.348C68.5246 106.777 70.0496 105.754 71.6221 106.067C73.1924 106.379 74.2132 107.905 73.9022 109.476ZM45.6858 56.7647L49.5123 62.2358C49.5123 64.7037 47.6114 66.34 45.5249 66.34C43.9234 66.34 42.6249 67.6384 42.6249 69.2399C42.6249 70.8414 43.9234 72.1398 45.5249 72.1398C48.2084 72.1398 50.6425 71.0535 52.4122 69.2986C54.1819 71.0538 56.616 72.1398 59.2995 72.1398C60.901 72.1398 62.1995 70.8414 62.1995 69.2399C62.1995 67.6384 60.901 66.34 59.2995 66.34C57.2243 66.34 55.3121 64.7167 55.3121 62.2358L59.1386 56.7647C60.4816 54.8443 59.1023 52.2028 56.7621 52.2028H48.0623C45.7192 52.2028 44.3446 54.8464 45.6858 56.7647ZM44.0749 43.1405C45.6764 43.1405 46.9748 41.8421 46.9748 40.2406V38.0656C46.9748 36.4641 45.6764 35.1657 44.0749 35.1657C42.4734 35.1657 41.175 36.4641 41.175 38.0656V40.2406C41.175 41.8421 42.4734 43.1405 44.0749 43.1405ZM61.112 43.1405C62.7135 43.1405 64.0119 41.8421 64.0119 40.2406V38.0656C64.0119 36.4641 62.7135 35.1657 61.112 35.1657C59.5105 35.1657 58.2121 36.4641 58.2121 38.0656V40.2406C58.2121 41.8421 59.5105 43.1405 61.112 43.1405ZM133.788 106.078C132.885 106.317 132.195 106.956 131.859 107.738C126.902 119.221 114.514 125.944 101.482 123.003C100.507 120.629 99.2842 118.345 97.8139 116.191C92.892 108.98 89.0242 101.115 86.3182 92.8127C85.8212 91.2899 84.1835 90.4584 82.6621 90.9546C81.1397 91.4509 80.3074 93.0879 80.8036 94.6103C83.6804 103.435 87.7914 111.796 93.0236 119.461C104.063 135.635 97.7102 158.39 78.9129 165.957C75.9597 167.146 76.8293 171.548 79.9967 171.548C80.3571 171.548 80.7239 171.48 81.0784 171.338C98.1728 164.456 107.141 146.554 103.416 129.234C113.382 130.512 122.873 127.212 129.702 120.698C126.701 130.647 120.788 137.828 113.014 142.104C110.392 143.547 111.433 147.546 114.414 147.546C114.887 147.546 115.366 147.43 115.81 147.186C117.396 146.313 118.934 145.324 120.38 144.246C136.321 132.366 137.375 112.745 137.424 108.921C137.451 107.045 135.68 105.583 133.788 106.078ZM24.8288 171.549C24.4684 171.549 24.102 171.481 23.7471 171.339C1.4571 162.367 -6.08635 135.38 7.01012 116.191C17.2378 101.206 19.6382 89.1349 22.7901 76.9914C18.4094 71.1231 15.8005 63.7837 15.8005 55.8277V40.8242C8.26071 39.6914 3.13327 32.4426 4.68654 24.8851L6.67372 15.2141C9.60229 0.95879 26.9247 -4.91321 37.9064 4.75154L40.973 7.45065C42.0391 7.32523 43.1212 7.25418 44.2195 7.25418C62.2919 7.25418 61.6753 7.19184 63.855 7.44739L66.9177 4.7519C77.8881 -4.90343 95.2188 0.94429 98.1503 15.2145L100.137 24.8854C101.693 32.4539 96.5535 39.6932 89.0235 40.8245V55.8281C89.0235 75.0166 73.8597 90.6273 55.2211 90.6273H49.6025C41.1391 90.6273 33.3926 87.408 27.4565 82.0971C25.2036 90.777 22.4127 103.912 11.8001 119.461C0.757858 135.641 7.11959 158.394 25.9126 165.958C28.8673 167.147 27.994 171.549 24.8288 171.549ZM15.843 34.9192C16.4548 23.1302 23.8852 13.1784 34.1383 9.16089C26.3838 2.33807 14.3836 6.50528 12.3547 16.381L10.3675 26.0523C9.54575 30.052 12.0194 33.8999 15.843 34.9192ZM21.6004 55.8277C21.6004 71.8179 34.1622 84.827 49.6029 84.827H55.2215C70.6622 84.827 83.224 71.8179 83.224 55.8277V36.496C83.224 30.5718 81.0867 24.917 77.2052 20.5729C76.1384 19.3788 76.2413 17.5453 77.4357 16.4781C78.6298 15.411 80.4633 15.5143 81.5304 16.7087C86.0163 21.7292 88.6273 28.1453 88.9793 34.9199C92.817 33.8981 95.2758 30.0386 94.4573 26.0523L92.4701 16.3814C90.4292 6.44728 78.3731 2.39716 70.7499 9.10543C66.7647 12.6125 66.0104 13.6504 64.2327 13.3531C61.8431 12.954 62.0269 13.0537 44.2199 13.0537C31.7476 13.0537 21.6008 23.5699 21.6008 36.496V55.8277H21.6004Z" fill="#F47A1F"/>
</svg>
