<svg width="61" height="61" viewBox="0 0 61 61" fill="none" xmlns="http://www.w3.org/2000/svg">
<path d="M44.9707 2.03319e-06C44.7106 0.00762561 44.4637 0.116338 44.2825 0.303055C44.1012 0.489771 43.9999 0.739784 44 1V2H43C42.7348 2 42.4805 2.10536 42.2929 2.2929C42.1054 2.48043 42 2.73479 42 3C42 3.26522 42.1054 3.51957 42.2929 3.70711C42.4805 3.89465 42.7348 4 43 4H44V5C44 5.26522 44.1054 5.51957 44.2929 5.70711C44.4805 5.89464 44.7348 6 45 6C45.2652 6 45.5196 5.89464 45.7071 5.70711C45.8947 5.51957 46 5.26522 46 5V4H47C47.2652 4 47.5196 3.89465 47.7071 3.70711C47.8947 3.51957 48 3.26522 48 3C48 2.73479 47.8947 2.48043 47.7071 2.2929C47.5196 2.10536 47.2652 2 47 2H46V1C46.0001 0.866178 45.9733 0.733704 45.9212 0.610428C45.8691 0.487153 45.7928 0.375584 45.6969 0.282332C45.6009 0.18908 45.4871 0.116042 45.3624 0.067546C45.2377 0.0190496 45.1045 -0.00391862 44.9707 2.03319e-06ZM55 2.03319e-06C54.7348 2.03319e-06 54.4805 0.105359 54.2929 0.292895C54.1054 0.480432 54 0.734786 54 1C54 1.26522 54.1054 1.51957 54.2929 1.70711C54.4805 1.89465 54.7348 2 55 2H57.586L50.2422 9.34375C48.4144 7.98381 46.2324 7.1814 43.959 7.03321C43.643 7.01121 43.3234 7 43 7C40.5836 6.9957 38.2075 7.61868 36.1041 8.80803C34.0006 9.99737 32.2419 11.7123 31 13.7852C29.7581 11.7123 27.9994 9.99737 25.896 8.80803C23.7925 7.61868 21.4164 6.9957 19 7C18.6767 7 18.357 7.01121 18.041 7.03321C15.8645 7.17295 13.7683 7.90814 11.9813 9.15848C10.1943 10.4088 8.78533 12.1262 7.90823 14.123C6.95336 16.2076 6.58238 18.5122 6.83486 20.7911C7.08734 23.07 7.95382 25.2376 9.34182 27.0625L19.9922 39.5938L7.58597 52H4.00003C3.73483 52 3.4805 52.1054 3.293 52.293L0.292997 55.293C0.172352 55.4135 0.0845255 55.5628 0.0378639 55.7268C-0.00879775 55.8909 -0.0127447 56.0641 0.0263982 56.23C0.0655411 56.396 0.146473 56.5492 0.261505 56.6751C0.376536 56.801 0.521844 56.8953 0.683622 56.9492L3.00003 57.7207V60C2.99994 60.1857 3.05156 60.3678 3.14912 60.5258C3.24668 60.6838 3.38631 60.8116 3.55238 60.8947C3.71844 60.9778 3.90438 61.0131 4.08935 60.9965C4.27432 60.9799 4.45101 60.9121 4.59964 60.8008L8.59964 57.8008C8.72401 57.7076 8.82495 57.5867 8.89445 57.4477C8.96396 57.3087 9.0001 57.1554 9.00003 57V53.4141L21.293 41.1211L30.2383 51.6465C30.3322 51.7569 30.4489 51.8455 30.5805 51.9063C30.712 51.9671 30.8551 51.9986 31 51.9986C31.1449 51.9986 31.2881 51.9671 31.4196 51.9063C31.5511 51.8455 31.6679 51.7569 31.7617 51.6465C31.7617 51.6465 52.6824 27.0335 52.6934 27.0195C54.0703 25.1963 54.9276 23.0341 55.1742 20.7626C55.4208 18.4912 55.0474 16.1954 54.0938 14.1191C53.5084 12.846 52.7128 11.6806 51.7403 10.6719L59 3.41406V6C59 6.26522 59.1054 6.51957 59.2929 6.70711C59.4805 6.89464 59.7348 7 60 7C60.2652 7 60.5196 6.89464 60.7071 6.70711C60.8947 6.51957 61 6.26522 61 6V1C60.9998 0.868659 60.9739 0.738627 60.9239 0.61719C60.8482 0.434496 60.72 0.27835 60.5555 0.168493C60.3911 0.0586364 60.1978 1.64962e-06 60 2.03319e-06H55ZM32.9707 3C32.7106 3.00763 32.4637 3.11634 32.2825 3.30306C32.1012 3.48977 31.9999 3.73978 32 4V5H31C30.7348 5 30.4805 5.10536 30.2929 5.2929C30.1054 5.48043 30 5.73479 30 6C30 6.26522 30.1054 6.51957 30.2929 6.70711C30.4805 6.89464 30.7348 7 31 7H32V8C32 8.26522 32.1054 8.51957 32.2929 8.70711C32.4805 8.89464 32.7348 9 33 9C33.2652 9 33.5196 8.89464 33.7071 8.70711C33.8947 8.51957 34 8.26522 34 8V7H35C35.2652 7 35.5196 6.89464 35.7071 6.70711C35.8947 6.51957 36 6.26522 36 6C36 5.73479 35.8947 5.48043 35.7071 5.2929C35.5196 5.10536 35.2652 5 35 5H34V4C34.0001 3.86618 33.9733 3.7337 33.9212 3.61043C33.8691 3.48715 33.7928 3.37558 33.6969 3.28233C33.6009 3.18908 33.4871 3.11604 33.3624 3.06755C33.2377 3.01905 33.1045 2.99608 32.9707 3ZM19 9C21.3698 8.99647 23.6874 9.69633 25.6592 11.011C27.6309 12.3256 29.1682 14.1958 30.0762 16.3848C30.1519 16.5675 30.2801 16.7236 30.4445 16.8335C30.609 16.9433 30.8023 17.002 31 17.002C31.1978 17.002 31.3911 16.9433 31.5555 16.8335C31.72 16.7236 31.8482 16.5675 31.9239 16.3848C32.8319 14.1958 34.3691 12.3256 36.3409 11.011C38.3126 9.69633 40.6302 8.99647 43 9C43.2774 9 43.5522 9.00868 43.8242 9.02735C45.6162 9.14247 47.3429 9.74413 48.8184 10.7676L45.0254 14.5605C44.9426 14.0923 44.9307 13.6143 44.9903 13.1426C45.009 13.0125 45.0019 12.8801 44.9694 12.7528C44.937 12.6255 44.8798 12.5058 44.801 12.4006C44.7223 12.2954 44.6237 12.2068 44.5107 12.1397C44.3977 12.0726 44.2726 12.0285 44.1426 12.0098C44.0126 11.991 43.8801 11.9981 43.7528 12.0306C43.6255 12.063 43.5058 12.1203 43.4006 12.199C43.2955 12.2777 43.2068 12.3764 43.1397 12.4893C43.0727 12.6023 43.0285 12.7274 43.0098 12.8574C42.7753 14.4204 43.1312 16.0147 44.0083 17.3294C44.8854 18.6441 46.2208 19.5851 47.7539 19.9688C47.8827 20.0057 48.0175 20.0165 48.1505 20.0004C48.2834 19.9842 48.4118 19.9416 48.5279 19.8749C48.6441 19.8082 48.7457 19.7189 48.8266 19.6122C48.9076 19.5055 48.9663 19.3837 48.9993 19.2538C49.0323 19.124 49.0388 18.9889 49.0186 18.8565C48.9984 18.7241 48.9517 18.5972 48.8815 18.4831C48.8112 18.3691 48.7188 18.2703 48.6097 18.1927C48.5005 18.1151 48.3769 18.0602 48.2461 18.0313C47.3208 17.7918 46.4971 17.2611 45.8965 16.5176L50.3242 12.0898C51.1285 12.929 51.7867 13.8967 52.2715 14.9531C53.0728 16.696 53.3883 18.6229 53.1848 20.5302C52.9813 22.4376 52.2662 24.2546 51.1153 25.7891L31 49.4551L10.9004 25.8125C9.74255 24.277 9.0222 22.4566 8.81586 20.5445C8.60953 18.6325 8.92492 16.7003 9.72854 14.9531C10.4584 13.2862 11.6323 11.8519 13.1221 10.8069C14.6118 9.76186 16.36 9.14626 18.1758 9.02735C18.4478 9.00868 18.7227 9 19 9ZM57.9707 9C57.7106 9.00763 57.4637 9.11634 57.2825 9.30305C57.1012 9.48977 56.9999 9.73978 57 10V11H56C55.7348 11 55.4805 11.1054 55.2929 11.2929C55.1054 11.4804 55 11.7348 55 12C55 12.2652 55.1054 12.5196 55.2929 12.7071C55.4805 12.8946 55.7348 13 56 13H57V14C57 14.2652 57.1054 14.5196 57.2929 14.7071C57.4805 14.8946 57.7348 15 58 15C58.2652 15 58.5196 14.8946 58.7071 14.7071C58.8947 14.5196 59 14.2652 59 14V13H60C60.2652 13 60.5196 12.8946 60.7071 12.7071C60.8947 12.5196 61 12.2652 61 12C61 11.7348 60.8947 11.4804 60.7071 11.2929C60.5196 11.1054 60.2652 11 60 11H59V10C59.0001 9.86618 58.9733 9.7337 58.9212 9.61043C58.8691 9.48715 58.7928 9.37558 58.6969 9.28233C58.6009 9.18908 58.4871 9.11604 58.3624 9.06755C58.2377 9.01905 58.1045 8.99608 57.9707 9ZM20 11C19.7687 11 19.5392 11.0081 19.3125 11.0234C17.8565 11.1173 16.4546 11.6112 15.2612 12.4506C14.0678 13.2901 13.1293 14.4426 12.5489 15.7813C11.8921 17.1802 11.6268 18.7309 11.7812 20.2686C11.9357 21.8062 12.504 23.2733 13.4258 24.5137C13.5039 24.6193 13.6021 24.7086 13.7147 24.7763C13.8272 24.8441 13.9521 24.889 14.082 24.9085C14.212 24.928 14.3445 24.9217 14.472 24.89C14.5995 24.8583 14.7195 24.8017 14.8252 24.7236C14.9309 24.6455 15.0202 24.5474 15.0879 24.4348C15.1556 24.3222 15.2005 24.1974 15.22 24.0674C15.2395 23.9375 15.2332 23.8049 15.2015 23.6774C15.1698 23.5499 15.1133 23.4299 15.0352 23.3242C14.3278 22.37 13.8921 21.242 13.7745 20.06C13.6569 18.878 13.8617 17.6862 14.3672 16.6113C14.8019 15.6034 15.506 14.7349 16.4023 14.1012C17.2985 13.4675 18.3521 13.0933 19.4473 13.0195C19.6293 13.0065 19.814 13 20 13C20.2652 13 20.5196 12.8946 20.7071 12.7071C20.8947 12.5196 21 12.2652 21 12C21 11.7348 20.8947 11.4804 20.7071 11.2929C20.5196 11.1054 20.2652 11 20 11ZM36.9707 17C36.7106 17.0076 36.4637 17.1163 36.2825 17.3031C36.1012 17.4898 35.9999 17.7398 36 18V19H35C34.7348 19 34.4805 19.1054 34.2929 19.2929C34.1054 19.4804 34 19.7348 34 20C34 20.2652 34.1054 20.5196 34.2929 20.7071C34.4805 20.8946 34.7348 21 35 21H36V22C36 22.2652 36.1054 22.5196 36.2929 22.7071C36.4805 22.8946 36.7348 23 37 23C37.2652 23 37.5196 22.8946 37.7071 22.7071C37.8947 22.5196 38 22.2652 38 22V21H39C39.2652 21 39.5196 20.8946 39.7071 20.7071C39.8947 20.5196 40 20.2652 40 20C40 19.7348 39.8947 19.4804 39.7071 19.2929C39.5196 19.1054 39.2652 19 39 19H38V18C38.0001 17.8662 37.9733 17.7337 37.9212 17.6104C37.8691 17.4872 37.7928 17.3756 37.6969 17.2823C37.6009 17.1891 37.4871 17.116 37.3624 17.0675C37.2377 17.0191 37.1045 16.9961 36.9707 17V17ZM44.9707 21C44.7106 21.0076 44.4637 21.1163 44.2825 21.3031C44.1012 21.4898 43.9999 21.7398 44 22V23H43C42.7348 23 42.4805 23.1054 42.2929 23.2929C42.1054 23.4804 42 23.7348 42 24C42 24.2652 42.1054 24.5196 42.2929 24.7071C42.4805 24.8946 42.7348 25 43 25H44V26C44 26.2652 44.1054 26.5196 44.2929 26.7071C44.4805 26.8946 44.7348 27 45 27C45.2652 27 45.5196 26.8946 45.7071 26.7071C45.8947 26.5196 46 26.2652 46 26V25H47C47.2652 25 47.5196 24.8946 47.7071 24.7071C47.8947 24.5196 48 24.2652 48 24C48 23.7348 47.8947 23.4804 47.7071 23.2929C47.5196 23.1054 47.2652 23 47 23H46V22C46.0001 21.8662 45.9733 21.7337 45.9212 21.6104C45.8691 21.4872 45.7928 21.3756 45.6969 21.2823C45.6009 21.1891 45.4871 21.116 45.3624 21.0675C45.2377 21.0191 45.1045 20.9961 44.9707 21V21ZM56.9707 24C56.7106 24.0076 56.4637 24.1163 56.2825 24.3031C56.1012 24.4898 55.9999 24.7398 56 25V26H55C54.7348 26 54.4805 26.1054 54.2929 26.2929C54.1054 26.4804 54 26.7348 54 27C54 27.2652 54.1054 27.5196 54.2929 27.7071C54.4805 27.8946 54.7348 28 55 28H56V29C56 29.2652 56.1054 29.5196 56.2929 29.7071C56.4805 29.8946 56.7348 30 57 30C57.2652 30 57.5196 29.8946 57.7071 29.7071C57.8947 29.5196 58 29.2652 58 29V28H59C59.2652 28 59.5196 27.8946 59.7071 27.7071C59.8947 27.5196 60 27.2652 60 27C60 26.7348 59.8947 26.4804 59.7071 26.2929C59.5196 26.1054 59.2652 26 59 26H58V25C58.0001 24.8662 57.9733 24.7337 57.9212 24.6104C57.8691 24.4872 57.7928 24.3756 57.6969 24.2823C57.6009 24.1891 57.4871 24.116 57.3624 24.0675C57.2377 24.0191 57.1045 23.9961 56.9707 24V24ZM21.9707 29C21.7106 29.0076 21.4637 29.1163 21.2825 29.3031C21.1012 29.4898 20.9999 29.7398 21 30V31H20C19.7348 31 19.4805 31.1054 19.2929 31.2929C19.1054 31.4804 19 31.7348 19 32C19 32.2652 19.1054 32.5196 19.2929 32.7071C19.4805 32.8946 19.7348 33 20 33H21V34C21 34.2652 21.1054 34.5196 21.2929 34.7071C21.4805 34.8946 21.7348 35 22 35C22.2652 35 22.5196 34.8946 22.7071 34.7071C22.8947 34.5196 23 34.2652 23 34V33H24C24.2652 33 24.5196 32.8946 24.7071 32.7071C24.8947 32.5196 25 32.2652 25 32C25 31.7348 24.8947 31.4804 24.7071 31.2929C24.5196 31.1054 24.2652 31 24 31H23V30C23.0001 29.8662 22.9733 29.7337 22.9212 29.6104C22.8691 29.4872 22.7928 29.3756 22.6969 29.2823C22.6009 29.1891 22.4871 29.116 22.3624 29.0675C22.2377 29.0191 22.1045 28.9961 21.9707 29V29ZM28.9707 36C28.7106 36.0076 28.4637 36.1163 28.2825 36.3031C28.1012 36.4898 27.9999 36.7398 28 37V38H27C26.7348 38 26.4805 38.1054 26.2929 38.2929C26.1054 38.4804 26 38.7348 26 39C26 39.2652 26.1054 39.5196 26.2929 39.7071C26.4805 39.8946 26.7348 40 27 40H28V41C28 41.2652 28.1054 41.5196 28.2929 41.7071C28.4805 41.8946 28.7348 42 29 42C29.2652 42 29.5196 41.8946 29.7071 41.7071C29.8947 41.5196 30 41.2652 30 41V40H31C31.2652 40 31.5196 39.8946 31.7071 39.7071C31.8947 39.5196 32 39.2652 32 39C32 38.7348 31.8947 38.4804 31.7071 38.2929C31.5196 38.1054 31.2652 38 31 38H30V37C30.0001 36.8662 29.9733 36.7337 29.9212 36.6104C29.8691 36.4872 29.7928 36.3756 29.6969 36.2823C29.6009 36.1891 29.4871 36.116 29.3624 36.0675C29.2377 36.0191 29.1045 35.9961 28.9707 36V36ZM6.97073 40C6.71063 40.0076 6.46373 40.1163 6.28249 40.3031C6.10124 40.4898 5.99992 40.7398 6.00003 41V42H5.00003C4.73481 42 4.48046 42.1054 4.29292 42.2929C4.10539 42.4804 4.00003 42.7348 4.00003 43C4.00003 43.2652 4.10539 43.5196 4.29292 43.7071C4.48046 43.8946 4.73481 44 5.00003 44H6.00003V45C6.00003 45.2652 6.10539 45.5196 6.29292 45.7071C6.48046 45.8946 6.73481 46 7.00003 46C7.26524 46 7.5196 45.8946 7.70713 45.7071C7.89467 45.5196 8.00003 45.2652 8.00003 45V44H9.00003C9.26524 44 9.5196 43.8946 9.70713 43.7071C9.89467 43.5196 10 43.2652 10 43C10 42.7348 9.89467 42.4804 9.70713 42.2929C9.5196 42.1054 9.26524 42 9.00003 42H8.00003V41C8.00009 40.8662 7.97328 40.7337 7.92121 40.6104C7.86913 40.4872 7.79284 40.3756 7.69685 40.2823C7.60087 40.1891 7.48715 40.116 7.36242 40.0675C7.23769 40.0191 7.1045 39.9961 6.97073 40ZM20.9707 48C20.7106 48.0076 20.4637 48.1163 20.2825 48.3031C20.1012 48.4898 19.9999 48.7398 20 49V50H19C18.7348 50 18.4805 50.1054 18.2929 50.2929C18.1054 50.4804 18 50.7348 18 51C18 51.2652 18.1054 51.5196 18.2929 51.7071C18.4805 51.8946 18.7348 52 19 52H20V53C20 53.2652 20.1054 53.5196 20.2929 53.7071C20.4805 53.8946 20.7348 54 21 54C21.2652 54 21.5196 53.8946 21.7071 53.7071C21.8947 53.5196 22 53.2652 22 53V52H23C23.2652 52 23.5196 51.8946 23.7071 51.7071C23.8947 51.5196 24 51.2652 24 51C24 50.7348 23.8947 50.4804 23.7071 50.2929C23.5196 50.1054 23.2652 50 23 50H22V49C22.0001 48.8662 21.9733 48.7337 21.9212 48.6104C21.8691 48.4872 21.7928 48.3756 21.6969 48.2823C21.6009 48.1891 21.4871 48.116 21.3624 48.0675C21.2377 48.0191 21.1045 47.9961 20.9707 48V48ZM4.41409 54H6.00003C6.00003 54.2652 6.10539 54.5196 6.29292 54.7071C6.48046 54.8946 6.73481 55 7.00003 55V56.5L5.00003 58V57C5.00015 56.7901 4.93419 56.5854 4.8115 56.415C4.68881 56.2446 4.5156 56.1172 4.31643 56.0508L2.85159 55.5625L4.41409 54Z" fill="#F47A1F"/>
</svg>
