<svg width="437" height="427" viewBox="0 0 437 427" fill="none" xmlns="http://www.w3.org/2000/svg">
<g clip-path="url(#clip0_49_10)">
<path fill-rule="evenodd" clip-rule="evenodd" d="M209.699 275.182L218.131 271.474C223.378 279.747 228.955 287.868 236.055 295.367C231.128 297.508 226.08 299.61 221.07 301.791C149.206 331.663 107.728 338.115 62.4106 269.162C88.4024 300.093 117.018 300.669 157.264 292.89C175.529 289.333 192.599 282.216 209.712 275.175L209.699 275.182Z" fill="#D0D1C6"/>
<path fill-rule="evenodd" clip-rule="evenodd" d="M133.278 145.515L132.932 150.505C132.428 161.521 133.291 173.494 133.811 182.007C134.628 196.42 109.485 209.668 99.3478 216.332C94.0112 219.778 88.558 222.877 83.0039 225.821C68.7254 233.336 68.3678 229.405 77.4193 244.396C77.7749 244.929 78.1283 245.469 78.5235 246.085C89.5508 264.597 104.65 285.304 123.241 291.96C133.223 295.567 145.118 295.143 157.248 292.892C117.005 300.675 88.4024 300.093 62.3976 269.168C58.3983 263.1 54.3074 256.41 50.2224 249.09C48.9223 246.787 47.8281 244.488 46.8087 242.346C39.1373 224.751 43.7203 213.408 61.1534 204.505C135.434 166.631 90.1817 167.025 112.514 116.525C123.129 92.4511 156.967 67.1838 195.003 51.5947C164.652 67.2411 137.644 91.1828 133.278 145.515Z" fill="url(#paint0_linear_49_10)"/>
<path opacity="0.56" fill-rule="evenodd" clip-rule="evenodd" d="M107.513 282.639C112.395 286.749 117.666 289.987 123.226 291.973C133.208 295.58 145.102 295.156 157.233 292.905C117.005 300.675 88.4025 300.093 62.3976 269.168L62.1584 268.88C76.0426 276.875 89.3247 282.332 107.513 282.639Z" fill="#F47A1F"/>
<path fill-rule="evenodd" clip-rule="evenodd" d="M272.899 54.0953C234.824 63.2537 148.37 102.488 136.666 130.42C134.79 134.529 133.788 139.831 133.272 145.524C137.644 91.1829 164.652 67.2411 195.003 51.5947C215.358 43.3166 238.334 32.483 259.302 25.5268L272.899 54.0953Z" fill="url(#paint1_linear_49_10)"/>
<path opacity="0.81" fill-rule="evenodd" clip-rule="evenodd" d="M157.664 107.832C147.661 115.612 139.863 122.738 136.664 130.415C134.788 134.525 133.786 139.827 133.27 145.52C137.644 91.1829 164.652 67.2411 195.003 51.5947L195.948 51.2467C175.209 67.8619 165.17 80.596 157.664 107.832Z" fill="#BE5100"/>
<path fill-rule="evenodd" clip-rule="evenodd" d="M345.559 283.622C369.083 277.358 384.611 260.21 373.38 233.829C369.506 225.904 365.595 217.901 361.805 209.938C328.993 142.082 303.397 89.1269 271.001 21.0625C310.905 6.80396 329.817 57.8149 342.241 83.9182C361.191 123.732 380.156 163.507 399.137 203.245C413.488 243.137 411.045 271.684 345.568 283.618L345.559 283.622Z" fill="#A4B6C2"/>
<path fill-rule="evenodd" clip-rule="evenodd" d="M345.559 283.622C361.559 279.331 373.868 270.046 376.584 256.268C404.848 243.217 403.912 224.733 399.116 203.255C413.466 243.147 411.023 271.695 345.546 283.628L345.559 283.622Z" fill="#D0D1C6"/>
<path fill-rule="evenodd" clip-rule="evenodd" d="M240.262 131.25C249.584 118.857 260.35 107.594 272.285 98.788C292.809 83.8839 310.581 113.387 291.247 127.623C285.507 131.867 277.198 138.336 267.083 151.61C220.948 212.233 258.834 292.475 332.148 285.979C336.672 285.573 341.154 284.787 345.546 283.628C411.036 271.688 413.477 243.137 399.129 203.249L407.178 220.16C431.295 276.548 402.263 311.912 340.867 321.415C238.627 337.235 167.737 227.679 240.262 131.25Z" fill="url(#paint2_linear_49_10)"/>
</g>
<defs>
<linearGradient id="paint0_linear_49_10" x1="39.0131" y1="336.547" x2="228.264" y2="73.6707" gradientUnits="userSpaceOnUse">
<stop offset="0.265625" stop-color="#F47A1F"/>
<stop offset="1" stop-color="#E6B300"/>
</linearGradient>
<linearGradient id="paint1_linear_49_10" x1="120.748" y1="119.211" x2="270.065" y2="48.1421" gradientUnits="userSpaceOnUse">
<stop stop-color="#A4B6C2"/>
<stop offset="1" stop-color="#D0D1C6"/>
</linearGradient>
<linearGradient id="paint2_linear_49_10" x1="430.5" y1="294" x2="193.718" y2="12.2374" gradientUnits="userSpaceOnUse">
<stop offset="0.0893996" stop-color="#F47A1F"/>
<stop offset="0.636274" stop-color="#EB9C0C"/>
</linearGradient>
<clipPath id="clip0_49_10">
<rect width="335" height="313" fill="white" transform="translate(0 144) rotate(-25.4524)"/>
</clipPath>
</defs>
</svg>
